<ttFont>
    <TTGlyph name=".notdef" xMin="50" yMin="0" xMax="700" yMax="700">
      <contour>
        <pt x="50" y="700" on="1"/>
        <pt x="700" y="700" on="1"/>
        <pt x="700" y="0" on="1"/>
        <pt x="50" y="0" on="1"/>
      </contour>
      <contour>
        <pt x="570" y="620" on="1"/>
        <pt x="375" y="403" on="1"/>
        <pt x="180" y="620" on="1"/>
        <pt x="130" y="570" on="1"/>
        <pt x="327" y="350" on="1"/>
        <pt x="130" y="130" on="1"/>
        <pt x="180" y="80" on="1"/>
        <pt x="375" y="297" on="1"/>
        <pt x="570" y="80" on="1"/>
        <pt x="620" y="130" on="1"/>
        <pt x="422" y="350" on="1"/>
        <pt x="620" y="570" on="1"/>
      </contour>
      <contour>
        <pt x="129" y="27" on="1"/>
        <pt x="137" y="27" on="1"/>
        <pt x="137" y="39" on="1"/>
        <pt x="141" y="39" on="1"/>
        <pt x="147" y="39" on="0"/>
        <pt x="157" y="44" on="0"/>
        <pt x="157" y="51" on="1"/>
        <pt x="157" y="59" on="0"/>
        <pt x="146" y="63" on="0"/>
        <pt x="140" y="63" on="1"/>
        <pt x="129" y="63" on="1"/>
      </contour>
      <contour>
        <pt x="141" y="57" on="1"/>
        <pt x="149" y="57" on="0"/>
        <pt x="149" y="52" on="1"/>
        <pt x="149" y="47" on="0"/>
        <pt x="144" y="46" on="0"/>
        <pt x="140" y="46" on="1"/>
        <pt x="137" y="46" on="1"/>
        <pt x="137" y="57" on="1"/>
      </contour>
      <contour>
        <pt x="189" y="63" on="1"/>
        <pt x="158" y="63" on="1"/>
        <pt x="158" y="57" on="1"/>
        <pt x="170" y="57" on="1"/>
        <pt x="170" y="27" on="1"/>
        <pt x="177" y="27" on="1"/>
        <pt x="177" y="57" on="1"/>
        <pt x="189" y="57" on="1"/>
      </contour>
      <contour>
        <pt x="222" y="37" on="1"/>
        <pt x="222" y="33" on="0"/>
        <pt x="215" y="33" on="1"/>
        <pt x="208" y="33" on="0"/>
        <pt x="206" y="35" on="1"/>
        <pt x="203" y="28" on="1"/>
        <pt x="205" y="28" on="0"/>
        <pt x="211" y="26" on="0"/>
        <pt x="216" y="26" on="1"/>
        <pt x="230" y="26" on="0"/>
        <pt x="230" y="38" on="1"/>
        <pt x="230" y="47" on="0"/>
        <pt x="212" y="49" on="0"/>
        <pt x="212" y="54" on="1"/>
        <pt x="212" y="57" on="0"/>
        <pt x="218" y="57" on="1"/>
        <pt x="223" y="57" on="0"/>
        <pt x="227" y="55" on="1"/>
        <pt x="229" y="62" on="1"/>
        <pt x="223" y="64" on="0"/>
        <pt x="218" y="64" on="1"/>
        <pt x="204" y="64" on="0"/>
        <pt x="204" y="53" on="1"/>
        <pt x="204" y="48" on="0"/>
        <pt x="210" y="44" on="0"/>
        <pt x="216" y="41" on="0"/>
        <pt x="222" y="39" on="0"/>
      </contour>
      <contour>
        <pt x="237" y="47" on="1"/>
        <pt x="241" y="49" on="0"/>
        <pt x="246" y="49" on="1"/>
        <pt x="251" y="49" on="0"/>
        <pt x="251" y="45" on="1"/>
        <pt x="251" y="43" on="1"/>
        <pt x="250" y="43" on="0"/>
        <pt x="248" y="44" on="0"/>
        <pt x="246" y="44" on="1"/>
        <pt x="234" y="44" on="0"/>
        <pt x="234" y="34" on="1"/>
        <pt x="234" y="26" on="0"/>
        <pt x="242" y="26" on="1"/>
        <pt x="248" y="26" on="0"/>
        <pt x="251" y="31" on="1"/>
        <pt x="253" y="27" on="1"/>
        <pt x="259" y="27" on="1"/>
        <pt x="258" y="29" on="0"/>
        <pt x="258" y="34" on="1"/>
        <pt x="258" y="45" on="1"/>
        <pt x="258" y="55" on="0"/>
        <pt x="248" y="55" on="1"/>
        <pt x="244" y="55" on="0"/>
        <pt x="237" y="53" on="0"/>
        <pt x="235" y="52" on="1"/>
      </contour>
      <contour>
        <pt x="245" y="32" on="1"/>
        <pt x="241" y="32" on="0"/>
        <pt x="241" y="36" on="1"/>
        <pt x="241" y="40" on="0"/>
        <pt x="246" y="40" on="1"/>
        <pt x="248" y="40" on="0"/>
        <pt x="250" y="39" on="0"/>
        <pt x="251" y="39" on="1"/>
        <pt x="251" y="36" on="1"/>
        <pt x="249" y="32" on="0"/>
      </contour>
      <contour>
        <pt x="292" y="27" on="1"/>
        <pt x="292" y="43" on="1"/>
        <pt x="292" y="55" on="0"/>
        <pt x="283" y="55" on="1"/>
        <pt x="276" y="55" on="0"/>
        <pt x="273" y="50" on="1"/>
        <pt x="271" y="54" on="1"/>
        <pt x="266" y="54" on="1"/>
        <pt x="266" y="27" on="1"/>
        <pt x="273" y="27" on="1"/>
        <pt x="273" y="44" on="1"/>
        <pt x="275" y="48" on="0"/>
        <pt x="279" y="48" on="1"/>
        <pt x="284" y="48" on="0"/>
        <pt x="284" y="42" on="1"/>
        <pt x="284" y="27" on="1"/>
      </contour>
      <contour>
        <pt x="297" y="28" on="1"/>
        <pt x="301" y="26" on="0"/>
        <pt x="307" y="26" on="1"/>
        <pt x="318" y="26" on="0"/>
        <pt x="318" y="35" on="1"/>
        <pt x="318" y="40" on="0"/>
        <pt x="313" y="42" on="0"/>
        <pt x="310" y="44" on="1"/>
        <pt x="305" y="46" on="0"/>
        <pt x="305" y="47" on="1"/>
        <pt x="305" y="49" on="0"/>
        <pt x="308" y="49" on="1"/>
        <pt x="312" y="49" on="0"/>
        <pt x="316" y="47" on="1"/>
        <pt x="318" y="53" on="1"/>
        <pt x="314" y="55" on="0"/>
        <pt x="308" y="55" on="1"/>
        <pt x="298" y="55" on="0"/>
        <pt x="298" y="46" on="1"/>
        <pt x="298" y="41" on="0"/>
        <pt x="304" y="38" on="0"/>
        <pt x="306" y="37" on="1"/>
        <pt x="311" y="37" on="0"/>
        <pt x="311" y="34" on="1"/>
        <pt x="311" y="32" on="0"/>
        <pt x="308" y="32" on="1"/>
        <pt x="303" y="32" on="0"/>
        <pt x="299" y="34" on="1"/>
      </contour>
      <contour>
        <pt x="338" y="42" on="1"/>
        <pt x="338" y="21" on="0"/>
        <pt x="358" y="21" on="1"/>
        <pt x="378" y="21" on="0"/>
        <pt x="378" y="42" on="1"/>
        <pt x="378" y="62" on="0"/>
        <pt x="358" y="62" on="1"/>
        <pt x="350" y="62" on="0"/>
        <pt x="338" y="51" on="0"/>
      </contour>
      <contour>
        <pt x="344" y="42" on="1"/>
        <pt x="344" y="57" on="0"/>
        <pt x="358" y="57" on="1"/>
        <pt x="372" y="57" on="0"/>
        <pt x="372" y="42" on="1"/>
        <pt x="372" y="27" on="0"/>
        <pt x="358" y="27" on="1"/>
        <pt x="344" y="27" on="0"/>
      </contour>
      <contour>
        <pt x="364" y="38" on="1"/>
        <pt x="362" y="37" on="0"/>
        <pt x="360" y="37" on="1"/>
        <pt x="356" y="37" on="0"/>
        <pt x="356" y="42" on="1"/>
        <pt x="356" y="46" on="0"/>
        <pt x="360" y="46" on="1"/>
        <pt x="363" y="46" on="1"/>
        <pt x="365" y="50" on="1"/>
        <pt x="361" y="52" on="0"/>
        <pt x="358" y="52" on="1"/>
        <pt x="349" y="52" on="0"/>
        <pt x="349" y="42" on="1"/>
        <pt x="349" y="31" on="0"/>
        <pt x="358" y="31" on="1"/>
        <pt x="363" y="31" on="0"/>
        <pt x="365" y="33" on="1"/>
      </contour>
      <contour>
        <pt x="399" y="27" on="1"/>
        <pt x="407" y="27" on="1"/>
        <pt x="407" y="39" on="1"/>
        <pt x="411" y="39" on="1"/>
        <pt x="417" y="39" on="0"/>
        <pt x="427" y="44" on="0"/>
        <pt x="427" y="51" on="1"/>
        <pt x="427" y="59" on="0"/>
        <pt x="416" y="63" on="0"/>
        <pt x="410" y="63" on="1"/>
        <pt x="399" y="63" on="1"/>
      </contour>
      <contour>
        <pt x="411" y="57" on="1"/>
        <pt x="419" y="57" on="0"/>
        <pt x="419" y="52" on="1"/>
        <pt x="419" y="47" on="0"/>
        <pt x="414" y="46" on="0"/>
        <pt x="410" y="46" on="1"/>
        <pt x="407" y="46" on="1"/>
        <pt x="407" y="57" on="1"/>
      </contour>
      <contour>
        <pt x="432" y="47" on="1"/>
        <pt x="436" y="49" on="0"/>
        <pt x="441" y="49" on="1"/>
        <pt x="446" y="49" on="0"/>
        <pt x="446" y="45" on="1"/>
        <pt x="446" y="43" on="1"/>
        <pt x="445" y="43" on="0"/>
        <pt x="443" y="44" on="0"/>
        <pt x="441" y="44" on="1"/>
        <pt x="428" y="44" on="0"/>
        <pt x="428" y="34" on="1"/>
        <pt x="428" y="26" on="0"/>
        <pt x="437" y="26" on="1"/>
        <pt x="443" y="26" on="0"/>
        <pt x="446" y="31" on="1"/>
        <pt x="448" y="27" on="1"/>
        <pt x="454" y="27" on="1"/>
        <pt x="453" y="29" on="0"/>
        <pt x="453" y="34" on="1"/>
        <pt x="453" y="45" on="1"/>
        <pt x="453" y="55" on="0"/>
        <pt x="443" y="55" on="1"/>
        <pt x="439" y="55" on="0"/>
        <pt x="432" y="53" on="0"/>
        <pt x="430" y="52" on="1"/>
      </contour>
      <contour>
        <pt x="440" y="32" on="1"/>
        <pt x="436" y="32" on="0"/>
        <pt x="436" y="36" on="1"/>
        <pt x="436" y="40" on="0"/>
        <pt x="441" y="40" on="1"/>
        <pt x="443" y="40" on="0"/>
        <pt x="445" y="39" on="0"/>
        <pt x="446" y="39" on="1"/>
        <pt x="446" y="36" on="1"/>
        <pt x="444" y="32" on="0"/>
      </contour>
      <contour>
        <pt x="478" y="54" on="1"/>
        <pt x="477" y="55" on="0"/>
        <pt x="474" y="55" on="1"/>
        <pt x="470" y="55" on="0"/>
        <pt x="468" y="50" on="1"/>
        <pt x="467" y="50" on="1"/>
        <pt x="466" y="54" on="1"/>
        <pt x="460" y="54" on="1"/>
        <pt x="460" y="27" on="1"/>
        <pt x="468" y="27" on="1"/>
        <pt x="468" y="44" on="1"/>
        <pt x="468" y="48" on="0"/>
        <pt x="474" y="48" on="1"/>
        <pt x="475" y="48" on="1"/>
        <pt x="476" y="48" on="0"/>
        <pt x="476" y="47" on="0"/>
        <pt x="477" y="47" on="1"/>
      </contour>
      <contour>
        <pt x="483" y="47" on="1"/>
        <pt x="489" y="49" on="0"/>
        <pt x="492" y="49" on="1"/>
        <pt x="497" y="49" on="0"/>
        <pt x="497" y="45" on="1"/>
        <pt x="497" y="43" on="1"/>
        <pt x="496" y="43" on="0"/>
        <pt x="494" y="44" on="0"/>
        <pt x="492" y="44" on="1"/>
        <pt x="479" y="44" on="0"/>
        <pt x="479" y="34" on="1"/>
        <pt x="479" y="26" on="0"/>
        <pt x="488" y="26" on="1"/>
        <pt x="495" y="26" on="0"/>
        <pt x="497" y="31" on="1"/>
        <pt x="498" y="31" on="1"/>
        <pt x="499" y="27" on="1"/>
        <pt x="505" y="27" on="1"/>
        <pt x="504" y="29" on="0"/>
        <pt x="504" y="34" on="1"/>
        <pt x="504" y="45" on="1"/>
        <pt x="504" y="55" on="0"/>
        <pt x="494" y="55" on="1"/>
        <pt x="490" y="55" on="0"/>
        <pt x="484" y="53" on="0"/>
        <pt x="482" y="52" on="1"/>
      </contour>
      <contour>
        <pt x="491" y="32" on="1"/>
        <pt x="487" y="32" on="0"/>
        <pt x="487" y="36" on="1"/>
        <pt x="487" y="40" on="0"/>
        <pt x="492" y="40" on="1"/>
        <pt x="494" y="40" on="0"/>
        <pt x="496" y="39" on="0"/>
        <pt x="497" y="39" on="1"/>
        <pt x="497" y="36" on="1"/>
        <pt x="495" y="32" on="0"/>
      </contour>
      <contour>
        <pt x="533" y="63" on="1"/>
        <pt x="502" y="63" on="1"/>
        <pt x="502" y="57" on="1"/>
        <pt x="513" y="57" on="1"/>
        <pt x="513" y="27" on="1"/>
        <pt x="521" y="27" on="1"/>
        <pt x="521" y="57" on="1"/>
        <pt x="533" y="57" on="1"/>
      </contour>
      <contour>
        <pt x="541" y="54" on="1"/>
        <pt x="533" y="54" on="1"/>
        <pt x="545" y="27" on="1"/>
        <pt x="544" y="22" on="0"/>
        <pt x="540" y="22" on="1"/>
        <pt x="539" y="23" on="1"/>
        <pt x="537" y="17" on="1"/>
        <pt x="539" y="16" on="0"/>
        <pt x="542" y="16" on="1"/>
        <pt x="547" y="16" on="0"/>
        <pt x="552" y="29" on="1"/>
        <pt x="562" y="54" on="1"/>
        <pt x="554" y="54" on="1"/>
        <pt x="549" y="39" on="1"/>
        <pt x="549" y="34" on="1"/>
        <pt x="548" y="34" on="1"/>
        <pt x="547" y="39" on="1"/>
      </contour>
      <contour>
        <pt x="565" y="16" on="1"/>
        <pt x="573" y="16" on="1"/>
        <pt x="573" y="28" on="1"/>
        <pt x="574" y="26" on="0"/>
        <pt x="578" y="26" on="1"/>
        <pt x="592" y="26" on="0"/>
        <pt x="592" y="41" on="1"/>
        <pt x="592" y="55" on="0"/>
        <pt x="581" y="55" on="1"/>
        <pt x="576" y="55" on="0"/>
        <pt x="572" y="51" on="1"/>
        <pt x="571" y="51" on="1"/>
        <pt x="570" y="54" on="1"/>
        <pt x="565" y="54" on="1"/>
      </contour>
      <contour>
        <pt x="579" y="49" on="1"/>
        <pt x="584" y="49" on="0"/>
        <pt x="584" y="41" on="1"/>
        <pt x="584" y="32" on="0"/>
        <pt x="577" y="32" on="1"/>
        <pt x="575" y="32" on="0"/>
        <pt x="573" y="34" on="1"/>
        <pt x="573" y="44" on="1"/>
        <pt x="573" y="49" on="0"/>
      </contour>
      <contour>
        <pt x="618" y="34" on="1"/>
        <pt x="616" y="32" on="0"/>
        <pt x="611" y="32" on="1"/>
        <pt x="604" y="32" on="0"/>
        <pt x="603" y="38" on="1"/>
        <pt x="622" y="38" on="1"/>
        <pt x="622" y="44" on="1"/>
        <pt x="622" y="50" on="0"/>
        <pt x="615" y="55" on="0"/>
        <pt x="610" y="55" on="1"/>
        <pt x="596" y="55" on="0"/>
        <pt x="596" y="40" on="1"/>
        <pt x="596" y="26" on="0"/>
        <pt x="610" y="26" on="1"/>
        <pt x="613" y="26" on="0"/>
        <pt x="619" y="28" on="0"/>
        <pt x="621" y="29" on="1"/>
      </contour>
      <contour>
        <pt x="610" y="49" on="1"/>
        <pt x="616" y="49" on="0"/>
        <pt x="615" y="43" on="1"/>
        <pt x="604" y="43" on="1"/>
        <pt x="604" y="49" on="0"/>
      </contour>
    </TTGlyph>
    <TTGlyph name="A" xMin="-38" yMin="0" xMax="538" yMax="705">
      <contour>
        <pt x="387" y="155" on="1"/>
        <pt x="183" y="155" on="1"/>
        <pt x="100" y="0" on="1"/>
        <pt x="-38" y="0" on="1"/>
        <pt x="351" y="705" on="1"/>
        <pt x="447" y="705" on="1"/>
        <pt x="538" y="0" on="1"/>
        <pt x="407" y="0" on="1"/>
      </contour>
      <contour>
        <pt x="240" y="265" on="1"/>
        <pt x="382" y="265" on="1"/>
        <pt x="366" y="421" on="1"/>
        <pt x="367" y="531" on="1"/>
        <pt x="362" y="531" on="1"/>
        <pt x="322" y="420" on="1"/>
      </contour>
    </TTGlyph>
    <TTGlyph name="AE" xMin="-66" yMin="0" xMax="885" yMax="700">
      <contour>
        <pt x="449" y="530" on="1"/>
        <pt x="405" y="436" on="1"/>
        <pt x="289" y="281" on="1"/>
        <pt x="403" y="281" on="1"/>
        <pt x="455" y="530" on="1"/>
      </contour>
      <contour>
        <pt x="379" y="170" on="1"/>
        <pt x="208" y="170" on="1"/>
        <pt x="80" y="0" on="1"/>
        <pt x="-66" y="0" on="1"/>
        <pt x="481" y="700" on="1"/>
        <pt x="614" y="700" on="1"/>
        <pt x="885" y="700" on="1"/>
        <pt x="859" y="578" on="1"/>
        <pt x="595" y="578" on="1"/>
        <pt x="560" y="415" on="1"/>
        <pt x="801" y="415" on="1"/>
        <pt x="775" y="293" on="1"/>
        <pt x="535" y="293" on="1"/>
        <pt x="499" y="122" on="1"/>
        <pt x="768" y="122" on="1"/>
        <pt x="742" y="0" on="1"/>
        <pt x="481" y="0" on="1"/>
        <pt x="343" y="0" on="1"/>
      </contour>
    </TTGlyph>
    <TTGlyph name="Aacute" xMin="-38" yMin="0" xMax="598" yMax="870">
      <component glyphName="A" x="0" y="0" flags="0x204"/>
      <component glyphName="uniF6C9" x="161" y="0" flags="0x4"/>
    </TTGlyph>
    <TTGlyph name="Abreve" xMin="-38" yMin="0" xMax="610" yMax="875">
      <component glyphName="A" x="0" y="0" flags="0x204"/>
      <component glyphName="uniF406" x="100" y="0" flags="0x4"/>
    </TTGlyph>
    <TTGlyph name="Acircumflex" xMin="-38" yMin="0" xMax="576" yMax="870">
      <component glyphName="A" x="0" y="0" flags="0x204"/>
      <component glyphName="uniF408" x="89" y="0" flags="0x4"/>
    </TTGlyph>
    <TTGlyph name="Adieresis" xMin="-38" yMin="0" xMax="594" yMax="856">
      <component glyphName="A" x="0" y="0" flags="0x204"/>
      <component glyphName="uniF6CB" x="100" y="0" flags="0x4"/>
    </TTGlyph>
    <TTGlyph name="Agrave" xMin="-38" yMin="0" xMax="538" yMax="870">
      <component glyphName="A" x="0" y="0" flags="0x204"/>
      <component glyphName="uniF6CE" x="112" y="0" flags="0x4"/>
    </TTGlyph>
    <TTGlyph name="Amacron" xMin="-38" yMin="0" xMax="588" yMax="856">
      <component glyphName="A" x="0" y="0" flags="0x204"/>
      <component glyphName="uniF6D0" x="69" y="0" flags="0x4"/>
    </TTGlyph>
    <TTGlyph name="Aogonek" xMin="-38" yMin="-201" xMax="538" yMax="705">
      <contour>
        <pt x="387" y="155" on="1"/>
        <pt x="183" y="155" on="1"/>
        <pt x="100" y="0" on="1"/>
        <pt x="-38" y="0" on="1"/>
        <pt x="351" y="705" on="1"/>
        <pt x="447" y="705" on="1"/>
        <pt x="538" y="0" on="1"/>
        <pt x="517" y="0" on="1"/>
        <pt x="485" y="-12" on="0"/>
        <pt x="442" y="-51" on="0"/>
        <pt x="442" y="-80" on="1"/>
        <pt x="442" y="-114" on="0"/>
        <pt x="480" y="-114" on="1"/>
        <pt x="494" y="-114" on="0"/>
        <pt x="518" y="-106" on="1"/>
        <pt x="523" y="-168" on="1"/>
        <pt x="505" y="-181" on="0"/>
        <pt x="442" y="-201" on="0"/>
        <pt x="409" y="-201" on="1"/>
        <pt x="361" y="-201" on="0"/>
        <pt x="314" y="-157" on="0"/>
        <pt x="314" y="-123" on="1"/>
        <pt x="314" y="-99" on="0"/>
        <pt x="332" y="-60" on="0"/>
        <pt x="362" y="-30" on="0"/>
        <pt x="401" y="-8" on="0"/>
        <pt x="422" y="0" on="1"/>
        <pt x="407" y="0" on="1"/>
      </contour>
      <contour>
        <pt x="240" y="265" on="1"/>
        <pt x="382" y="265" on="1"/>
        <pt x="366" y="421" on="1"/>
        <pt x="367" y="531" on="1"/>
        <pt x="362" y="531" on="1"/>
        <pt x="322" y="420" on="1"/>
      </contour>
    </TTGlyph>
    <TTGlyph name="Aring" xMin="-38" yMin="0" xMax="542" yMax="861">
      <contour>
        <pt x="286" y="771" on="1"/>
        <pt x="286" y="789" on="0"/>
        <pt x="298" y="822" on="0"/>
        <pt x="327" y="847" on="0"/>
        <pt x="376" y="861" on="0"/>
        <pt x="414" y="861" on="1"/>
        <pt x="484" y="861" on="0"/>
        <pt x="542" y="813" on="0"/>
        <pt x="542" y="771" on="1"/>
        <pt x="542" y="739" on="0"/>
        <pt x="501" y="692" on="0"/>
        <pt x="449" y="686" on="1"/>
        <pt x="538" y="0" on="1"/>
        <pt x="407" y="0" on="1"/>
        <pt x="387" y="155" on="1"/>
        <pt x="183" y="155" on="1"/>
        <pt x="100" y="0" on="1"/>
        <pt x="-38" y="0" on="1"/>
        <pt x="344" y="693" on="1"/>
        <pt x="312" y="704" on="0"/>
        <pt x="286" y="744" on="0"/>
      </contour>
      <contour>
        <pt x="382" y="265" on="1"/>
        <pt x="366" y="421" on="1"/>
        <pt x="367" y="531" on="1"/>
        <pt x="362" y="531" on="1"/>
        <pt x="322" y="420" on="1"/>
        <pt x="240" y="265" on="1"/>
      </contour>
      <contour>
        <pt x="370" y="771" on="1"/>
        <pt x="370" y="740" on="0"/>
        <pt x="414" y="740" on="1"/>
        <pt x="439" y="740" on="0"/>
        <pt x="459" y="756" on="0"/>
        <pt x="459" y="771" on="1"/>
        <pt x="459" y="804" on="0"/>
        <pt x="414" y="804" on="1"/>
        <pt x="370" y="804" on="0"/>
      </contour>
    </TTGlyph>
    <TTGlyph name="Atilde" xMin="-38" yMin="0" xMax="588" yMax="861">
      <component glyphName="A" x="0" y="0" flags="0x204"/>
      <component glyphName="uniF40D" x="91" y="0" flags="0x4"/>
    </TTGlyph>
    <TTGlyph name="B" xMin="20" yMin="-10" xMax="586" yMax="710">
      <contour>
        <pt x="166" y="695" on="1"/>
        <pt x="185" y="698" on="0"/>
        <pt x="233" y="704" on="0"/>
        <pt x="287" y="708" on="0"/>
        <pt x="344" y="710" on="0"/>
        <pt x="371" y="710" on="1"/>
        <pt x="417" y="710" on="0"/>
        <pt x="496" y="691" on="0"/>
        <pt x="553" y="651" on="0"/>
        <pt x="586" y="588" on="0"/>
        <pt x="586" y="544" on="1"/>
        <pt x="586" y="511" on="0"/>
        <pt x="564" y="450" on="0"/>
        <pt x="523" y="402" on="0"/>
        <pt x="466" y="370" on="0"/>
        <pt x="430" y="365" on="1"/>
        <pt x="430" y="360" on="1"/>
        <pt x="449" y="356" on="0"/>
        <pt x="487" y="335" on="0"/>
        <pt x="517" y="302" on="0"/>
        <pt x="535" y="257" on="0"/>
        <pt x="535" y="229" on="1"/>
        <pt x="535" y="165" on="0"/>
        <pt x="485" y="74" on="0"/>
        <pt x="401" y="17" on="0"/>
        <pt x="289" y="-10" on="0"/>
        <pt x="227" y="-10" on="1"/>
        <pt x="211" y="-10" on="0"/>
        <pt x="160" y="-10" on="0"/>
        <pt x="102" y="-7" on="0"/>
        <pt x="44" y="-1" on="0"/>
        <pt x="20" y="5" on="1"/>
      </contour>
      <contour>
        <pt x="167" y="109" on="1"/>
        <pt x="171" y="107" on="0"/>
        <pt x="192" y="105" on="0"/>
        <pt x="217" y="104" on="0"/>
        <pt x="243" y="103" on="0"/>
        <pt x="252" y="103" on="1"/>
        <pt x="277" y="103" on="0"/>
        <pt x="330" y="115" on="0"/>
        <pt x="373" y="143" on="0"/>
        <pt x="401" y="187" on="0"/>
        <pt x="401" y="219" on="1"/>
        <pt x="401" y="244" on="0"/>
        <pt x="379" y="276" on="0"/>
        <pt x="343" y="295" on="0"/>
        <pt x="296" y="302" on="0"/>
        <pt x="271" y="302" on="1"/>
        <pt x="207" y="302" on="1"/>
      </contour>
      <contour>
        <pt x="230" y="406" on="1"/>
        <pt x="273" y="406" on="1"/>
        <pt x="287" y="406" on="0"/>
        <pt x="325" y="407" on="0"/>
        <pt x="338" y="409" on="1"/>
        <pt x="356" y="412" on="0"/>
        <pt x="397" y="426" on="0"/>
        <pt x="430" y="452" on="0"/>
        <pt x="452" y="492" on="0"/>
        <pt x="452" y="522" on="1"/>
        <pt x="452" y="565" on="0"/>
        <pt x="395" y="597" on="0"/>
        <pt x="351" y="597" on="1"/>
        <pt x="325" y="597" on="0"/>
        <pt x="281" y="595" on="0"/>
        <pt x="269" y="593" on="1"/>
      </contour>
    </TTGlyph>
    <TTGlyph name="C" xMin="58" yMin="-14" xMax="605" yMax="714">
      <contour>
        <pt x="483" y="29" on="1"/>
        <pt x="416" y="-14" on="0"/>
        <pt x="319" y="-14" on="1"/>
        <pt x="253" y="-14" on="0"/>
        <pt x="155" y="30" on="0"/>
        <pt x="90" y="108" on="0"/>
        <pt x="58" y="212" on="0"/>
        <pt x="58" y="272" on="1"/>
        <pt x="58" y="390" on="0"/>
        <pt x="124" y="557" on="0"/>
        <pt x="232" y="664" on="0"/>
        <pt x="371" y="714" on="0"/>
        <pt x="444" y="714" on="1"/>
        <pt x="501" y="714" on="0"/>
        <pt x="582" y="697" on="0"/>
        <pt x="605" y="686" on="1"/>
        <pt x="554" y="570" on="1"/>
        <pt x="534" y="581" on="0"/>
        <pt x="478" y="592" on="0"/>
        <pt x="435" y="592" on="1"/>
        <pt x="384" y="592" on="0"/>
        <pt x="296" y="550" on="0"/>
        <pt x="232" y="472" on="0"/>
        <pt x="195" y="360" on="0"/>
        <pt x="195" y="289" on="1"/>
        <pt x="195" y="204" on="0"/>
        <pt x="280" y="108" on="0"/>
        <pt x="351" y="108" on="1"/>
        <pt x="396" y="108" on="0"/>
        <pt x="455" y="127" on="0"/>
        <pt x="481" y="141" on="1"/>
      </contour>
    </TTGlyph>
    <TTGlyph name="Cacute" xMin="58" yMin="-14" xMax="655" yMax="870">
      <component glyphName="C" x="0" y="0" flags="0x204"/>
      <component glyphName="uniF6C9" x="218" y="0" flags="0x4"/>
    </TTGlyph>
    <TTGlyph name="Ccaron" xMin="58" yMin="-14" xMax="638" yMax="870">
      <component glyphName="C" x="0" y="0" flags="0x204"/>
      <component glyphName="uniF6CA" x="144" y="0" flags="0x4"/>
    </TTGlyph>
    <TTGlyph name="Ccedilla" xMin="58" yMin="-212" xMax="605" yMax="714">
      <contour>
        <pt x="483" y="29" on="1"/>
        <pt x="418" y="-13" on="0"/>
        <pt x="326" y="-14" on="1"/>
        <pt x="304" y="-43" on="1"/>
        <pt x="338" y="-45" on="0"/>
        <pt x="374" y="-82" on="0"/>
        <pt x="374" y="-111" on="1"/>
        <pt x="374" y="-137" on="0"/>
        <pt x="351" y="-175" on="0"/>
        <pt x="312" y="-200" on="0"/>
        <pt x="259" y="-212" on="0"/>
        <pt x="229" y="-212" on="1"/>
        <pt x="191" y="-212" on="0"/>
        <pt x="152" y="-203" on="1"/>
        <pt x="172" y="-155" on="1"/>
        <pt x="223" y="-160" on="0"/>
        <pt x="261" y="-138" on="0"/>
        <pt x="261" y="-124" on="1"/>
        <pt x="261" y="-107" on="0"/>
        <pt x="221" y="-94" on="0"/>
        <pt x="183" y="-95" on="1"/>
        <pt x="252" y="-7" on="1"/>
        <pt x="203" y="3" on="0"/>
        <pt x="130" y="54" on="0"/>
        <pt x="82" y="128" on="0"/>
        <pt x="58" y="220" on="0"/>
        <pt x="58" y="272" on="1"/>
        <pt x="58" y="390" on="0"/>
        <pt x="124" y="557" on="0"/>
        <pt x="232" y="664" on="0"/>
        <pt x="371" y="714" on="0"/>
        <pt x="444" y="714" on="1"/>
        <pt x="501" y="714" on="0"/>
        <pt x="582" y="697" on="0"/>
        <pt x="605" y="686" on="1"/>
        <pt x="554" y="570" on="1"/>
        <pt x="534" y="581" on="0"/>
        <pt x="478" y="592" on="0"/>
        <pt x="435" y="592" on="1"/>
        <pt x="384" y="592" on="0"/>
        <pt x="296" y="550" on="0"/>
        <pt x="232" y="472" on="0"/>
        <pt x="195" y="360" on="0"/>
        <pt x="195" y="289" on="1"/>
        <pt x="195" y="204" on="0"/>
        <pt x="280" y="108" on="0"/>
        <pt x="351" y="108" on="1"/>
        <pt x="396" y="108" on="0"/>
        <pt x="455" y="127" on="0"/>
        <pt x="481" y="141" on="1"/>
      </contour>
    </TTGlyph>
    <TTGlyph name="Ccircumflex" xMin="58" yMin="-14" xMax="612" yMax="870">
      <component glyphName="C" x="0" y="0" flags="0x204"/>
      <component glyphName="uniF408" x="125" y="0" flags="0x4"/>
    </TTGlyph>
    <TTGlyph name="D" xMin="20" yMin="-11" xMax="631" yMax="710">
      <contour>
        <pt x="168" y="700" on="1"/>
        <pt x="189" y="703" on="0"/>
        <pt x="239" y="707" on="0"/>
        <pt x="282" y="709" on="0"/>
        <pt x="298" y="709" on="1"/>
        <pt x="307" y="709" on="0"/>
        <pt x="340" y="710" on="0"/>
        <pt x="360" y="710" on="1"/>
        <pt x="421" y="710" on="0"/>
        <pt x="521" y="679" on="0"/>
        <pt x="592" y="615" on="0"/>
        <pt x="631" y="515" on="0"/>
        <pt x="631" y="446" on="1"/>
        <pt x="631" y="402" on="0"/>
        <pt x="616" y="301" on="0"/>
        <pt x="580" y="199" on="0"/>
        <pt x="517" y="105" on="0"/>
        <pt x="422" y="33" on="0"/>
        <pt x="289" y="-11" on="0"/>
        <pt x="201" y="-11" on="1"/>
        <pt x="186" y="-11" on="0"/>
        <pt x="156" y="-10" on="0"/>
        <pt x="150" y="-10" on="1"/>
        <pt x="130" y="-9" on="0"/>
        <pt x="81" y="-6" on="0"/>
        <pt x="32" y="-3" on="0"/>
        <pt x="20" y="-1" on="1"/>
      </contour>
      <contour>
        <pt x="174" y="114" on="1"/>
        <pt x="178" y="113" on="0"/>
        <pt x="195" y="112" on="0"/>
        <pt x="215" y="111" on="0"/>
        <pt x="233" y="111" on="0"/>
        <pt x="238" y="111" on="1"/>
        <pt x="308" y="111" on="0"/>
        <pt x="406" y="174" on="0"/>
        <pt x="467" y="269" on="0"/>
        <pt x="494" y="380" on="0"/>
        <pt x="494" y="428" on="1"/>
        <pt x="494" y="508" on="0"/>
        <pt x="427" y="588" on="0"/>
        <pt x="349" y="588" on="1"/>
        <pt x="329" y="588" on="0"/>
        <pt x="285" y="586" on="0"/>
        <pt x="273" y="584" on="1"/>
      </contour>
    </TTGlyph>
    <TTGlyph name="Dcaron" xMin="20" yMin="-11" xMax="631" yMax="870">
      <component glyphName="D" x="0" y="0" flags="0x204"/>
      <component glyphName="uniF6CA" x="89" y="0" flags="0x4"/>
    </TTGlyph>
    <TTGlyph name="Dcroat" xMin="23" yMin="-11" xMax="651" yMax="710">
      <component glyphName="Eth" x="0" y="0" flags="0x204"/>
    </TTGlyph>
    <TTGlyph name="E" xMin="20" yMin="0" xMax="562" yMax="700">
      <contour>
        <pt x="168" y="700" on="1"/>
        <pt x="298" y="700" on="1"/>
        <pt x="562" y="700" on="1"/>
        <pt x="536" y="578" on="1"/>
        <pt x="272" y="578" on="1"/>
        <pt x="237" y="415" on="1"/>
        <pt x="478" y="415" on="1"/>
        <pt x="451" y="293" on="1"/>
        <pt x="212" y="293" on="1"/>
        <pt x="175" y="122" on="1"/>
        <pt x="444" y="122" on="1"/>
        <pt x="419" y="0" on="1"/>
        <pt x="150" y="0" on="1"/>
        <pt x="20" y="0" on="1"/>
      </contour>
    </TTGlyph>
    <TTGlyph name="Eacute" xMin="20" yMin="0" xMax="580" yMax="870">
      <component glyphName="E" x="0" y="0" flags="0x204"/>
      <component glyphName="uniF6C9" x="143" y="0" flags="0x4"/>
    </TTGlyph>
    <TTGlyph name="Ecaron" xMin="20" yMin="0" xMax="562" yMax="870">
      <component glyphName="E" x="0" y="0" flags="0x204"/>
      <component glyphName="uniF6CA" x="68" y="0" flags="0x4"/>
    </TTGlyph>
    <TTGlyph name="Ecircumflex" xMin="20" yMin="0" xMax="562" yMax="870">
      <component glyphName="E" x="0" y="0" flags="0x204"/>
      <component glyphName="uniF408" x="60" y="0" flags="0x4"/>
    </TTGlyph>
    <TTGlyph name="Edieresis" xMin="20" yMin="0" xMax="562" yMax="856">
      <component glyphName="E" x="0" y="0" flags="0x204"/>
      <component glyphName="uniF6CB" x="64" y="0" flags="0x4"/>
    </TTGlyph>
    <TTGlyph name="Edotaccent" xMin="20" yMin="0" xMax="562" yMax="859">
      <component glyphName="E" x="0" y="0" flags="0x204"/>
      <component glyphName="uniF40B" x="142" y="0" flags="0x4"/>
    </TTGlyph>
    <TTGlyph name="Egrave" xMin="20" yMin="0" xMax="562" yMax="870">
      <component glyphName="E" x="0" y="0" flags="0x204"/>
      <component glyphName="uniF6CE" x="73" y="0" flags="0x4"/>
    </TTGlyph>
    <TTGlyph name="Emacron" xMin="20" yMin="0" xMax="562" yMax="856">
      <component glyphName="E" x="0" y="0" flags="0x204"/>
      <component glyphName="uniF6D0" x="34" y="0" flags="0x4"/>
    </TTGlyph>
    <TTGlyph name="Eogonek" xMin="20" yMin="-201" xMax="562" yMax="700">
      <contour>
        <pt x="168" y="700" on="1"/>
        <pt x="298" y="700" on="1"/>
        <pt x="562" y="700" on="1"/>
        <pt x="536" y="578" on="1"/>
        <pt x="272" y="578" on="1"/>
        <pt x="237" y="415" on="1"/>
        <pt x="478" y="415" on="1"/>
        <pt x="451" y="293" on="1"/>
        <pt x="212" y="293" on="1"/>
        <pt x="175" y="122" on="1"/>
        <pt x="444" y="122" on="1"/>
        <pt x="419" y="0" on="1"/>
        <pt x="399" y="0" on="1"/>
        <pt x="367" y="-12" on="0"/>
        <pt x="324" y="-51" on="0"/>
        <pt x="324" y="-80" on="1"/>
        <pt x="324" y="-114" on="0"/>
        <pt x="362" y="-114" on="1"/>
        <pt x="376" y="-114" on="0"/>
        <pt x="400" y="-106" on="1"/>
        <pt x="405" y="-168" on="1"/>
        <pt x="387" y="-181" on="0"/>
        <pt x="324" y="-201" on="0"/>
        <pt x="291" y="-201" on="1"/>
        <pt x="243" y="-201" on="0"/>
        <pt x="196" y="-157" on="0"/>
        <pt x="196" y="-123" on="1"/>
        <pt x="196" y="-99" on="0"/>
        <pt x="214" y="-60" on="0"/>
        <pt x="244" y="-30" on="0"/>
        <pt x="283" y="-8" on="0"/>
        <pt x="304" y="0" on="1"/>
        <pt x="150" y="0" on="1"/>
        <pt x="20" y="0" on="1"/>
      </contour>
    </TTGlyph>
    <TTGlyph name="Eth" xMin="23" yMin="-11" xMax="651" yMax="710">
      <contour>
        <pt x="40" y="401" on="1"/>
        <pt x="125" y="401" on="1"/>
        <pt x="188" y="700" on="1"/>
        <pt x="209" y="703" on="0"/>
        <pt x="259" y="707" on="0"/>
        <pt x="304" y="709" on="0"/>
        <pt x="318" y="709" on="1"/>
        <pt x="328" y="709" on="0"/>
        <pt x="360" y="710" on="0"/>
        <pt x="379" y="710" on="1"/>
        <pt x="441" y="710" on="0"/>
        <pt x="541" y="679" on="0"/>
        <pt x="612" y="615" on="0"/>
        <pt x="651" y="515" on="0"/>
        <pt x="651" y="446" on="1"/>
        <pt x="651" y="402" on="0"/>
        <pt x="636" y="301" on="0"/>
        <pt x="600" y="199" on="0"/>
        <pt x="537" y="105" on="0"/>
        <pt x="442" y="33" on="0"/>
        <pt x="309" y="-11" on="0"/>
        <pt x="221" y="-11" on="1"/>
        <pt x="206" y="-11" on="0"/>
        <pt x="178" y="-10" on="0"/>
        <pt x="170" y="-10" on="1"/>
        <pt x="152" y="-9" on="0"/>
        <pt x="101" y="-6" on="0"/>
        <pt x="52" y="-3" on="0"/>
        <pt x="40" y="-1" on="1"/>
        <pt x="108" y="321" on="1"/>
        <pt x="23" y="321" on="1"/>
      </contour>
      <contour>
        <pt x="254" y="401" on="1"/>
        <pt x="386" y="401" on="1"/>
        <pt x="369" y="321" on="1"/>
        <pt x="237" y="321" on="1"/>
        <pt x="194" y="114" on="1"/>
        <pt x="198" y="113" on="0"/>
        <pt x="215" y="112" on="0"/>
        <pt x="235" y="111" on="0"/>
        <pt x="253" y="111" on="0"/>
        <pt x="258" y="111" on="1"/>
        <pt x="328" y="111" on="0"/>
        <pt x="426" y="174" on="0"/>
        <pt x="487" y="269" on="0"/>
        <pt x="514" y="380" on="0"/>
        <pt x="514" y="428" on="1"/>
        <pt x="514" y="508" on="0"/>
        <pt x="447" y="588" on="0"/>
        <pt x="368" y="588" on="1"/>
        <pt x="349" y="588" on="0"/>
        <pt x="305" y="586" on="0"/>
        <pt x="293" y="584" on="1"/>
      </contour>
    </TTGlyph>
    <TTGlyph name="Euro" xMin="-6" yMin="-14" xMax="628" yMax="714">
      <contour>
        <pt x="45" y="324" on="1"/>
        <pt x="110" y="324" on="1"/>
        <pt x="114" y="354" on="0"/>
        <pt x="120" y="382" on="1"/>
        <pt x="25" y="382" on="1"/>
        <pt x="77" y="475" on="1"/>
        <pt x="149" y="475" on="1"/>
        <pt x="182" y="551" on="0"/>
        <pt x="233" y="603" on="1"/>
        <pt x="289" y="661" on="0"/>
        <pt x="423" y="714" on="0"/>
        <pt x="483" y="714" on="1"/>
        <pt x="532" y="714" on="0"/>
        <pt x="604" y="695" on="0"/>
        <pt x="628" y="681" on="1"/>
        <pt x="575" y="591" on="1"/>
        <pt x="557" y="600" on="0"/>
        <pt x="504" y="610" on="0"/>
        <pt x="467" y="610" on="1"/>
        <pt x="428" y="610" on="0"/>
        <pt x="341" y="568" on="0"/>
        <pt x="304" y="525" on="1"/>
        <pt x="285" y="503" on="0"/>
        <pt x="270" y="475" on="1"/>
        <pt x="524" y="475" on="1"/>
        <pt x="478" y="382" on="1"/>
        <pt x="234" y="382" on="1"/>
        <pt x="228" y="355" on="0"/>
        <pt x="224" y="324" on="1"/>
        <pt x="446" y="324" on="1"/>
        <pt x="400" y="231" on="1"/>
        <pt x="222" y="231" on="1"/>
        <pt x="224" y="209" on="0"/>
        <pt x="228" y="190" on="1"/>
        <pt x="235" y="159" on="0"/>
        <pt x="270" y="114" on="0"/>
        <pt x="327" y="90" on="0"/>
        <pt x="371" y="90" on="1"/>
        <pt x="408" y="90" on="0"/>
        <pt x="468" y="108" on="0"/>
        <pt x="494" y="122" on="1"/>
        <pt x="511" y="31" on="1"/>
        <pt x="477" y="9" on="0"/>
        <pt x="379" y="-14" on="0"/>
        <pt x="331" y="-14" on="1"/>
        <pt x="272" y="-14" on="0"/>
        <pt x="187" y="23" on="0"/>
        <pt x="131" y="89" on="0"/>
        <pt x="118" y="134" on="1"/>
        <pt x="105" y="178" on="0"/>
        <pt x="105" y="231" on="1"/>
        <pt x="-6" y="231" on="1"/>
      </contour>
    </TTGlyph>
    <TTGlyph name="F" xMin="20" yMin="0" xMax="562" yMax="700">
      <contour>
        <pt x="168" y="700" on="1"/>
        <pt x="298" y="700" on="1"/>
        <pt x="562" y="700" on="1"/>
        <pt x="536" y="578" on="1"/>
        <pt x="272" y="578" on="1"/>
        <pt x="235" y="405" on="1"/>
        <pt x="478" y="405" on="1"/>
        <pt x="453" y="283" on="1"/>
        <pt x="210" y="283" on="1"/>
        <pt x="150" y="0" on="1"/>
        <pt x="20" y="0" on="1"/>
      </contour>
    </TTGlyph>
    <TTGlyph name="G" xMin="58" yMin="-14" xMax="622" yMax="714">
      <contour>
        <pt x="369" y="365" on="1"/>
        <pt x="579" y="365" on="1"/>
        <pt x="513" y="53" on="1"/>
        <pt x="468" y="18" on="0"/>
        <pt x="369" y="-14" on="0"/>
        <pt x="312" y="-14" on="1"/>
        <pt x="257" y="-14" on="0"/>
        <pt x="164" y="24" on="0"/>
        <pt x="96" y="96" on="0"/>
        <pt x="58" y="202" on="0"/>
        <pt x="58" y="270" on="1"/>
        <pt x="58" y="385" on="0"/>
        <pt x="121" y="553" on="0"/>
        <pt x="229" y="662" on="0"/>
        <pt x="373" y="714" on="0"/>
        <pt x="453" y="714" on="1"/>
        <pt x="510" y="714" on="0"/>
        <pt x="599" y="695" on="0"/>
        <pt x="622" y="685" on="1"/>
        <pt x="570" y="570" on="1"/>
        <pt x="549" y="580" on="0"/>
        <pt x="486" y="592" on="0"/>
        <pt x="441" y="592" on="1"/>
        <pt x="388" y="592" on="0"/>
        <pt x="298" y="552" on="0"/>
        <pt x="232" y="474" on="0"/>
        <pt x="195" y="359" on="0"/>
        <pt x="195" y="285" on="1"/>
        <pt x="195" y="202" on="0"/>
        <pt x="273" y="108" on="0"/>
        <pt x="339" y="108" on="1"/>
        <pt x="388" y="108" on="0"/>
        <pt x="425" y="133" on="1"/>
        <pt x="453" y="266" on="1"/>
        <pt x="351" y="282" on="1"/>
      </contour>
    </TTGlyph>
    <TTGlyph name="Gbreve" xMin="58" yMin="-14" xMax="654" yMax="875">
      <component glyphName="G" x="0" y="0" flags="0x204"/>
      <component glyphName="uniF406" x="144" y="0" flags="0x4"/>
    </TTGlyph>
    <TTGlyph name="Gcircumflex" xMin="58" yMin="-14" xMax="627" yMax="870">
      <component glyphName="G" x="0" y="0" flags="0x204"/>
      <component glyphName="uniF408" x="140" y="0" flags="0x4"/>
    </TTGlyph>
    <TTGlyph name="Gcommaaccent" xMin="58" yMin="-273" xMax="622" yMax="714">
      <component glyphName="G" x="0" y="0" flags="0x204"/>
      <component glyphName="uniF6C3" x="201" y="0" flags="0x4"/>
    </TTGlyph>
    <TTGlyph name="H" xMin="20" yMin="0" xMax="671" yMax="700">
      <contour>
        <pt x="455" y="293" on="1"/>
        <pt x="212" y="293" on="1"/>
        <pt x="150" y="0" on="1"/>
        <pt x="20" y="0" on="1"/>
        <pt x="168" y="700" on="1"/>
        <pt x="298" y="700" on="1"/>
        <pt x="238" y="415" on="1"/>
        <pt x="481" y="415" on="1"/>
        <pt x="541" y="700" on="1"/>
        <pt x="671" y="700" on="1"/>
        <pt x="523" y="0" on="1"/>
        <pt x="393" y="0" on="1"/>
      </contour>
    </TTGlyph>
    <TTGlyph name="Hbar" xMin="36" yMin="0" xMax="737" yMax="700">
      <contour>
        <pt x="92" y="598" on="1"/>
        <pt x="162" y="598" on="1"/>
        <pt x="184" y="700" on="1"/>
        <pt x="314" y="700" on="1"/>
        <pt x="292" y="598" on="1"/>
        <pt x="535" y="598" on="1"/>
        <pt x="557" y="700" on="1"/>
        <pt x="687" y="700" on="1"/>
        <pt x="665" y="598" on="1"/>
        <pt x="737" y="598" on="1"/>
        <pt x="720" y="516" on="1"/>
        <pt x="648" y="516" on="1"/>
        <pt x="539" y="0" on="1"/>
        <pt x="409" y="0" on="1"/>
        <pt x="471" y="293" on="1"/>
        <pt x="228" y="293" on="1"/>
        <pt x="166" y="0" on="1"/>
        <pt x="36" y="0" on="1"/>
        <pt x="145" y="516" on="1"/>
        <pt x="75" y="516" on="1"/>
      </contour>
      <contour>
        <pt x="497" y="415" on="1"/>
        <pt x="518" y="516" on="1"/>
        <pt x="275" y="516" on="1"/>
        <pt x="254" y="415" on="1"/>
      </contour>
    </TTGlyph>
    <TTGlyph name="Hcircumflex" xMin="20" yMin="0" xMax="671" yMax="870">
      <component glyphName="H" x="0" y="0" flags="0x204"/>
      <component glyphName="uniF408" x="125" y="0" flags="0x4"/>
    </TTGlyph>
    <TTGlyph name="I" xMin="35" yMin="0" xMax="312" yMax="700">
      <contour>
        <pt x="183" y="700" on="1"/>
        <pt x="312" y="700" on="1"/>
        <pt x="164" y="0" on="1"/>
        <pt x="35" y="0" on="1"/>
      </contour>
    </TTGlyph>
    <TTGlyph name="Iacute" xMin="35" yMin="0" xMax="460" yMax="870">
      <component glyphName="I" x="0" y="0" flags="0x204"/>
      <component glyphName="uniF6C9" x="23" y="0" flags="0x4"/>
    </TTGlyph>
    <TTGlyph name="Icircumflex" xMin="35" yMin="0" xMax="429" yMax="870">
      <component glyphName="I" x="0" y="0" flags="0x204"/>
      <component glyphName="uniF408" x="-58" y="0" flags="0x4"/>
    </TTGlyph>
    <TTGlyph name="Idieresis" xMin="35" yMin="0" xMax="440" yMax="856">
      <component glyphName="I" x="0" y="0" flags="0x204"/>
      <component glyphName="uniF6CB" x="-54" y="0" flags="0x4"/>
    </TTGlyph>
    <TTGlyph name="Idotaccent" xMin="35" yMin="0" xMax="349" yMax="859">
      <component glyphName="I" x="0" y="0" flags="0x204"/>
      <component glyphName="uniF40B" x="18" y="0" flags="0x4"/>
    </TTGlyph>
    <TTGlyph name="Igrave" xMin="35" yMin="0" xMax="334" yMax="870">
      <component glyphName="I" x="0" y="0" flags="0x204"/>
      <component glyphName="uniF6CE" x="-45" y="0" flags="0x4"/>
    </TTGlyph>
    <TTGlyph name="Imacron" xMin="35" yMin="0" xMax="439" yMax="856">
      <component glyphName="I" x="0" y="0" flags="0x204"/>
      <component glyphName="uniF6D0" x="-80" y="0" flags="0x4"/>
    </TTGlyph>
    <TTGlyph name="Iogonek" xMin="-41" yMin="-201" xMax="312" yMax="700">
      <contour>
        <pt x="183" y="700" on="1"/>
        <pt x="312" y="700" on="1"/>
        <pt x="164" y="0" on="1"/>
        <pt x="150" y="0" on="1"/>
        <pt x="124" y="-13" on="0"/>
        <pt x="87" y="-52" on="0"/>
        <pt x="87" y="-79" on="1"/>
        <pt x="87" y="-95" on="0"/>
        <pt x="106" y="-114" on="0"/>
        <pt x="124" y="-114" on="1"/>
        <pt x="140" y="-114" on="0"/>
        <pt x="163" y="-105" on="1"/>
        <pt x="168" y="-167" on="1"/>
        <pt x="150" y="-180" on="0"/>
        <pt x="87" y="-201" on="0"/>
        <pt x="54" y="-201" on="1"/>
        <pt x="6" y="-201" on="0"/>
        <pt x="-41" y="-157" on="0"/>
        <pt x="-41" y="-123" on="1"/>
        <pt x="-41" y="-100" on="0"/>
        <pt x="-23" y="-62" on="0"/>
        <pt x="7" y="-31" on="0"/>
        <pt x="45" y="-8" on="0"/>
        <pt x="65" y="0" on="1"/>
        <pt x="35" y="0" on="1"/>
      </contour>
    </TTGlyph>
    <TTGlyph name="J" xMin="-51" yMin="-12" xMax="369" yMax="700">
      <contour>
        <pt x="239" y="700" on="1"/>
        <pt x="369" y="700" on="1"/>
        <pt x="260" y="188" on="1"/>
        <pt x="251" y="146" on="0"/>
        <pt x="223" y="73" on="0"/>
        <pt x="177" y="19" on="0"/>
        <pt x="108" y="-12" on="0"/>
        <pt x="59" y="-12" on="1"/>
        <pt x="31" y="-12" on="0"/>
        <pt x="-31" y="0" on="0"/>
        <pt x="-51" y="11" on="1"/>
        <pt x="-1" y="123" on="1"/>
        <pt x="22" y="110" on="0"/>
        <pt x="53" y="110" on="1"/>
        <pt x="74" y="110" on="0"/>
        <pt x="102" y="127" on="0"/>
        <pt x="121" y="157" on="0"/>
        <pt x="133" y="198" on="0"/>
        <pt x="139" y="223" on="1"/>
      </contour>
    </TTGlyph>
    <TTGlyph name="Jcircumflex" xMin="-51" yMin="-12" xMax="484" yMax="870">
      <component glyphName="J" x="0" y="0" flags="0x204"/>
      <component glyphName="uniF408" x="-3" y="0" flags="0x4"/>
    </TTGlyph>
    <TTGlyph name="K" xMin="20" yMin="0" xMax="656" yMax="700">
      <contour>
        <pt x="260" y="299" on="1"/>
        <pt x="213" y="299" on="1"/>
        <pt x="150" y="0" on="1"/>
        <pt x="20" y="0" on="1"/>
        <pt x="168" y="700" on="1"/>
        <pt x="298" y="700" on="1"/>
        <pt x="232" y="390" on="1"/>
        <pt x="263" y="401" on="1"/>
        <pt x="500" y="700" on="1"/>
        <pt x="656" y="700" on="1"/>
        <pt x="404" y="403" on="1"/>
        <pt x="344" y="368" on="1"/>
        <pt x="388" y="329" on="1"/>
        <pt x="540" y="0" on="1"/>
        <pt x="395" y="0" on="1"/>
      </contour>
    </TTGlyph>
    <TTGlyph name="Kcommaaccent" xMin="20" yMin="-273" xMax="656" yMax="700">
      <component glyphName="K" x="0" y="0" flags="0x204"/>
      <component glyphName="uniF6C3" x="131" y="0" flags="0x4"/>
    </TTGlyph>
    <TTGlyph name="L" xMin="20" yMin="0" xMax="466" yMax="700">
      <contour>
        <pt x="441" y="0" on="1"/>
        <pt x="150" y="0" on="1"/>
        <pt x="20" y="0" on="1"/>
        <pt x="168" y="700" on="1"/>
        <pt x="298" y="700" on="1"/>
        <pt x="175" y="122" on="1"/>
        <pt x="466" y="122" on="1"/>
      </contour>
    </TTGlyph>
    <TTGlyph name="Lacute" xMin="20" yMin="0" xMax="468" yMax="870">
      <component glyphName="L" x="0" y="0" flags="0x204"/>
      <component glyphName="uniF6C9" x="31" y="0" flags="0x4"/>
    </TTGlyph>
    <TTGlyph name="Lcaron" xMin="20" yMin="0" xMax="551" yMax="700">
      <component glyphName="L" x="0" y="0" flags="0x204"/>
      <component glyphName="caron.l" x="68" y="0" flags="0x4"/>
    </TTGlyph>
    <TTGlyph name="Lcommaaccent" xMin="20" yMin="-273" xMax="466" yMax="700">
      <component glyphName="L" x="0" y="0" flags="0x204"/>
      <component glyphName="uniF6C3" x="106" y="0" flags="0x4"/>
    </TTGlyph>
    <TTGlyph name="Lslash" xMin="3" yMin="0" xMax="471" yMax="700">
      <contour>
        <pt x="29" y="318" on="1"/>
        <pt x="101" y="362" on="1"/>
        <pt x="173" y="700" on="1"/>
        <pt x="303" y="700" on="1"/>
        <pt x="250" y="454" on="1"/>
        <pt x="362" y="522" on="1"/>
        <pt x="335" y="397" on="1"/>
        <pt x="224" y="330" on="1"/>
        <pt x="180" y="122" on="1"/>
        <pt x="471" y="122" on="1"/>
        <pt x="446" y="0" on="1"/>
        <pt x="158" y="0" on="1"/>
        <pt x="25" y="0" on="1"/>
        <pt x="76" y="241" on="1"/>
        <pt x="3" y="197" on="1"/>
      </contour>
    </TTGlyph>
    <TTGlyph name="M" xMin="20" yMin="0" xMax="813" yMax="700">
      <contour>
        <pt x="613" y="363" on="1"/>
        <pt x="657" y="501" on="1"/>
        <pt x="651" y="501" on="1"/>
        <pt x="585" y="388" on="1"/>
        <pt x="388" y="129" on="1"/>
        <pt x="347" y="129" on="1"/>
        <pt x="253" y="391" on="1"/>
        <pt x="235" y="501" on="1"/>
        <pt x="230" y="501" on="1"/>
        <pt x="220" y="364" on="1"/>
        <pt x="143" y="0" on="1"/>
        <pt x="20" y="0" on="1"/>
        <pt x="168" y="700" on="1"/>
        <pt x="283" y="700" on="1"/>
        <pt x="388" y="380" on="1"/>
        <pt x="401" y="300" on="1"/>
        <pt x="406" y="300" on="1"/>
        <pt x="452" y="382" on="1"/>
        <pt x="688" y="700" on="1"/>
        <pt x="813" y="700" on="1"/>
        <pt x="665" y="0" on="1"/>
        <pt x="536" y="0" on="1"/>
      </contour>
    </TTGlyph>
    <TTGlyph name="N" xMin="20" yMin="-5" xMax="678" yMax="705">
      <contour>
        <pt x="267" y="366" on="1"/>
        <pt x="234" y="478" on="1"/>
        <pt x="229" y="478" on="1"/>
        <pt x="220" y="366" on="1"/>
        <pt x="143" y="0" on="1"/>
        <pt x="20" y="0" on="1"/>
        <pt x="170" y="705" on="1"/>
        <pt x="260" y="705" on="1"/>
        <pt x="432" y="331" on="1"/>
        <pt x="463" y="222" on="1"/>
        <pt x="469" y="222" on="1"/>
        <pt x="476" y="331" on="1"/>
        <pt x="555" y="700" on="1"/>
        <pt x="678" y="700" on="1"/>
        <pt x="528" y="-5" on="1"/>
        <pt x="438" y="-5" on="1"/>
      </contour>
    </TTGlyph>
    <TTGlyph name="Nacute" xMin="20" yMin="-5" xMax="678" yMax="870">
      <component glyphName="N" x="0" y="0" flags="0x204"/>
      <component glyphName="uniF6C9" x="209" y="0" flags="0x4"/>
    </TTGlyph>
    <TTGlyph name="Ncaron" xMin="20" yMin="-5" xMax="678" yMax="870">
      <component glyphName="N" x="0" y="0" flags="0x204"/>
      <component glyphName="uniF6CA" x="130" y="0" flags="0x4"/>
    </TTGlyph>
    <TTGlyph name="Ncommaaccent" xMin="20" yMin="-273" xMax="678" yMax="705">
      <component glyphName="N" x="0" y="0" flags="0x204"/>
      <component glyphName="uniF6C3" x="161" y="0" flags="0x4"/>
    </TTGlyph>
    <TTGlyph name="Ntilde" xMin="20" yMin="-5" xMax="678" yMax="861">
      <component glyphName="N" x="0" y="0" flags="0x204"/>
      <component glyphName="uniF40D" x="110" y="0" flags="0x4"/>
    </TTGlyph>
    <TTGlyph name="O" xMin="58" yMin="-14" xMax="654" yMax="714">
      <contour>
        <pt x="58" y="262" on="1"/>
        <pt x="58" y="355" on="0"/>
        <pt x="109" y="520" on="0"/>
        <pt x="203" y="643" on="0"/>
        <pt x="336" y="714" on="0"/>
        <pt x="418" y="714" on="1"/>
        <pt x="472" y="714" on="0"/>
        <pt x="559" y="682" on="0"/>
        <pt x="620" y="615" on="0"/>
        <pt x="654" y="513" on="0"/>
        <pt x="654" y="443" on="1"/>
        <pt x="654" y="349" on="0"/>
        <pt x="603" y="183" on="0"/>
        <pt x="510" y="58" on="0"/>
        <pt x="381" y="-14" on="0"/>
        <pt x="303" y="-14" on="1"/>
        <pt x="185" y="-14" on="0"/>
        <pt x="59" y="125" on="0"/>
      </contour>
      <contour>
        <pt x="195" y="266" on="1"/>
        <pt x="195" y="194" on="0"/>
        <pt x="250" y="108" on="0"/>
        <pt x="313" y="108" on="1"/>
        <pt x="359" y="108" on="0"/>
        <pt x="434" y="163" on="0"/>
        <pt x="488" y="256" on="0"/>
        <pt x="517" y="376" on="0"/>
        <pt x="517" y="441" on="1"/>
        <pt x="517" y="520" on="0"/>
        <pt x="455" y="592" on="0"/>
        <pt x="401" y="592" on="1"/>
        <pt x="356" y="592" on="0"/>
        <pt x="281" y="540" on="0"/>
        <pt x="226" y="451" on="0"/>
        <pt x="195" y="332" on="0"/>
      </contour>
    </TTGlyph>
    <TTGlyph name="OE" xMin="58" yMin="-14" xMax="936" yMax="714">
      <contour>
        <pt x="514" y="567" on="1"/>
        <pt x="496" y="579" on="0"/>
        <pt x="447" y="592" on="0"/>
        <pt x="407" y="592" on="1"/>
        <pt x="360" y="592" on="0"/>
        <pt x="283" y="544" on="0"/>
        <pt x="226" y="458" on="0"/>
        <pt x="195" y="338" on="0"/>
        <pt x="195" y="266" on="1"/>
        <pt x="195" y="240" on="0"/>
        <pt x="205" y="185" on="0"/>
        <pt x="232" y="138" on="0"/>
        <pt x="281" y="108" on="0"/>
        <pt x="320" y="108" on="1"/>
        <pt x="348" y="108" on="0"/>
        <pt x="391" y="115" on="0"/>
        <pt x="421" y="127" on="1"/>
      </contour>
      <contour>
        <pt x="394" y="0" on="1"/>
        <pt x="374" y="-7" on="0"/>
        <pt x="321" y="-14" on="0"/>
        <pt x="293" y="-14" on="1"/>
        <pt x="250" y="-14" on="0"/>
        <pt x="166" y="12" on="0"/>
        <pt x="99" y="75" on="0"/>
        <pt x="58" y="182" on="0"/>
        <pt x="58" y="262" on="1"/>
        <pt x="58" y="367" on="0"/>
        <pt x="112" y="535" on="0"/>
        <pt x="210" y="652" on="0"/>
        <pt x="344" y="714" on="0"/>
        <pt x="424" y="714" on="1"/>
        <pt x="462" y="714" on="0"/>
        <pt x="517" y="706" on="0"/>
        <pt x="542" y="700" on="1"/>
        <pt x="936" y="700" on="1"/>
        <pt x="910" y="578" on="1"/>
        <pt x="646" y="578" on="1"/>
        <pt x="611" y="415" on="1"/>
        <pt x="852" y="415" on="1"/>
        <pt x="826" y="293" on="1"/>
        <pt x="586" y="293" on="1"/>
        <pt x="550" y="122" on="1"/>
        <pt x="818" y="122" on="1"/>
        <pt x="793" y="0" on="1"/>
      </contour>
    </TTGlyph>
    <TTGlyph name="Oacute" xMin="58" yMin="-14" xMax="654" yMax="870">
      <component glyphName="O" x="0" y="0" flags="0x204"/>
      <component glyphName="uniF6C9" x="211" y="0" flags="0x4"/>
    </TTGlyph>
    <TTGlyph name="Ocircumflex" xMin="58" yMin="-14" xMax="654" yMax="870">
      <component glyphName="O" x="0" y="0" flags="0x204"/>
      <component glyphName="uniF408" x="124" y="0" flags="0x4"/>
    </TTGlyph>
    <TTGlyph name="Odieresis" xMin="58" yMin="-14" xMax="654" yMax="856">
      <component glyphName="O" x="0" y="0" flags="0x204"/>
      <component glyphName="uniF6CB" x="124" y="0" flags="0x4"/>
    </TTGlyph>
    <TTGlyph name="Ograve" xMin="58" yMin="-14" xMax="654" yMax="870">
      <component glyphName="O" x="0" y="0" flags="0x204"/>
      <component glyphName="uniF6CE" x="132" y="0" flags="0x4"/>
    </TTGlyph>
    <TTGlyph name="Ohungarumlaut" xMin="58" yMin="-14" xMax="698" yMax="850">
      <component glyphName="O" x="0" y="0" flags="0x204"/>
      <component glyphName="uniF6CF" x="116" y="0" flags="0x4"/>
    </TTGlyph>
    <TTGlyph name="Omacron" xMin="58" yMin="-14" xMax="654" yMax="856">
      <component glyphName="O" x="0" y="0" flags="0x204"/>
      <component glyphName="uniF6D0" x="102" y="0" flags="0x4"/>
    </TTGlyph>
    <TTGlyph name="Oslash" xMin="57" yMin="-14" xMax="659" yMax="714">
      <contour>
        <pt x="58" y="262" on="1"/>
        <pt x="58" y="355" on="0"/>
        <pt x="109" y="520" on="0"/>
        <pt x="203" y="643" on="0"/>
        <pt x="336" y="714" on="0"/>
        <pt x="418" y="714" on="1"/>
        <pt x="504" y="714" on="0"/>
        <pt x="560" y="674" on="1"/>
        <pt x="587" y="706" on="1"/>
        <pt x="659" y="644" on="1"/>
        <pt x="622" y="599" on="1"/>
        <pt x="637" y="569" on="0"/>
        <pt x="654" y="491" on="0"/>
        <pt x="654" y="443" on="1"/>
        <pt x="654" y="349" on="0"/>
        <pt x="603" y="183" on="0"/>
        <pt x="510" y="58" on="0"/>
        <pt x="381" y="-14" on="0"/>
        <pt x="303" y="-14" on="1"/>
        <pt x="213" y="-14" on="0"/>
        <pt x="154" y="27" on="1"/>
        <pt x="127" y="-5" on="1"/>
        <pt x="57" y="59" on="1"/>
        <pt x="91" y="101" on="1"/>
        <pt x="75" y="133" on="0"/>
        <pt x="58" y="213" on="0"/>
      </contour>
      <contour>
        <pt x="474" y="568" on="1"/>
        <pt x="445" y="592" on="0"/>
        <pt x="401" y="592" on="1"/>
        <pt x="356" y="592" on="0"/>
        <pt x="281" y="540" on="0"/>
        <pt x="226" y="451" on="0"/>
        <pt x="195" y="332" on="0"/>
        <pt x="195" y="266" on="1"/>
        <pt x="195" y="256" on="0"/>
        <pt x="195" y="238" on="0"/>
        <pt x="197" y="229" on="1"/>
      </contour>
      <contour>
        <pt x="239" y="132" on="1"/>
        <pt x="267" y="108" on="0"/>
        <pt x="313" y="108" on="1"/>
        <pt x="359" y="108" on="0"/>
        <pt x="434" y="163" on="0"/>
        <pt x="488" y="256" on="0"/>
        <pt x="517" y="376" on="0"/>
        <pt x="517" y="441" on="1"/>
        <pt x="517" y="449" on="0"/>
        <pt x="517" y="462" on="0"/>
        <pt x="516" y="469" on="1"/>
      </contour>
    </TTGlyph>
    <TTGlyph name="Otilde" xMin="58" yMin="-14" xMax="654" yMax="861">
      <component glyphName="O" x="0" y="0" flags="0x204"/>
      <component glyphName="uniF40D" x="119" y="0" flags="0x4"/>
    </TTGlyph>
    <TTGlyph name="P" xMin="20" yMin="0" xMax="591" yMax="710">
      <contour>
        <pt x="167" y="693" on="1"/>
        <pt x="209" y="701" on="0"/>
        <pt x="304" y="710" on="0"/>
        <pt x="352" y="710" on="1"/>
        <pt x="403" y="710" on="0"/>
        <pt x="490" y="687" on="0"/>
        <pt x="555" y="639" on="0"/>
        <pt x="591" y="564" on="0"/>
        <pt x="591" y="512" on="1"/>
        <pt x="591" y="434" on="0"/>
        <pt x="537" y="329" on="0"/>
        <pt x="448" y="264" on="0"/>
        <pt x="334" y="237" on="0"/>
        <pt x="275" y="237" on="1"/>
        <pt x="270" y="237" on="0"/>
        <pt x="249" y="237" on="0"/>
        <pt x="226" y="238" on="0"/>
        <pt x="205" y="240" on="0"/>
        <pt x="200" y="241" on="1"/>
        <pt x="150" y="0" on="1"/>
        <pt x="20" y="0" on="1"/>
      </contour>
      <contour>
        <pt x="226" y="359" on="1"/>
        <pt x="230" y="358" on="0"/>
        <pt x="244" y="356" on="0"/>
        <pt x="261" y="355" on="0"/>
        <pt x="276" y="355" on="0"/>
        <pt x="280" y="355" on="1"/>
        <pt x="314" y="355" on="0"/>
        <pt x="377" y="370" on="0"/>
        <pt x="425" y="403" on="0"/>
        <pt x="454" y="457" on="0"/>
        <pt x="454" y="496" on="1"/>
        <pt x="454" y="525" on="0"/>
        <pt x="435" y="563" on="0"/>
        <pt x="403" y="584" on="0"/>
        <pt x="360" y="592" on="0"/>
        <pt x="336" y="592" on="1"/>
        <pt x="318" y="592" on="0"/>
        <pt x="285" y="589" on="0"/>
        <pt x="274" y="587" on="1"/>
      </contour>
    </TTGlyph>
    <TTGlyph name="Q" xMin="58" yMin="-215" xMax="654" yMax="714">
      <contour>
        <pt x="58" y="262" on="1"/>
        <pt x="58" y="355" on="0"/>
        <pt x="109" y="520" on="0"/>
        <pt x="203" y="643" on="0"/>
        <pt x="336" y="714" on="0"/>
        <pt x="418" y="714" on="1"/>
        <pt x="472" y="714" on="0"/>
        <pt x="559" y="682" on="0"/>
        <pt x="620" y="615" on="0"/>
        <pt x="654" y="513" on="0"/>
        <pt x="654" y="443" on="1"/>
        <pt x="654" y="349" on="0"/>
        <pt x="603" y="183" on="0"/>
        <pt x="510" y="58" on="0"/>
        <pt x="381" y="-14" on="0"/>
        <pt x="303" y="-14" on="1"/>
        <pt x="185" y="-14" on="0"/>
        <pt x="59" y="125" on="0"/>
      </contour>
      <contour>
        <pt x="195" y="266" on="1"/>
        <pt x="195" y="194" on="0"/>
        <pt x="250" y="108" on="0"/>
        <pt x="313" y="108" on="1"/>
        <pt x="359" y="108" on="0"/>
        <pt x="434" y="163" on="0"/>
        <pt x="488" y="256" on="0"/>
        <pt x="517" y="376" on="0"/>
        <pt x="517" y="441" on="1"/>
        <pt x="517" y="520" on="0"/>
        <pt x="455" y="592" on="0"/>
        <pt x="401" y="592" on="1"/>
        <pt x="356" y="592" on="0"/>
        <pt x="281" y="540" on="0"/>
        <pt x="226" y="451" on="0"/>
        <pt x="195" y="332" on="0"/>
      </contour>
      <contour>
        <pt x="627" y="-202" on="1"/>
        <pt x="579" y="-215" on="0"/>
        <pt x="532" y="-215" on="1"/>
        <pt x="484" y="-215" on="0"/>
        <pt x="396" y="-194" on="0"/>
        <pt x="315" y="-170" on="0"/>
        <pt x="241" y="-149" on="0"/>
        <pt x="205" y="-149" on="1"/>
        <pt x="182" y="-149" on="0"/>
        <pt x="160" y="-155" on="1"/>
        <pt x="185" y="-37" on="1"/>
        <pt x="213" y="-31" on="0"/>
        <pt x="241" y="-31" on="1"/>
        <pt x="281" y="-31" on="0"/>
        <pt x="356" y="-51" on="0"/>
        <pt x="433" y="-74" on="0"/>
        <pt x="515" y="-94" on="0"/>
        <pt x="562" y="-94" on="1"/>
        <pt x="583" y="-94" on="0"/>
        <pt x="628" y="-89" on="0"/>
        <pt x="652" y="-83" on="1"/>
      </contour>
    </TTGlyph>
    <TTGlyph name="R" xMin="20" yMin="0" xMax="575" yMax="710">
      <contour>
        <pt x="167" y="693" on="1"/>
        <pt x="215" y="702" on="0"/>
        <pt x="313" y="710" on="0"/>
        <pt x="352" y="710" on="1"/>
        <pt x="398" y="710" on="0"/>
        <pt x="480" y="688" on="0"/>
        <pt x="540" y="643" on="0"/>
        <pt x="575" y="572" on="0"/>
        <pt x="575" y="524" on="1"/>
        <pt x="575" y="469" on="0"/>
        <pt x="542" y="388" on="0"/>
        <pt x="488" y="333" on="0"/>
        <pt x="419" y="302" on="0"/>
        <pt x="383" y="297" on="1"/>
        <pt x="422" y="266" on="1"/>
        <pt x="519" y="0" on="1"/>
        <pt x="375" y="0" on="1"/>
        <pt x="279" y="274" on="1"/>
        <pt x="210" y="287" on="1"/>
        <pt x="150" y="0" on="1"/>
        <pt x="20" y="0" on="1"/>
      </contour>
      <contour>
        <pt x="230" y="380" on="1"/>
        <pt x="283" y="380" on="1"/>
        <pt x="312" y="380" on="0"/>
        <pt x="368" y="391" on="0"/>
        <pt x="411" y="420" on="0"/>
        <pt x="438" y="468" on="0"/>
        <pt x="438" y="505" on="1"/>
        <pt x="438" y="539" on="0"/>
        <pt x="392" y="588" on="0"/>
        <pt x="341" y="588" on="1"/>
        <pt x="321" y="588" on="0"/>
        <pt x="286" y="585" on="0"/>
        <pt x="274" y="583" on="1"/>
      </contour>
    </TTGlyph>
    <TTGlyph name="Racute" xMin="20" yMin="0" xMax="576" yMax="870">
      <component glyphName="R" x="0" y="0" flags="0x204"/>
      <component glyphName="uniF6C9" x="139" y="0" flags="0x4"/>
    </TTGlyph>
    <TTGlyph name="Rcaron" xMin="20" yMin="0" xMax="575" yMax="870">
      <component glyphName="R" x="0" y="0" flags="0x204"/>
      <component glyphName="uniF6CA" x="65" y="0" flags="0x4"/>
    </TTGlyph>
    <TTGlyph name="Rcommaaccent" xMin="20" yMin="-273" xMax="575" yMax="710">
      <component glyphName="R" x="0" y="0" flags="0x204"/>
      <component glyphName="uniF6C3" x="135" y="0" flags="0x4"/>
    </TTGlyph>
    <TTGlyph name="S" xMin="-2" yMin="-14" xMax="568" yMax="714">
      <contour>
        <pt x="502" y="559" on="1"/>
        <pt x="483" y="571" on="0"/>
        <pt x="409" y="596" on="0"/>
        <pt x="364" y="596" on="1"/>
        <pt x="341" y="596" on="0"/>
        <pt x="297" y="587" on="0"/>
        <pt x="263" y="567" on="0"/>
        <pt x="243" y="535" on="0"/>
        <pt x="243" y="513" on="1"/>
        <pt x="243" y="484" on="0"/>
        <pt x="279" y="444" on="0"/>
        <pt x="334" y="409" on="0"/>
        <pt x="397" y="373" on="0"/>
        <pt x="452" y="325" on="0"/>
        <pt x="488" y="258" on="0"/>
        <pt x="488" y="209" on="1"/>
        <pt x="488" y="150" on="0"/>
        <pt x="447" y="65" on="0"/>
        <pt x="372" y="11" on="0"/>
        <pt x="267" y="-14" on="0"/>
        <pt x="203" y="-14" on="1"/>
        <pt x="168" y="-14" on="0"/>
        <pt x="105" y="-6" on="0"/>
        <pt x="51" y="6" on="0"/>
        <pt x="10" y="21" on="0"/>
        <pt x="-2" y="28" on="1"/>
        <pt x="65" y="144" on="1"/>
        <pt x="75" y="138" on="0"/>
        <pt x="107" y="124" on="0"/>
        <pt x="148" y="112" on="0"/>
        <pt x="196" y="104" on="0"/>
        <pt x="220" y="104" on="1"/>
        <pt x="248" y="104" on="0"/>
        <pt x="298" y="113" on="0"/>
        <pt x="335" y="134" on="0"/>
        <pt x="356" y="166" on="0"/>
        <pt x="356" y="190" on="1"/>
        <pt x="356" y="217" on="0"/>
        <pt x="320" y="255" on="0"/>
        <pt x="265" y="289" on="0"/>
        <pt x="202" y="326" on="0"/>
        <pt x="147" y="376" on="0"/>
        <pt x="111" y="447" on="0"/>
        <pt x="111" y="498" on="1"/>
        <pt x="111" y="556" on="0"/>
        <pt x="152" y="638" on="0"/>
        <pt x="222" y="690" on="0"/>
        <pt x="316" y="714" on="0"/>
        <pt x="370" y="714" on="1"/>
        <pt x="399" y="714" on="0"/>
        <pt x="457" y="708" on="0"/>
        <pt x="509" y="697" on="0"/>
        <pt x="553" y="682" on="0"/>
        <pt x="568" y="673" on="1"/>
      </contour>
    </TTGlyph>
    <TTGlyph name="Sacute" xMin="-2" yMin="-14" xMax="585" yMax="870">
      <component glyphName="S" x="0" y="0" flags="0x204"/>
      <component glyphName="uniF6C9" x="148" y="0" flags="0x4"/>
    </TTGlyph>
    <TTGlyph name="Scaron" xMin="-2" yMin="-14" xMax="583" yMax="870">
      <component glyphName="S" x="0" y="0" flags="0x204"/>
      <component glyphName="uniF6CA" x="89" y="0" flags="0x4"/>
    </TTGlyph>
    <TTGlyph name="Scedilla" xMin="17" yMin="-212" xMax="587" yMax="714">
      <contour>
        <pt x="521" y="559" on="1"/>
        <pt x="502" y="571" on="0"/>
        <pt x="428" y="596" on="0"/>
        <pt x="383" y="596" on="1"/>
        <pt x="360" y="596" on="0"/>
        <pt x="316" y="587" on="0"/>
        <pt x="282" y="567" on="0"/>
        <pt x="262" y="535" on="0"/>
        <pt x="262" y="513" on="1"/>
        <pt x="262" y="484" on="0"/>
        <pt x="298" y="444" on="0"/>
        <pt x="353" y="409" on="0"/>
        <pt x="416" y="373" on="0"/>
        <pt x="471" y="325" on="0"/>
        <pt x="507" y="258" on="0"/>
        <pt x="507" y="209" on="1"/>
        <pt x="507" y="155" on="0"/>
        <pt x="473" y="76" on="0"/>
        <pt x="411" y="22" on="0"/>
        <pt x="323" y="-8" on="0"/>
        <pt x="269" y="-12" on="1"/>
        <pt x="246" y="-43" on="1"/>
        <pt x="280" y="-45" on="0"/>
        <pt x="316" y="-82" on="0"/>
        <pt x="316" y="-111" on="1"/>
        <pt x="316" y="-137" on="0"/>
        <pt x="293" y="-175" on="0"/>
        <pt x="254" y="-200" on="0"/>
        <pt x="201" y="-212" on="0"/>
        <pt x="171" y="-212" on="1"/>
        <pt x="133" y="-212" on="0"/>
        <pt x="94" y="-203" on="1"/>
        <pt x="114" y="-155" on="1"/>
        <pt x="165" y="-160" on="0"/>
        <pt x="203" y="-138" on="0"/>
        <pt x="203" y="-124" on="1"/>
        <pt x="203" y="-107" on="0"/>
        <pt x="163" y="-94" on="0"/>
        <pt x="125" y="-95" on="1"/>
        <pt x="189" y="-13" on="1"/>
        <pt x="130" y="-9" on="0"/>
        <pt x="37" y="15" on="0"/>
        <pt x="17" y="28" on="1"/>
        <pt x="84" y="146" on="1"/>
        <pt x="94" y="140" on="0"/>
        <pt x="126" y="126" on="0"/>
        <pt x="167" y="114" on="0"/>
        <pt x="215" y="106" on="0"/>
        <pt x="239" y="106" on="1"/>
        <pt x="267" y="106" on="0"/>
        <pt x="317" y="115" on="0"/>
        <pt x="354" y="134" on="0"/>
        <pt x="375" y="166" on="0"/>
        <pt x="375" y="190" on="1"/>
        <pt x="375" y="217" on="0"/>
        <pt x="339" y="255" on="0"/>
        <pt x="284" y="289" on="0"/>
        <pt x="221" y="326" on="0"/>
        <pt x="166" y="376" on="0"/>
        <pt x="130" y="447" on="0"/>
        <pt x="130" y="498" on="1"/>
        <pt x="130" y="556" on="0"/>
        <pt x="171" y="638" on="0"/>
        <pt x="241" y="690" on="0"/>
        <pt x="335" y="714" on="0"/>
        <pt x="389" y="714" on="1"/>
        <pt x="418" y="714" on="0"/>
        <pt x="476" y="708" on="0"/>
        <pt x="528" y="697" on="0"/>
        <pt x="572" y="682" on="0"/>
        <pt x="587" y="673" on="1"/>
      </contour>
    </TTGlyph>
    <TTGlyph name="Scircumflex" xMin="-2" yMin="-14" xMax="568" yMax="870">
      <component glyphName="S" x="0" y="0" flags="0x204"/>
      <component glyphName="uniF408" x="70" y="0" flags="0x4"/>
    </TTGlyph>
    <TTGlyph name="Scommaaccent" xMin="17" yMin="-273" xMax="587" yMax="714">
      <component glyphName="S" x="19" y="0" flags="0x204"/>
      <component glyphName="uniF6C3" x="114" y="0" flags="0x4"/>
    </TTGlyph>
    <TTGlyph name="T" xMin="96" yMin="0" xMax="639" yMax="700">
      <contour>
        <pt x="614" y="578" on="1"/>
        <pt x="420" y="578" on="1"/>
        <pt x="297" y="0" on="1"/>
        <pt x="168" y="0" on="1"/>
        <pt x="290" y="578" on="1"/>
        <pt x="96" y="578" on="1"/>
        <pt x="122" y="700" on="1"/>
        <pt x="639" y="700" on="1"/>
      </contour>
    </TTGlyph>
    <TTGlyph name="Tcaron" xMin="96" yMin="0" xMax="639" yMax="870">
      <component glyphName="T" x="0" y="0" flags="0x204"/>
      <component glyphName="uniF6CA" x="87" y="0" flags="0x4"/>
    </TTGlyph>
    <TTGlyph name="Tcedilla" xMin="91" yMin="-213" xMax="639" yMax="700">
      <contour>
        <pt x="614" y="578" on="1"/>
        <pt x="420" y="578" on="1"/>
        <pt x="297" y="0" on="1"/>
        <pt x="276" y="0" on="1"/>
        <pt x="243" y="-43" on="1"/>
        <pt x="277" y="-45" on="0"/>
        <pt x="313" y="-83" on="0"/>
        <pt x="313" y="-112" on="1"/>
        <pt x="313" y="-138" on="0"/>
        <pt x="290" y="-176" on="0"/>
        <pt x="251" y="-201" on="0"/>
        <pt x="198" y="-213" on="0"/>
        <pt x="168" y="-213" on="1"/>
        <pt x="130" y="-213" on="0"/>
        <pt x="91" y="-204" on="1"/>
        <pt x="111" y="-156" on="1"/>
        <pt x="162" y="-161" on="0"/>
        <pt x="200" y="-139" on="0"/>
        <pt x="200" y="-125" on="1"/>
        <pt x="200" y="-93" on="0"/>
        <pt x="122" y="-95" on="1"/>
        <pt x="197" y="0" on="1"/>
        <pt x="168" y="0" on="1"/>
        <pt x="290" y="578" on="1"/>
        <pt x="96" y="578" on="1"/>
        <pt x="122" y="700" on="1"/>
        <pt x="639" y="700" on="1"/>
      </contour>
    </TTGlyph>
    <TTGlyph name="Tcommaaccent" xMin="96" yMin="-273" xMax="639" yMax="700">
      <component glyphName="T" x="0" y="0" flags="0x204"/>
      <component glyphName="uniF6C3" x="112" y="0" flags="0x4"/>
    </TTGlyph>
    <TTGlyph name="Thorn" xMin="20" yMin="0" xMax="574" yMax="700">
      <contour>
        <pt x="169" y="700" on="1"/>
        <pt x="298" y="700" on="1"/>
        <pt x="283" y="629" on="1"/>
        <pt x="296" y="630" on="0"/>
        <pt x="322" y="630" on="0"/>
        <pt x="335" y="630" on="1"/>
        <pt x="386" y="630" on="0"/>
        <pt x="473" y="607" on="0"/>
        <pt x="538" y="559" on="0"/>
        <pt x="574" y="484" on="0"/>
        <pt x="574" y="432" on="1"/>
        <pt x="574" y="354" on="0"/>
        <pt x="520" y="249" on="0"/>
        <pt x="431" y="184" on="0"/>
        <pt x="317" y="157" on="0"/>
        <pt x="258" y="157" on="1"/>
        <pt x="253" y="157" on="0"/>
        <pt x="232" y="157" on="0"/>
        <pt x="209" y="158" on="0"/>
        <pt x="188" y="159" on="0"/>
        <pt x="183" y="160" on="1"/>
        <pt x="150" y="0" on="1"/>
        <pt x="20" y="0" on="1"/>
      </contour>
      <contour>
        <pt x="257" y="507" on="1"/>
        <pt x="245" y="449" on="0"/>
        <pt x="221" y="337" on="0"/>
        <pt x="209" y="280" on="1"/>
        <pt x="213" y="279" on="0"/>
        <pt x="227" y="277" on="0"/>
        <pt x="244" y="276" on="0"/>
        <pt x="259" y="275" on="0"/>
        <pt x="263" y="275" on="1"/>
        <pt x="297" y="275" on="0"/>
        <pt x="360" y="289" on="0"/>
        <pt x="408" y="322" on="0"/>
        <pt x="437" y="376" on="0"/>
        <pt x="437" y="415" on="1"/>
        <pt x="437" y="445" on="0"/>
        <pt x="418" y="482" on="0"/>
        <pt x="386" y="504" on="0"/>
        <pt x="343" y="512" on="0"/>
        <pt x="319" y="512" on="1"/>
        <pt x="301" y="512" on="0"/>
        <pt x="268" y="509" on="0"/>
      </contour>
    </TTGlyph>
    <TTGlyph name="U" xMin="63" yMin="-12" xMax="653" yMax="700">
      <contour>
        <pt x="531" y="700" on="1"/>
        <pt x="653" y="700" on="1"/>
        <pt x="558" y="248" on="1"/>
        <pt x="543" y="176" on="0"/>
        <pt x="495" y="77" on="0"/>
        <pt x="427" y="15" on="0"/>
        <pt x="335" y="-12" on="0"/>
        <pt x="275" y="-12" on="1"/>
        <pt x="217" y="-12" on="0"/>
        <pt x="137" y="15" on="0"/>
        <pt x="86" y="65" on="0"/>
        <pt x="63" y="133" on="0"/>
        <pt x="63" y="174" on="1"/>
        <pt x="63" y="194" on="0"/>
        <pt x="68" y="236" on="0"/>
        <pt x="73" y="259" on="1"/>
        <pt x="167" y="700" on="1"/>
        <pt x="296" y="700" on="1"/>
        <pt x="204" y="260" on="1"/>
        <pt x="196" y="222" on="0"/>
        <pt x="196" y="198" on="1"/>
        <pt x="196" y="150" on="0"/>
        <pt x="246" y="110" on="0"/>
        <pt x="294" y="110" on="1"/>
        <pt x="354" y="110" on="0"/>
        <pt x="420" y="180" on="0"/>
        <pt x="437" y="258" on="1"/>
      </contour>
    </TTGlyph>
    <TTGlyph name="Uacute" xMin="63" yMin="-12" xMax="653" yMax="870">
      <component glyphName="U" x="0" y="0" flags="0x204"/>
      <component glyphName="uniF6C9" x="207" y="0" flags="0x4"/>
    </TTGlyph>
    <TTGlyph name="Ubreve" xMin="63" yMin="-12" xMax="653" yMax="875">
      <component glyphName="U" x="0" y="0" flags="0x204"/>
      <component glyphName="uniF406" x="105" y="0" flags="0x4"/>
    </TTGlyph>
    <TTGlyph name="Ucircumflex" xMin="63" yMin="-12" xMax="653" yMax="870">
      <component glyphName="U" x="0" y="0" flags="0x204"/>
      <component glyphName="uniF408" x="110" y="0" flags="0x4"/>
    </TTGlyph>
    <TTGlyph name="Udieresis" xMin="63" yMin="-12" xMax="653" yMax="856">
      <component glyphName="U" x="0" y="0" flags="0x204"/>
      <component glyphName="uniF6CB" x="110" y="0" flags="0x4"/>
    </TTGlyph>
    <TTGlyph name="Ugrave" xMin="63" yMin="-12" xMax="653" yMax="870">
      <component glyphName="U" x="0" y="0" flags="0x204"/>
      <component glyphName="uniF6CE" x="110" y="0" flags="0x4"/>
    </TTGlyph>
    <TTGlyph name="Uhungarumlaut" xMin="63" yMin="-12" xMax="673" yMax="850">
      <component glyphName="U" x="0" y="0" flags="0x204"/>
      <component glyphName="uniF6CF" x="91" y="0" flags="0x4"/>
    </TTGlyph>
    <TTGlyph name="Umacron" xMin="63" yMin="-12" xMax="653" yMax="856">
      <component glyphName="U" x="0" y="0" flags="0x204"/>
      <component glyphName="uniF6D0" x="82" y="0" flags="0x4"/>
    </TTGlyph>
    <TTGlyph name="Uogonek" xMin="63" yMin="-202" xMax="653" yMax="700">
      <contour>
        <pt x="531" y="700" on="1"/>
        <pt x="653" y="700" on="1"/>
        <pt x="558" y="248" on="1"/>
        <pt x="535" y="140" on="0"/>
        <pt x="452" y="24" on="0"/>
        <pt x="383" y="2" on="1"/>
        <pt x="360" y="-12" on="0"/>
        <pt x="328" y="-50" on="0"/>
        <pt x="328" y="-76" on="1"/>
        <pt x="328" y="-93" on="0"/>
        <pt x="348" y="-114" on="0"/>
        <pt x="366" y="-114" on="1"/>
        <pt x="382" y="-114" on="0"/>
        <pt x="404" y="-106" on="1"/>
        <pt x="410" y="-168" on="1"/>
        <pt x="391" y="-181" on="0"/>
        <pt x="328" y="-202" on="0"/>
        <pt x="295" y="-202" on="1"/>
        <pt x="247" y="-202" on="0"/>
        <pt x="200" y="-153" on="0"/>
        <pt x="200" y="-119" on="1"/>
        <pt x="200" y="-84" on="0"/>
        <pt x="240" y="-31" on="0"/>
        <pt x="269" y="-12" on="1"/>
        <pt x="213" y="-11" on="0"/>
        <pt x="134" y="17" on="0"/>
        <pt x="85" y="66" on="0"/>
        <pt x="63" y="134" on="0"/>
        <pt x="63" y="174" on="1"/>
        <pt x="63" y="194" on="0"/>
        <pt x="68" y="236" on="0"/>
        <pt x="73" y="259" on="1"/>
        <pt x="167" y="700" on="1"/>
        <pt x="296" y="700" on="1"/>
        <pt x="204" y="260" on="1"/>
        <pt x="196" y="222" on="0"/>
        <pt x="196" y="198" on="1"/>
        <pt x="196" y="150" on="0"/>
        <pt x="246" y="110" on="0"/>
        <pt x="294" y="110" on="1"/>
        <pt x="354" y="110" on="0"/>
        <pt x="420" y="180" on="0"/>
        <pt x="437" y="258" on="1"/>
      </contour>
    </TTGlyph>
    <TTGlyph name="Uring" xMin="63" yMin="-12" xMax="653" yMax="862">
      <component glyphName="U" x="0" y="0" flags="0x204"/>
      <component glyphName="uniF40C" x="140" y="0" flags="0x4"/>
    </TTGlyph>
    <TTGlyph name="V" xMin="101" yMin="-5" xMax="691" yMax="700">
      <contour>
        <pt x="288" y="290" on="1"/>
        <pt x="281" y="171" on="1"/>
        <pt x="285" y="171" on="1"/>
        <pt x="329" y="290" on="1"/>
        <pt x="545" y="700" on="1"/>
        <pt x="691" y="700" on="1"/>
        <pt x="296" y="-5" on="1"/>
        <pt x="202" y="-5" on="1"/>
        <pt x="101" y="700" on="1"/>
        <pt x="243" y="700" on="1"/>
      </contour>
    </TTGlyph>
    <TTGlyph name="W" xMin="109" yMin="-5" xMax="930" yMax="700">
      <contour>
        <pt x="249" y="310" on="1"/>
        <pt x="235" y="186" on="1"/>
        <pt x="240" y="186" on="1"/>
        <pt x="279" y="312" on="1"/>
        <pt x="477" y="700" on="1"/>
        <pt x="565" y="700" on="1"/>
        <pt x="594" y="310" on="1"/>
        <pt x="581" y="186" on="1"/>
        <pt x="586" y="186" on="1"/>
        <pt x="626" y="312" on="1"/>
        <pt x="790" y="700" on="1"/>
        <pt x="930" y="700" on="1"/>
        <pt x="597" y="-5" on="1"/>
        <pt x="506" y="-5" on="1"/>
        <pt x="469" y="384" on="1"/>
        <pt x="477" y="491" on="1"/>
        <pt x="471" y="491" on="1"/>
        <pt x="433" y="383" on="1"/>
        <pt x="234" y="-5" on="1"/>
        <pt x="143" y="-5" on="1"/>
        <pt x="109" y="700" on="1"/>
        <pt x="246" y="700" on="1"/>
      </contour>
    </TTGlyph>
    <TTGlyph name="X" xMin="-24" yMin="0" xMax="696" yMax="700">
      <contour>
        <pt x="256" y="357" on="1"/>
        <pt x="143" y="700" on="1"/>
        <pt x="284" y="700" on="1"/>
        <pt x="344" y="498" on="1"/>
        <pt x="354" y="427" on="1"/>
        <pt x="391" y="498" on="1"/>
        <pt x="540" y="700" on="1"/>
        <pt x="696" y="700" on="1"/>
        <pt x="433" y="362" on="1"/>
        <pt x="558" y="0" on="1"/>
        <pt x="419" y="0" on="1"/>
        <pt x="347" y="216" on="1"/>
        <pt x="335" y="290" on="1"/>
        <pt x="295" y="216" on="1"/>
        <pt x="134" y="0" on="1"/>
        <pt x="-24" y="0" on="1"/>
      </contour>
    </TTGlyph>
    <TTGlyph name="Y" xMin="106" yMin="0" xMax="672" yMax="700">
      <contour>
        <pt x="231" y="260" on="1"/>
        <pt x="106" y="700" on="1"/>
        <pt x="250" y="700" on="1"/>
        <pt x="315" y="437" on="1"/>
        <pt x="313" y="363" on="1"/>
        <pt x="317" y="363" on="1"/>
        <pt x="348" y="439" on="1"/>
        <pt x="523" y="700" on="1"/>
        <pt x="672" y="700" on="1"/>
        <pt x="361" y="261" on="1"/>
        <pt x="306" y="0" on="1"/>
        <pt x="177" y="0" on="1"/>
      </contour>
    </TTGlyph>
    <TTGlyph name="Yacute" xMin="106" yMin="0" xMax="672" yMax="870">
      <component glyphName="Y" x="0" y="0" flags="0x204"/>
      <component glyphName="uniF6C9" x="171" y="0" flags="0x4"/>
    </TTGlyph>
    <TTGlyph name="Ydieresis" xMin="106" yMin="0" xMax="672" yMax="856">
      <component glyphName="Y" x="0" y="0" flags="0x204"/>
      <component glyphName="uniF6CB" x="94" y="0" flags="0x4"/>
    </TTGlyph>
    <TTGlyph name="Z" xMin="-11" yMin="0" xMax="598" yMax="700">
      <contour>
        <pt x="15" y="122" on="1"/>
        <pt x="375" y="538" on="1"/>
        <pt x="433" y="578" on="1"/>
        <pt x="112" y="578" on="1"/>
        <pt x="137" y="700" on="1"/>
        <pt x="598" y="700" on="1"/>
        <pt x="573" y="578" on="1"/>
        <pt x="211" y="159" on="1"/>
        <pt x="155" y="122" on="1"/>
        <pt x="476" y="122" on="1"/>
        <pt x="450" y="0" on="1"/>
        <pt x="-11" y="0" on="1"/>
      </contour>
    </TTGlyph>
    <TTGlyph name="Zacute" xMin="-11" yMin="0" xMax="598" yMax="870">
      <component glyphName="Z" x="0" y="0" flags="0x204"/>
      <component glyphName="uniF6C9" x="144" y="0" flags="0x4"/>
    </TTGlyph>
    <TTGlyph name="Zcaron" xMin="-11" yMin="0" xMax="598" yMax="870">
      <component glyphName="Z" x="0" y="0" flags="0x204"/>
      <component glyphName="uniF6CA" x="70" y="0" flags="0x4"/>
    </TTGlyph>
    <TTGlyph name="Zdotaccent" xMin="-11" yMin="0" xMax="598" yMax="859">
      <component glyphName="Z" x="0" y="0" flags="0x204"/>
      <component glyphName="uniF40B" x="142" y="0" flags="0x4"/>
    </TTGlyph>
    <TTGlyph name="a" xMin="33" yMin="-14" xMax="506" yMax="514">
      <contour>
        <pt x="444" y="200" on="1"/>
        <pt x="436" y="162" on="0"/>
        <pt x="429" y="84" on="0"/>
        <pt x="429" y="49" on="1"/>
        <pt x="429" y="35" on="0"/>
        <pt x="430" y="10" on="0"/>
        <pt x="431" y="-1" on="1"/>
        <pt x="340" y="-1" on="1"/>
        <pt x="326" y="85" on="1"/>
        <pt x="322" y="85" on="1"/>
        <pt x="311" y="67" on="0"/>
        <pt x="276" y="32" on="0"/>
        <pt x="234" y="3" on="0"/>
        <pt x="187" y="-14" on="0"/>
        <pt x="162" y="-14" on="1"/>
        <pt x="96" y="-14" on="0"/>
        <pt x="33" y="72" on="0"/>
        <pt x="33" y="144" on="1"/>
        <pt x="33" y="217" on="0"/>
        <pt x="70" y="351" on="0"/>
        <pt x="148" y="453" on="0"/>
        <pt x="267" y="514" on="0"/>
        <pt x="349" y="514" on="1"/>
        <pt x="384" y="514" on="0"/>
        <pt x="467" y="501" on="0"/>
        <pt x="506" y="490" on="1"/>
      </contour>
      <contour>
        <pt x="209" y="89" on="1"/>
        <pt x="227" y="89" on="0"/>
        <pt x="259" y="104" on="0"/>
        <pt x="286" y="128" on="0"/>
        <pt x="307" y="156" on="0"/>
        <pt x="315" y="168" on="1"/>
        <pt x="365" y="401" on="1"/>
        <pt x="354" y="406" on="0"/>
        <pt x="325" y="411" on="0"/>
        <pt x="311" y="411" on="1"/>
        <pt x="275" y="411" on="0"/>
        <pt x="219" y="368" on="0"/>
        <pt x="180" y="299" on="0"/>
        <pt x="160" y="212" on="0"/>
        <pt x="160" y="168" on="1"/>
        <pt x="160" y="136" on="0"/>
        <pt x="181" y="89" on="0"/>
      </contour>
    </TTGlyph>
    <TTGlyph name="aacute" xMin="33" yMin="-14" xMax="506" yMax="720">
      <component glyphName="a" x="0" y="0" flags="0x204"/>
      <component glyphName="acute" x="171" y="0" flags="0x4"/>
    </TTGlyph>
    <TTGlyph name="abreve" xMin="33" yMin="-14" xMax="532" yMax="720">
      <component glyphName="a" x="0" y="0" flags="0x204"/>
      <component glyphName="breve" x="43" y="0" flags="0x4"/>
    </TTGlyph>
    <TTGlyph name="acircumflex" xMin="33" yMin="-14" xMax="506" yMax="732">
      <component glyphName="a" x="0" y="0" flags="0x204"/>
      <component glyphName="circumflex" x="60" y="0" flags="0x4"/>
    </TTGlyph>
    <TTGlyph name="acute" xMin="127" yMin="566" xMax="335" yMax="720">
      <contour>
        <pt x="210" y="720" on="1"/>
        <pt x="335" y="720" on="1"/>
        <pt x="329" y="690" on="1"/>
        <pt x="196" y="566" on="1"/>
        <pt x="127" y="566" on="1"/>
      </contour>
    </TTGlyph>
    <TTGlyph name="acutecomb" xMin="-169" yMin="566" xMax="39" yMax="720">
      <component glyphName="acute" x="-296" y="0" flags="0x4"/>
    </TTGlyph>
    <TTGlyph name="adieresis" xMin="33" yMin="-14" xMax="510" yMax="721">
      <component glyphName="a" x="0" y="0" flags="0x204"/>
      <component glyphName="dieresis" x="7" y="0" flags="0x4"/>
    </TTGlyph>
    <TTGlyph name="ae" xMin="17" yMin="-14" xMax="752" yMax="514">
      <contour>
        <pt x="312" y="223" on="1"/>
        <pt x="304" y="224" on="0"/>
        <pt x="287" y="224" on="0"/>
        <pt x="279" y="224" on="1"/>
        <pt x="222" y="224" on="0"/>
        <pt x="144" y="187" on="0"/>
        <pt x="144" y="148" on="1"/>
        <pt x="144" y="121" on="0"/>
        <pt x="172" y="97" on="0"/>
        <pt x="195" y="97" on="1"/>
        <pt x="213" y="97" on="0"/>
        <pt x="246" y="112" on="0"/>
        <pt x="274" y="133" on="0"/>
        <pt x="296" y="156" on="0"/>
        <pt x="303" y="165" on="1"/>
      </contour>
      <contour>
        <pt x="315" y="77" on="1"/>
        <pt x="283" y="41" on="0"/>
        <pt x="199" y="-8" on="0"/>
        <pt x="142" y="-8" on="1"/>
        <pt x="109" y="-8" on="0"/>
        <pt x="62" y="13" on="0"/>
        <pt x="32" y="48" on="0"/>
        <pt x="17" y="94" on="0"/>
        <pt x="17" y="118" on="1"/>
        <pt x="17" y="167" on="0"/>
        <pt x="61" y="237" on="0"/>
        <pt x="137" y="281" on="0"/>
        <pt x="237" y="302" on="0"/>
        <pt x="294" y="302" on="1"/>
        <pt x="302" y="302" on="0"/>
        <pt x="319" y="302" on="0"/>
        <pt x="327" y="301" on="1"/>
        <pt x="338" y="339" on="0"/>
        <pt x="338" y="360" on="1"/>
        <pt x="338" y="384" on="0"/>
        <pt x="308" y="407" on="0"/>
        <pt x="272" y="407" on="1"/>
        <pt x="239" y="407" on="0"/>
        <pt x="165" y="391" on="0"/>
        <pt x="133" y="378" on="1"/>
        <pt x="115" y="471" on="1"/>
        <pt x="156" y="491" on="0"/>
        <pt x="263" y="510" on="0"/>
        <pt x="313" y="510" on="1"/>
        <pt x="359" y="510" on="0"/>
        <pt x="423" y="481" on="0"/>
        <pt x="436" y="450" on="1"/>
        <pt x="465" y="481" on="0"/>
        <pt x="552" y="514" on="0"/>
        <pt x="597" y="514" on="1"/>
        <pt x="639" y="514" on="0"/>
        <pt x="698" y="495" on="0"/>
        <pt x="735" y="461" on="0"/>
        <pt x="752" y="416" on="0"/>
        <pt x="752" y="389" on="1"/>
        <pt x="752" y="333" on="0"/>
        <pt x="699" y="265" on="0"/>
        <pt x="609" y="226" on="0"/>
        <pt x="491" y="212" on="0"/>
        <pt x="427" y="212" on="1"/>
        <pt x="426" y="204" on="0"/>
        <pt x="425" y="189" on="0"/>
        <pt x="425" y="182" on="1"/>
        <pt x="425" y="137" on="0"/>
        <pt x="471" y="89" on="0"/>
        <pt x="524" y="89" on="1"/>
        <pt x="562" y="89" on="0"/>
        <pt x="629" y="110" on="0"/>
        <pt x="649" y="122" on="1"/>
        <pt x="672" y="36" on="1"/>
        <pt x="638" y="12" on="0"/>
        <pt x="535" y="-14" on="0"/>
        <pt x="484" y="-14" on="1"/>
        <pt x="418" y="-14" on="0"/>
        <pt x="337" y="34" on="0"/>
        <pt x="320" y="77" on="1"/>
      </contour>
      <contour>
        <pt x="447" y="292" on="1"/>
        <pt x="479" y="292" on="0"/>
        <pt x="545" y="295" on="0"/>
        <pt x="599" y="310" on="0"/>
        <pt x="633" y="341" on="0"/>
        <pt x="633" y="368" on="1"/>
        <pt x="633" y="385" on="0"/>
        <pt x="609" y="414" on="0"/>
        <pt x="576" y="414" on="1"/>
        <pt x="523" y="414" on="0"/>
        <pt x="462" y="343" on="0"/>
      </contour>
    </TTGlyph>
    <TTGlyph name="afii10017" xMin="-38" yMin="0" xMax="538" yMax="705">
      <component glyphName="A" x="0" y="0" flags="0x204"/>
    </TTGlyph>
    <TTGlyph name="afii10018" xMin="20" yMin="-10" xMax="575" yMax="700">
      <contour>
        <pt x="167" y="700" on="1"/>
        <pt x="297" y="700" on="1"/>
        <pt x="575" y="700" on="1"/>
        <pt x="549" y="578" on="1"/>
        <pt x="271" y="578" on="1"/>
        <pt x="240" y="432" on="1"/>
        <pt x="257" y="435" on="0"/>
        <pt x="305" y="441" on="0"/>
        <pt x="328" y="441" on="1"/>
        <pt x="383" y="441" on="0"/>
        <pt x="460" y="411" on="0"/>
        <pt x="508" y="361" on="0"/>
        <pt x="531" y="295" on="0"/>
        <pt x="531" y="260" on="1"/>
        <pt x="531" y="197" on="0"/>
        <pt x="488" y="97" on="0"/>
        <pt x="405" y="27" on="0"/>
        <pt x="285" y="-10" on="0"/>
        <pt x="209" y="-10" on="1"/>
        <pt x="193" y="-10" on="0"/>
        <pt x="150" y="-9" on="0"/>
        <pt x="92" y="-4" on="0"/>
        <pt x="39" y="2" on="0"/>
        <pt x="20" y="7" on="1"/>
      </contour>
      <contour>
        <pt x="171" y="108" on="1"/>
        <pt x="181" y="105" on="0"/>
        <pt x="223" y="103" on="0"/>
        <pt x="243" y="103" on="1"/>
        <pt x="271" y="103" on="0"/>
        <pt x="325" y="120" on="0"/>
        <pt x="368" y="153" on="0"/>
        <pt x="394" y="203" on="0"/>
        <pt x="394" y="236" on="1"/>
        <pt x="394" y="288" on="0"/>
        <pt x="333" y="328" on="0"/>
        <pt x="278" y="328" on="1"/>
        <pt x="264" y="328" on="0"/>
        <pt x="224" y="323" on="0"/>
        <pt x="216" y="321" on="1"/>
      </contour>
    </TTGlyph>
    <TTGlyph name="afii10019" xMin="20" yMin="-10" xMax="586" yMax="710">
      <component glyphName="B" x="0" y="0" flags="0x204"/>
    </TTGlyph>
    <TTGlyph name="afii10020" xMin="20" yMin="0" xMax="554" yMax="700">
      <contour>
        <pt x="528" y="578" on="1"/>
        <pt x="272" y="578" on="1"/>
        <pt x="150" y="0" on="1"/>
        <pt x="20" y="0" on="1"/>
        <pt x="168" y="700" on="1"/>
        <pt x="554" y="700" on="1"/>
      </contour>
    </TTGlyph>
    <TTGlyph name="afii10021" xMin="-64" yMin="-125" xMax="666" yMax="700">
      <contour>
        <pt x="575" y="-125" on="1"/>
        <pt x="484" y="-125" on="1"/>
        <pt x="496" y="0" on="1"/>
        <pt x="69" y="0" on="1"/>
        <pt x="28" y="-125" on="1"/>
        <pt x="-64" y="-125" on="1"/>
        <pt x="-12" y="122" on="1"/>
        <pt x="58" y="122" on="1"/>
        <pt x="67" y="133" on="0"/>
        <pt x="116" y="208" on="0"/>
        <pt x="176" y="347" on="0"/>
        <pt x="241" y="555" on="0"/>
        <pt x="267" y="700" on="1"/>
        <pt x="384" y="700" on="1"/>
        <pt x="536" y="700" on="1"/>
        <pt x="666" y="700" on="1"/>
        <pt x="543" y="122" on="1"/>
        <pt x="628" y="122" on="1"/>
      </contour>
      <contour>
        <pt x="414" y="122" on="1"/>
        <pt x="510" y="578" on="1"/>
        <pt x="364" y="578" on="1"/>
        <pt x="322" y="398" on="0"/>
        <pt x="232" y="172" on="0"/>
        <pt x="198" y="122" on="1"/>
      </contour>
    </TTGlyph>
    <TTGlyph name="afii10022" xMin="20" yMin="0" xMax="562" yMax="700">
      <component glyphName="E" x="0" y="0" flags="0x204"/>
    </TTGlyph>
    <TTGlyph name="afii10023" xMin="20" yMin="0" xMax="562" yMax="856">
      <component glyphName="E" x="0" y="0" flags="0x204"/>
      <component glyphName="uniF6CB" x="60" y="0" flags="0x4"/>
    </TTGlyph>
    <TTGlyph name="afii10024" xMin="-46" yMin="0" xMax="881" yMax="700">
      <contour>
        <pt x="440" y="700" on="1"/>
        <pt x="564" y="700" on="1"/>
        <pt x="498" y="389" on="1"/>
        <pt x="532" y="400" on="1"/>
        <pt x="727" y="700" on="1"/>
        <pt x="881" y="700" on="1"/>
        <pt x="662" y="393" on="1"/>
        <pt x="609" y="359" on="1"/>
        <pt x="651" y="317" on="1"/>
        <pt x="763" y="0" on="1"/>
        <pt x="619" y="0" on="1"/>
        <pt x="521" y="304" on="1"/>
        <pt x="480" y="304" on="1"/>
        <pt x="416" y="0" on="1"/>
        <pt x="292" y="0" on="1"/>
        <pt x="359" y="316" on="1"/>
        <pt x="326" y="304" on="1"/>
        <pt x="113" y="0" on="1"/>
        <pt x="-46" y="0" on="1"/>
        <pt x="190" y="307" on="1"/>
        <pt x="251" y="346" on="1"/>
        <pt x="213" y="383" on="1"/>
        <pt x="115" y="700" on="1"/>
        <pt x="255" y="700" on="1"/>
        <pt x="337" y="401" on="1"/>
        <pt x="377" y="401" on="1"/>
      </contour>
    </TTGlyph>
    <TTGlyph name="afii10025" xMin="-17" yMin="-14" xMax="525" yMax="712">
      <contour>
        <pt x="141" y="309" on="1"/>
        <pt x="164" y="417" on="1"/>
        <pt x="187" y="417" on="1"/>
        <pt x="196" y="417" on="0"/>
        <pt x="220" y="418" on="0"/>
        <pt x="245" y="420" on="0"/>
        <pt x="269" y="422" on="0"/>
        <pt x="277" y="423" on="1"/>
        <pt x="297" y="426" on="0"/>
        <pt x="337" y="439" on="0"/>
        <pt x="368" y="463" on="0"/>
        <pt x="388" y="497" on="0"/>
        <pt x="388" y="521" on="1"/>
        <pt x="388" y="553" on="0"/>
        <pt x="339" y="590" on="0"/>
        <pt x="291" y="590" on="1"/>
        <pt x="249" y="590" on="0"/>
        <pt x="172" y="566" on="0"/>
        <pt x="147" y="555" on="1"/>
        <pt x="138" y="671" on="1"/>
        <pt x="150" y="677" on="0"/>
        <pt x="191" y="691" on="0"/>
        <pt x="242" y="703" on="0"/>
        <pt x="302" y="712" on="0"/>
        <pt x="332" y="712" on="1"/>
        <pt x="374" y="712" on="0"/>
        <pt x="444" y="693" on="0"/>
        <pt x="496" y="655" on="0"/>
        <pt x="525" y="598" on="0"/>
        <pt x="525" y="561" on="1"/>
        <pt x="525" y="492" on="0"/>
        <pt x="450" y="388" on="0"/>
        <pt x="376" y="371" on="1"/>
        <pt x="376" y="366" on="1"/>
        <pt x="395" y="360" on="0"/>
        <pt x="431" y="339" on="0"/>
        <pt x="458" y="305" on="0"/>
        <pt x="475" y="257" on="0"/>
        <pt x="475" y="224" on="1"/>
        <pt x="475" y="163" on="0"/>
        <pt x="427" y="74" on="0"/>
        <pt x="344" y="15" on="0"/>
        <pt x="232" y="-14" on="0"/>
        <pt x="169" y="-14" on="1"/>
        <pt x="106" y="-14" on="0"/>
        <pt x="7" y="8" on="0"/>
        <pt x="-17" y="23" on="1"/>
        <pt x="41" y="142" on="1"/>
        <pt x="61" y="131" on="0"/>
        <pt x="137" y="108" on="0"/>
        <pt x="193" y="108" on="1"/>
        <pt x="217" y="108" on="0"/>
        <pt x="269" y="120" on="0"/>
        <pt x="311" y="147" on="0"/>
        <pt x="338" y="191" on="0"/>
        <pt x="338" y="223" on="1"/>
        <pt x="338" y="271" on="0"/>
        <pt x="269" y="307" on="0"/>
        <pt x="205" y="309" on="1"/>
        <pt x="167" y="309" on="1"/>
      </contour>
    </TTGlyph>
    <TTGlyph name="afii10026" xMin="20" yMin="0" xMax="685" yMax="700">
      <contour>
        <pt x="487" y="381" on="1"/>
        <pt x="516" y="470" on="1"/>
        <pt x="510" y="470" on="1"/>
        <pt x="446" y="374" on="1"/>
        <pt x="120" y="0" on="1"/>
        <pt x="20" y="0" on="1"/>
        <pt x="168" y="700" on="1"/>
        <pt x="298" y="700" on="1"/>
        <pt x="219" y="326" on="1"/>
        <pt x="189" y="234" on="1"/>
        <pt x="195" y="234" on="1"/>
        <pt x="261" y="333" on="1"/>
        <pt x="585" y="700" on="1"/>
        <pt x="685" y="700" on="1"/>
        <pt x="537" y="0" on="1"/>
        <pt x="407" y="0" on="1"/>
      </contour>
    </TTGlyph>
    <TTGlyph name="afii10027" xMin="20" yMin="0" xMax="685" yMax="874">
      <component glyphName="afii10026" x="0" y="0" flags="0x204"/>
      <component glyphName="uniF6D1" x="137" y="0" flags="0x4"/>
    </TTGlyph>
    <TTGlyph name="afii10028" xMin="20" yMin="0" xMax="656" yMax="700">
      <component glyphName="K" x="0" y="0" flags="0x204"/>
    </TTGlyph>
    <TTGlyph name="afii10029" xMin="-48" yMin="-7" xMax="645" yMax="700">
      <contour>
        <pt x="490" y="578" on="1"/>
        <pt x="350" y="578" on="1"/>
        <pt x="327" y="483" on="0"/>
        <pt x="286" y="327" on="0"/>
        <pt x="245" y="203" on="0"/>
        <pt x="199" y="107" on="0"/>
        <pt x="172" y="71" on="1"/>
        <pt x="154" y="47" on="0"/>
        <pt x="115" y="17" on="0"/>
        <pt x="76" y="0" on="0"/>
        <pt x="40" y="-7" on="0"/>
        <pt x="24" y="-7" on="1"/>
        <pt x="-22" y="-7" on="0"/>
        <pt x="-48" y="7" on="1"/>
        <pt x="-9" y="125" on="1"/>
        <pt x="-4" y="123" on="0"/>
        <pt x="7" y="121" on="0"/>
        <pt x="12" y="121" on="1"/>
        <pt x="29" y="120" on="0"/>
        <pt x="64" y="138" on="0"/>
        <pt x="79" y="158" on="1"/>
        <pt x="97" y="180" on="0"/>
        <pt x="137" y="264" on="0"/>
        <pt x="180" y="396" on="0"/>
        <pt x="227" y="578" on="0"/>
        <pt x="253" y="700" on="1"/>
        <pt x="376" y="700" on="1"/>
        <pt x="515" y="700" on="1"/>
        <pt x="645" y="700" on="1"/>
        <pt x="497" y="0" on="1"/>
        <pt x="368" y="0" on="1"/>
      </contour>
    </TTGlyph>
    <TTGlyph name="afii10030" xMin="20" yMin="0" xMax="813" yMax="700">
      <component glyphName="M" x="0" y="0" flags="0x204"/>
    </TTGlyph>
    <TTGlyph name="afii10031" xMin="20" yMin="0" xMax="671" yMax="700">
      <component glyphName="H" x="0" y="0" flags="0x204"/>
    </TTGlyph>
    <TTGlyph name="afii10032" xMin="58" yMin="-14" xMax="654" yMax="714">
      <component glyphName="O" x="0" y="0" flags="0x204"/>
    </TTGlyph>
    <TTGlyph name="afii10033" xMin="20" yMin="0" xMax="660" yMax="700">
      <contour>
        <pt x="504" y="578" on="1"/>
        <pt x="272" y="578" on="1"/>
        <pt x="150" y="0" on="1"/>
        <pt x="20" y="0" on="1"/>
        <pt x="168" y="700" on="1"/>
        <pt x="298" y="700" on="1"/>
        <pt x="530" y="700" on="1"/>
        <pt x="660" y="700" on="1"/>
        <pt x="512" y="0" on="1"/>
        <pt x="382" y="0" on="1"/>
      </contour>
    </TTGlyph>
    <TTGlyph name="afii10034" xMin="20" yMin="0" xMax="591" yMax="710">
      <component glyphName="P" x="0" y="0" flags="0x204"/>
    </TTGlyph>
    <TTGlyph name="afii10035" xMin="58" yMin="-14" xMax="605" yMax="714">
      <component glyphName="C" x="0" y="0" flags="0x204"/>
    </TTGlyph>
    <TTGlyph name="afii10036" xMin="96" yMin="0" xMax="639" yMax="700">
      <component glyphName="T" x="0" y="0" flags="0x204"/>
    </TTGlyph>
    <TTGlyph name="afii10037" xMin="52" yMin="-7" xMax="663" yMax="700">
      <contour>
        <pt x="315" y="391" on="1"/>
        <pt x="316" y="300" on="1"/>
        <pt x="322" y="300" on="1"/>
        <pt x="355" y="394" on="1"/>
        <pt x="518" y="700" on="1"/>
        <pt x="663" y="700" on="1"/>
        <pt x="383" y="216" on="1"/>
        <pt x="350" y="159" on="0"/>
        <pt x="298" y="75" on="0"/>
        <pt x="247" y="20" on="0"/>
        <pt x="189" y="-7" on="0"/>
        <pt x="150" y="-7" on="1"/>
        <pt x="89" y="-7" on="0"/>
        <pt x="52" y="17" on="1"/>
        <pt x="109" y="128" on="1"/>
        <pt x="123" y="120" on="0"/>
        <pt x="147" y="115" on="0"/>
        <pt x="162" y="115" on="1"/>
        <pt x="183" y="115" on="0"/>
        <pt x="223" y="158" on="0"/>
        <pt x="242" y="192" on="1"/>
        <pt x="102" y="700" on="1"/>
        <pt x="245" y="700" on="1"/>
      </contour>
    </TTGlyph>
    <TTGlyph name="afii10038" xMin="51" yMin="-20" xMax="788" yMax="720">
      <contour>
        <pt x="297" y="78" on="1"/>
        <pt x="277" y="74" on="0"/>
        <pt x="247" y="71" on="0"/>
        <pt x="222" y="71" on="1"/>
        <pt x="188" y="71" on="0"/>
        <pt x="126" y="96" on="0"/>
        <pt x="79" y="147" on="0"/>
        <pt x="51" y="224" on="0"/>
        <pt x="51" y="275" on="1"/>
        <pt x="51" y="365" on="0"/>
        <pt x="98" y="502" on="0"/>
        <pt x="181" y="593" on="0"/>
        <pt x="292" y="640" on="0"/>
        <pt x="355" y="640" on="1"/>
        <pt x="368" y="640" on="0"/>
        <pt x="404" y="637" on="0"/>
        <pt x="415" y="635" on="1"/>
        <pt x="433" y="720" on="1"/>
        <pt x="561" y="720" on="1"/>
        <pt x="543" y="632" on="1"/>
        <pt x="562" y="637" on="0"/>
        <pt x="601" y="640" on="0"/>
        <pt x="616" y="640" on="1"/>
        <pt x="694" y="640" on="0"/>
        <pt x="788" y="537" on="0"/>
        <pt x="788" y="437" on="1"/>
        <pt x="788" y="357" on="0"/>
        <pt x="745" y="223" on="0"/>
        <pt x="667" y="125" on="0"/>
        <pt x="558" y="71" on="0"/>
        <pt x="491" y="71" on="1"/>
        <pt x="474" y="71" on="0"/>
        <pt x="438" y="74" on="0"/>
        <pt x="425" y="78" on="1"/>
        <pt x="404" y="-20" on="1"/>
        <pt x="276" y="-20" on="1"/>
      </contour>
      <contour>
        <pt x="442" y="183" on="1"/>
        <pt x="450" y="181" on="0"/>
        <pt x="473" y="181" on="0"/>
        <pt x="485" y="181" on="1"/>
        <pt x="521" y="181" on="0"/>
        <pt x="583" y="214" on="0"/>
        <pt x="630" y="275" on="0"/>
        <pt x="657" y="363" on="0"/>
        <pt x="657" y="418" on="1"/>
        <pt x="657" y="530" on="0"/>
        <pt x="566" y="530" on="1"/>
        <pt x="555" y="530" on="0"/>
        <pt x="525" y="528" on="0"/>
        <pt x="514" y="525" on="1"/>
      </contour>
      <contour>
        <pt x="397" y="527" on="1"/>
        <pt x="387" y="529" on="0"/>
        <pt x="362" y="530" on="0"/>
        <pt x="351" y="530" on="1"/>
        <pt x="315" y="530" on="0"/>
        <pt x="254" y="498" on="0"/>
        <pt x="208" y="437" on="0"/>
        <pt x="182" y="350" on="0"/>
        <pt x="182" y="295" on="1"/>
        <pt x="182" y="264" on="0"/>
        <pt x="197" y="221" on="0"/>
        <pt x="222" y="194" on="0"/>
        <pt x="256" y="181" on="0"/>
        <pt x="275" y="181" on="1"/>
        <pt x="283" y="181" on="0"/>
        <pt x="313" y="182" on="0"/>
        <pt x="325" y="186" on="1"/>
      </contour>
    </TTGlyph>
    <TTGlyph name="afii10039" xMin="-24" yMin="0" xMax="696" yMax="700">
      <component glyphName="X" x="0" y="0" flags="0x204"/>
    </TTGlyph>
    <TTGlyph name="afii10040" xMin="20" yMin="-125" xMax="657" yMax="700">
      <contour>
        <pt x="566" y="-125" on="1"/>
        <pt x="475" y="-125" on="1"/>
        <pt x="487" y="0" on="1"/>
        <pt x="380" y="0" on="1"/>
        <pt x="150" y="0" on="1"/>
        <pt x="20" y="0" on="1"/>
        <pt x="168" y="700" on="1"/>
        <pt x="298" y="700" on="1"/>
        <pt x="175" y="122" on="1"/>
        <pt x="405" y="122" on="1"/>
        <pt x="528" y="700" on="1"/>
        <pt x="657" y="700" on="1"/>
        <pt x="535" y="122" on="1"/>
        <pt x="619" y="122" on="1"/>
      </contour>
    </TTGlyph>
    <TTGlyph name="afii10041" xMin="97" yMin="0" xMax="629" yMax="700">
      <contour>
        <pt x="284" y="700" on="1"/>
        <pt x="238" y="483" on="1"/>
        <pt x="235" y="470" on="0"/>
        <pt x="234" y="448" on="0"/>
        <pt x="234" y="437" on="1"/>
        <pt x="234" y="398" on="0"/>
        <pt x="271" y="360" on="0"/>
        <pt x="313" y="360" on="1"/>
        <pt x="349" y="360" on="0"/>
        <pt x="412" y="376" on="0"/>
        <pt x="434" y="393" on="1"/>
        <pt x="499" y="700" on="1"/>
        <pt x="629" y="700" on="1"/>
        <pt x="481" y="0" on="1"/>
        <pt x="351" y="0" on="1"/>
        <pt x="411" y="282" on="1"/>
        <pt x="397" y="275" on="0"/>
        <pt x="367" y="261" on="0"/>
        <pt x="331" y="249" on="0"/>
        <pt x="286" y="242" on="0"/>
        <pt x="258" y="242" on="1"/>
        <pt x="223" y="242" on="0"/>
        <pt x="164" y="260" on="0"/>
        <pt x="121" y="298" on="0"/>
        <pt x="97" y="356" on="0"/>
        <pt x="97" y="395" on="1"/>
        <pt x="97" y="426" on="0"/>
        <pt x="104" y="458" on="1"/>
        <pt x="155" y="700" on="1"/>
      </contour>
    </TTGlyph>
    <TTGlyph name="afii10042" xMin="20" yMin="0" xMax="871" yMax="700">
      <contour>
        <pt x="437" y="0" on="1"/>
        <pt x="307" y="0" on="1"/>
        <pt x="150" y="0" on="1"/>
        <pt x="20" y="0" on="1"/>
        <pt x="168" y="700" on="1"/>
        <pt x="298" y="700" on="1"/>
        <pt x="175" y="122" on="1"/>
        <pt x="332" y="122" on="1"/>
        <pt x="455" y="700" on="1"/>
        <pt x="584" y="700" on="1"/>
        <pt x="462" y="122" on="1"/>
        <pt x="619" y="122" on="1"/>
        <pt x="741" y="700" on="1"/>
        <pt x="871" y="700" on="1"/>
        <pt x="723" y="0" on="1"/>
        <pt x="594" y="0" on="1"/>
      </contour>
    </TTGlyph>
    <TTGlyph name="afii10043" xMin="20" yMin="-125" xMax="871" yMax="700">
      <contour>
        <pt x="150" y="0" on="1"/>
        <pt x="20" y="0" on="1"/>
        <pt x="168" y="700" on="1"/>
        <pt x="298" y="700" on="1"/>
        <pt x="175" y="122" on="1"/>
        <pt x="332" y="122" on="1"/>
        <pt x="455" y="700" on="1"/>
        <pt x="584" y="700" on="1"/>
        <pt x="462" y="122" on="1"/>
        <pt x="619" y="122" on="1"/>
        <pt x="741" y="700" on="1"/>
        <pt x="871" y="700" on="1"/>
        <pt x="748" y="122" on="1"/>
        <pt x="836" y="122" on="1"/>
        <pt x="784" y="-125" on="1"/>
        <pt x="693" y="-125" on="1"/>
        <pt x="705" y="0" on="1"/>
        <pt x="594" y="0" on="1"/>
        <pt x="437" y="0" on="1"/>
        <pt x="307" y="0" on="1"/>
      </contour>
    </TTGlyph>
    <TTGlyph name="afii10044" xMin="81" yMin="-10" xMax="628" yMax="700">
      <contour>
        <pt x="232" y="578" on="1"/>
        <pt x="81" y="578" on="1"/>
        <pt x="106" y="700" on="1"/>
        <pt x="257" y="700" on="1"/>
        <pt x="387" y="700" on="1"/>
        <pt x="334" y="449" on="1"/>
        <pt x="347" y="451" on="0"/>
        <pt x="398" y="457" on="0"/>
        <pt x="420" y="457" on="1"/>
        <pt x="515" y="457" on="0"/>
        <pt x="628" y="357" on="0"/>
        <pt x="628" y="268" on="1"/>
        <pt x="628" y="204" on="0"/>
        <pt x="586" y="101" on="0"/>
        <pt x="504" y="29" on="0"/>
        <pt x="379" y="-10" on="0"/>
        <pt x="297" y="-10" on="1"/>
        <pt x="284" y="-10" on="0"/>
        <pt x="241" y="-9" on="0"/>
        <pt x="186" y="-5" on="0"/>
        <pt x="132" y="1" on="0"/>
        <pt x="111" y="7" on="1"/>
      </contour>
      <contour>
        <pt x="264" y="118" on="1"/>
        <pt x="274" y="115" on="0"/>
        <pt x="307" y="112" on="0"/>
        <pt x="326" y="112" on="1"/>
        <pt x="358" y="112" on="0"/>
        <pt x="418" y="127" on="0"/>
        <pt x="464" y="160" on="0"/>
        <pt x="491" y="211" on="0"/>
        <pt x="491" y="247" on="1"/>
        <pt x="491" y="273" on="0"/>
        <pt x="473" y="307" on="0"/>
        <pt x="442" y="327" on="0"/>
        <pt x="400" y="335" on="0"/>
        <pt x="376" y="335" on="1"/>
        <pt x="369" y="335" on="0"/>
        <pt x="349" y="333" on="0"/>
        <pt x="329" y="331" on="0"/>
        <pt x="312" y="328" on="0"/>
        <pt x="308" y="327" on="1"/>
      </contour>
    </TTGlyph>
    <TTGlyph name="afii10045" xMin="20" yMin="-10" xMax="811" yMax="700">
      <contour>
        <pt x="681" y="700" on="1"/>
        <pt x="811" y="700" on="1"/>
        <pt x="663" y="0" on="1"/>
        <pt x="533" y="0" on="1"/>
      </contour>
      <contour>
        <pt x="167" y="700" on="1"/>
        <pt x="297" y="700" on="1"/>
        <pt x="244" y="449" on="1"/>
        <pt x="257" y="451" on="0"/>
        <pt x="297" y="457" on="0"/>
        <pt x="320" y="457" on="1"/>
        <pt x="368" y="457" on="0"/>
        <pt x="443" y="430" on="0"/>
        <pt x="494" y="381" on="0"/>
        <pt x="520" y="314" on="0"/>
        <pt x="520" y="274" on="1"/>
        <pt x="520" y="208" on="0"/>
        <pt x="476" y="103" on="0"/>
        <pt x="392" y="29" on="0"/>
        <pt x="270" y="-10" on="0"/>
        <pt x="192" y="-10" on="1"/>
        <pt x="179" y="-10" on="0"/>
        <pt x="153" y="-10" on="0"/>
        <pt x="150" y="-9" on="1"/>
        <pt x="132" y="-9" on="0"/>
        <pt x="90" y="-5" on="0"/>
        <pt x="41" y="1" on="0"/>
        <pt x="20" y="7" on="1"/>
      </contour>
      <contour>
        <pt x="173" y="118" on="1"/>
        <pt x="194" y="112" on="0"/>
        <pt x="227" y="112" on="1"/>
        <pt x="260" y="112" on="0"/>
        <pt x="317" y="130" on="0"/>
        <pt x="359" y="165" on="0"/>
        <pt x="383" y="215" on="0"/>
        <pt x="383" y="248" on="1"/>
        <pt x="383" y="335" on="0"/>
        <pt x="277" y="335" on="1"/>
        <pt x="264" y="335" on="0"/>
        <pt x="226" y="330" on="0"/>
        <pt x="218" y="327" on="1"/>
      </contour>
    </TTGlyph>
    <TTGlyph name="afii10046" xMin="20" yMin="-10" xMax="538" yMax="700">
      <contour>
        <pt x="167" y="700" on="1"/>
        <pt x="297" y="700" on="1"/>
        <pt x="244" y="449" on="1"/>
        <pt x="256" y="451" on="0"/>
        <pt x="307" y="457" on="0"/>
        <pt x="329" y="457" on="1"/>
        <pt x="375" y="457" on="0"/>
        <pt x="451" y="432" on="0"/>
        <pt x="507" y="384" on="0"/>
        <pt x="538" y="314" on="0"/>
        <pt x="538" y="268" on="1"/>
        <pt x="538" y="193" on="0"/>
        <pt x="486" y="87" on="0"/>
        <pt x="396" y="21" on="0"/>
        <pt x="274" y="-10" on="0"/>
        <pt x="205" y="-10" on="1"/>
        <pt x="192" y="-10" on="0"/>
        <pt x="150" y="-9" on="0"/>
        <pt x="95" y="-5" on="0"/>
        <pt x="41" y="1" on="0"/>
        <pt x="20" y="7" on="1"/>
      </contour>
      <contour>
        <pt x="173" y="118" on="1"/>
        <pt x="184" y="116" on="0"/>
        <pt x="218" y="112" on="0"/>
        <pt x="237" y="112" on="1"/>
        <pt x="270" y="112" on="0"/>
        <pt x="329" y="127" on="0"/>
        <pt x="374" y="160" on="0"/>
        <pt x="401" y="210" on="0"/>
        <pt x="401" y="246" on="1"/>
        <pt x="401" y="296" on="0"/>
        <pt x="337" y="336" on="0"/>
        <pt x="284" y="335" on="1"/>
        <pt x="278" y="335" on="0"/>
        <pt x="258" y="333" on="0"/>
        <pt x="239" y="331" on="0"/>
        <pt x="222" y="328" on="0"/>
        <pt x="218" y="327" on="1"/>
      </contour>
    </TTGlyph>
    <TTGlyph name="afii10047" xMin="-12" yMin="-14" xMax="564" yMax="714">
      <contour>
        <pt x="176" y="410" on="1"/>
        <pt x="427" y="410" on="1"/>
        <pt x="430" y="448" on="0"/>
        <pt x="420" y="515" on="0"/>
        <pt x="387" y="564" on="0"/>
        <pt x="326" y="592" on="0"/>
        <pt x="278" y="592" on="1"/>
        <pt x="228" y="592" on="0"/>
        <pt x="158" y="569" on="0"/>
        <pt x="132" y="555" on="1"/>
        <pt x="128" y="671" on="1"/>
        <pt x="166" y="689" on="0"/>
        <pt x="255" y="714" on="0"/>
        <pt x="306" y="714" on="1"/>
        <pt x="376" y="714" on="0"/>
        <pt x="475" y="670" on="0"/>
        <pt x="536" y="596" on="0"/>
        <pt x="564" y="501" on="0"/>
        <pt x="564" y="449" on="1"/>
        <pt x="564" y="350" on="0"/>
        <pt x="516" y="180" on="0"/>
        <pt x="417" y="56" on="0"/>
        <pt x="265" y="-14" on="0"/>
        <pt x="161" y="-14" on="1"/>
        <pt x="135" y="-14" on="0"/>
        <pt x="84" y="-8" on="0"/>
        <pt x="38" y="1" on="0"/>
        <pt x="0" y="13" on="0"/>
        <pt x="-12" y="19" on="1"/>
        <pt x="48" y="138" on="1"/>
        <pt x="67" y="127" on="0"/>
        <pt x="137" y="108" on="0"/>
        <pt x="185" y="108" on="1"/>
        <pt x="229" y="108" on="0"/>
        <pt x="307" y="136" on="0"/>
        <pt x="367" y="187" on="0"/>
        <pt x="408" y="258" on="0"/>
        <pt x="416" y="300" on="1"/>
        <pt x="153" y="300" on="1"/>
      </contour>
    </TTGlyph>
    <TTGlyph name="afii10048" xMin="20" yMin="-14" xMax="875" yMax="714">
      <contour>
        <pt x="238" y="415" on="1"/>
        <pt x="323" y="415" on="1"/>
        <pt x="365" y="562" on="0"/>
        <pt x="536" y="714" on="0"/>
        <pt x="649" y="714" on="1"/>
        <pt x="758" y="714" on="0"/>
        <pt x="875" y="582" on="0"/>
        <pt x="875" y="467" on="1"/>
        <pt x="875" y="370" on="0"/>
        <pt x="828" y="195" on="0"/>
        <pt x="738" y="63" on="0"/>
        <pt x="604" y="-14" on="0"/>
        <pt x="517" y="-14" on="1"/>
        <pt x="461" y="-14" on="0"/>
        <pt x="380" y="25" on="0"/>
        <pt x="328" y="94" on="0"/>
        <pt x="303" y="186" on="0"/>
        <pt x="303" y="240" on="1"/>
        <pt x="303" y="266" on="0"/>
        <pt x="306" y="293" on="1"/>
        <pt x="212" y="293" on="1"/>
        <pt x="150" y="0" on="1"/>
        <pt x="20" y="0" on="1"/>
        <pt x="168" y="700" on="1"/>
        <pt x="298" y="700" on="1"/>
      </contour>
      <contour>
        <pt x="435" y="249" on="1"/>
        <pt x="435" y="185" on="0"/>
        <pt x="483" y="108" on="0"/>
        <pt x="541" y="108" on="1"/>
        <pt x="586" y="108" on="0"/>
        <pt x="659" y="167" on="0"/>
        <pt x="710" y="264" on="0"/>
        <pt x="738" y="391" on="0"/>
        <pt x="738" y="459" on="1"/>
        <pt x="738" y="522" on="0"/>
        <pt x="686" y="592" on="0"/>
        <pt x="632" y="592" on="1"/>
        <pt x="588" y="592" on="0"/>
        <pt x="516" y="535" on="0"/>
        <pt x="464" y="440" on="0"/>
        <pt x="435" y="316" on="0"/>
      </contour>
    </TTGlyph>
    <TTGlyph name="afii10049" xMin="-30" yMin="0" xMax="603" yMax="710">
      <contour>
        <pt x="327" y="0" on="1"/>
        <pt x="386" y="277" on="1"/>
        <pt x="316" y="259" on="1"/>
        <pt x="121" y="0" on="1"/>
        <pt x="-30" y="0" on="1"/>
        <pt x="154" y="235" on="1"/>
        <pt x="220" y="279" on="1"/>
        <pt x="202" y="287" on="0"/>
        <pt x="163" y="315" on="0"/>
        <pt x="131" y="357" on="0"/>
        <pt x="111" y="415" on="0"/>
        <pt x="111" y="454" on="1"/>
        <pt x="111" y="529" on="0"/>
        <pt x="169" y="627" on="0"/>
        <pt x="262" y="686" on="0"/>
        <pt x="381" y="710" on="0"/>
        <pt x="442" y="710" on="1"/>
        <pt x="457" y="710" on="0"/>
        <pt x="472" y="709" on="1"/>
        <pt x="473" y="709" on="0"/>
        <pt x="500" y="708" on="0"/>
        <pt x="545" y="704" on="0"/>
        <pt x="587" y="698" on="0"/>
        <pt x="603" y="693" on="1"/>
        <pt x="456" y="0" on="1"/>
      </contour>
      <contour>
        <pt x="451" y="583" on="1"/>
        <pt x="440" y="585" on="0"/>
        <pt x="416" y="588" on="0"/>
        <pt x="399" y="588" on="1"/>
        <pt x="372" y="588" on="0"/>
        <pt x="318" y="577" on="0"/>
        <pt x="275" y="549" on="0"/>
        <pt x="248" y="500" on="0"/>
        <pt x="248" y="463" on="1"/>
        <pt x="248" y="415" on="0"/>
        <pt x="307" y="366" on="0"/>
        <pt x="355" y="366" on="1"/>
        <pt x="404" y="366" on="1"/>
      </contour>
    </TTGlyph>
    <TTGlyph name="afii10050" xMin="20" yMin="0" xMax="586" yMax="852">
      <contour>
        <pt x="451" y="700" on="1"/>
        <pt x="503" y="852" on="1"/>
        <pt x="586" y="852" on="1"/>
        <pt x="528" y="578" on="1"/>
        <pt x="272" y="578" on="1"/>
        <pt x="150" y="0" on="1"/>
        <pt x="20" y="0" on="1"/>
        <pt x="168" y="700" on="1"/>
      </contour>
    </TTGlyph>
    <TTGlyph name="afii10051" xMin="96" yMin="-7" xMax="686" yMax="700">
      <contour>
        <pt x="297" y="0" on="1"/>
        <pt x="168" y="0" on="1"/>
        <pt x="290" y="578" on="1"/>
        <pt x="96" y="578" on="1"/>
        <pt x="122" y="700" on="1"/>
        <pt x="639" y="700" on="1"/>
        <pt x="614" y="578" on="1"/>
        <pt x="420" y="578" on="1"/>
        <pt x="389" y="435" on="1"/>
        <pt x="406" y="441" on="0"/>
        <pt x="462" y="457" on="0"/>
        <pt x="513" y="457" on="1"/>
        <pt x="561" y="457" on="0"/>
        <pt x="627" y="428" on="0"/>
        <pt x="668" y="377" on="0"/>
        <pt x="686" y="310" on="0"/>
        <pt x="686" y="273" on="1"/>
        <pt x="686" y="219" on="0"/>
        <pt x="654" y="118" on="0"/>
        <pt x="586" y="40" on="0"/>
        <pt x="479" y="-7" on="0"/>
        <pt x="404" y="-7" on="1"/>
        <pt x="351" y="-7" on="0"/>
        <pt x="339" y="-3" on="1"/>
        <pt x="365" y="114" on="1"/>
        <pt x="371" y="113" on="0"/>
        <pt x="400" y="111" on="0"/>
        <pt x="416" y="111" on="1"/>
        <pt x="447" y="111" on="0"/>
        <pt x="497" y="133" on="0"/>
        <pt x="531" y="171" on="0"/>
        <pt x="549" y="221" on="0"/>
        <pt x="549" y="249" on="1"/>
        <pt x="549" y="298" on="0"/>
        <pt x="501" y="335" on="0"/>
        <pt x="451" y="335" on="1"/>
        <pt x="429" y="335" on="0"/>
        <pt x="377" y="323" on="0"/>
        <pt x="364" y="317" on="1"/>
      </contour>
    </TTGlyph>
    <TTGlyph name="afii10052" xMin="20" yMin="0" xMax="576" yMax="870">
      <component glyphName="afii10020" x="0" y="0" flags="0x204"/>
      <component glyphName="uniF6C9" x="139" y="0" flags="0x4"/>
    </TTGlyph>
    <TTGlyph name="afii10053" xMin="58" yMin="-14" xMax="620" yMax="714">
      <contour>
        <pt x="498" y="29" on="1"/>
        <pt x="463" y="7" on="0"/>
        <pt x="368" y="-14" on="0"/>
        <pt x="319" y="-14" on="1"/>
        <pt x="253" y="-14" on="0"/>
        <pt x="155" y="30" on="0"/>
        <pt x="90" y="108" on="0"/>
        <pt x="58" y="212" on="0"/>
        <pt x="58" y="272" on="1"/>
        <pt x="58" y="390" on="0"/>
        <pt x="124" y="557" on="0"/>
        <pt x="232" y="664" on="0"/>
        <pt x="371" y="714" on="0"/>
        <pt x="444" y="714" on="1"/>
        <pt x="472" y="714" on="0"/>
        <pt x="525" y="709" on="0"/>
        <pt x="572" y="701" on="0"/>
        <pt x="608" y="691" on="0"/>
        <pt x="620" y="686" on="1"/>
        <pt x="569" y="570" on="1"/>
        <pt x="548" y="581" on="0"/>
        <pt x="478" y="592" on="0"/>
        <pt x="435" y="592" on="1"/>
        <pt x="358" y="592" on="0"/>
        <pt x="240" y="500" on="0"/>
        <pt x="213" y="416" on="1"/>
        <pt x="484" y="416" on="1"/>
        <pt x="460" y="303" on="1"/>
        <pt x="195" y="303" on="1"/>
        <pt x="195" y="288" on="1"/>
        <pt x="195" y="203" on="0"/>
        <pt x="280" y="108" on="0"/>
        <pt x="351" y="108" on="1"/>
        <pt x="396" y="108" on="0"/>
        <pt x="470" y="127" on="0"/>
        <pt x="495" y="141" on="1"/>
      </contour>
    </TTGlyph>
    <TTGlyph name="afii10054" xMin="-2" yMin="-14" xMax="568" yMax="714">
      <component glyphName="S" x="0" y="0" flags="0x204"/>
    </TTGlyph>
    <TTGlyph name="afii10055" xMin="35" yMin="0" xMax="312" yMax="700">
      <component glyphName="I" x="0" y="0" flags="0x204"/>
    </TTGlyph>
    <TTGlyph name="afii10055.alt" xMin="35" yMin="0" xMax="350" yMax="859">
      <component glyphName="I" x="0" y="0" flags="0x204"/>
      <component glyphName="uniF40B" x="19" y="0" flags="0x4"/>
    </TTGlyph>
    <TTGlyph name="afii10056" xMin="35" yMin="0" xMax="385" yMax="856">
      <contour>
        <pt x="183" y="700" on="1"/>
        <pt x="312" y="700" on="1"/>
        <pt x="164" y="0" on="1"/>
        <pt x="35" y="0" on="1"/>
      </contour>
      <contour>
        <pt x="139" y="792" on="1"/>
        <pt x="139" y="822" on="0"/>
        <pt x="169" y="856" on="0"/>
        <pt x="195" y="856" on="1"/>
        <pt x="220" y="856" on="0"/>
        <pt x="251" y="822" on="0"/>
        <pt x="251" y="792" on="1"/>
        <pt x="251" y="763" on="0"/>
        <pt x="220" y="730" on="0"/>
        <pt x="195" y="730" on="1"/>
        <pt x="169" y="730" on="0"/>
        <pt x="139" y="763" on="0"/>
      </contour>
      <contour>
        <pt x="272" y="792" on="1"/>
        <pt x="272" y="822" on="0"/>
        <pt x="303" y="856" on="0"/>
        <pt x="328" y="856" on="1"/>
        <pt x="353" y="856" on="0"/>
        <pt x="385" y="822" on="0"/>
        <pt x="385" y="792" on="1"/>
        <pt x="385" y="763" on="0"/>
        <pt x="353" y="730" on="0"/>
        <pt x="328" y="730" on="1"/>
        <pt x="303" y="730" on="0"/>
        <pt x="272" y="763" on="0"/>
      </contour>
    </TTGlyph>
    <TTGlyph name="afii10057" xMin="-51" yMin="-12" xMax="369" yMax="700">
      <component glyphName="J" x="0" y="0" flags="0x204"/>
    </TTGlyph>
    <TTGlyph name="afii10058" xMin="-48" yMin="-10" xMax="886" yMax="700">
      <contour>
        <pt x="489" y="578" on="1"/>
        <pt x="350" y="578" on="1"/>
        <pt x="327" y="483" on="0"/>
        <pt x="286" y="327" on="0"/>
        <pt x="245" y="203" on="0"/>
        <pt x="199" y="107" on="0"/>
        <pt x="172" y="71" on="1"/>
        <pt x="154" y="47" on="0"/>
        <pt x="115" y="17" on="0"/>
        <pt x="76" y="0" on="0"/>
        <pt x="40" y="-7" on="0"/>
        <pt x="24" y="-7" on="1"/>
        <pt x="-22" y="-7" on="0"/>
        <pt x="-48" y="7" on="1"/>
        <pt x="-9" y="125" on="1"/>
        <pt x="-4" y="123" on="0"/>
        <pt x="7" y="121" on="0"/>
        <pt x="12" y="121" on="1"/>
        <pt x="29" y="120" on="0"/>
        <pt x="64" y="138" on="0"/>
        <pt x="79" y="158" on="1"/>
        <pt x="97" y="180" on="0"/>
        <pt x="137" y="264" on="0"/>
        <pt x="180" y="396" on="0"/>
        <pt x="227" y="578" on="0"/>
        <pt x="253" y="700" on="1"/>
        <pt x="376" y="700" on="1"/>
        <pt x="515" y="700" on="1"/>
        <pt x="645" y="700" on="1"/>
        <pt x="592" y="449" on="1"/>
        <pt x="604" y="451" on="0"/>
        <pt x="655" y="457" on="0"/>
        <pt x="677" y="457" on="1"/>
        <pt x="723" y="457" on="0"/>
        <pt x="799" y="432" on="0"/>
        <pt x="855" y="384" on="0"/>
        <pt x="886" y="314" on="0"/>
        <pt x="886" y="268" on="1"/>
        <pt x="886" y="193" on="0"/>
        <pt x="834" y="87" on="0"/>
        <pt x="744" y="21" on="0"/>
        <pt x="622" y="-10" on="0"/>
        <pt x="553" y="-10" on="1"/>
        <pt x="540" y="-10" on="0"/>
        <pt x="495" y="-9" on="0"/>
        <pt x="443" y="-5" on="0"/>
        <pt x="389" y="1" on="0"/>
        <pt x="368" y="7" on="1"/>
      </contour>
      <contour>
        <pt x="521" y="118" on="1"/>
        <pt x="532" y="116" on="0"/>
        <pt x="566" y="112" on="0"/>
        <pt x="585" y="112" on="1"/>
        <pt x="618" y="112" on="0"/>
        <pt x="677" y="127" on="0"/>
        <pt x="722" y="160" on="0"/>
        <pt x="749" y="210" on="0"/>
        <pt x="749" y="246" on="1"/>
        <pt x="749" y="296" on="0"/>
        <pt x="685" y="335" on="0"/>
        <pt x="632" y="335" on="1"/>
        <pt x="626" y="335" on="0"/>
        <pt x="606" y="333" on="0"/>
        <pt x="587" y="331" on="0"/>
        <pt x="570" y="328" on="0"/>
        <pt x="566" y="327" on="1"/>
      </contour>
    </TTGlyph>
    <TTGlyph name="afii10059" xMin="20" yMin="-10" xMax="912" yMax="700">
      <contour>
        <pt x="458" y="305" on="1"/>
        <pt x="215" y="305" on="1"/>
        <pt x="150" y="0" on="1"/>
        <pt x="20" y="0" on="1"/>
        <pt x="168" y="700" on="1"/>
        <pt x="298" y="700" on="1"/>
        <pt x="240" y="427" on="1"/>
        <pt x="483" y="427" on="1"/>
        <pt x="541" y="700" on="1"/>
        <pt x="671" y="700" on="1"/>
        <pt x="615" y="434" on="1"/>
        <pt x="621" y="435" on="0"/>
        <pt x="642" y="438" on="0"/>
        <pt x="667" y="441" on="0"/>
        <pt x="694" y="442" on="0"/>
        <pt x="705" y="442" on="1"/>
        <pt x="799" y="442" on="0"/>
        <pt x="912" y="346" on="0"/>
        <pt x="912" y="254" on="1"/>
        <pt x="912" y="193" on="0"/>
        <pt x="871" y="95" on="0"/>
        <pt x="789" y="27" on="0"/>
        <pt x="664" y="-10" on="0"/>
        <pt x="579" y="-10" on="1"/>
        <pt x="566" y="-10" on="0"/>
        <pt x="524" y="-9" on="0"/>
        <pt x="468" y="-6" on="0"/>
        <pt x="415" y="-1" on="0"/>
        <pt x="394" y="3" on="1"/>
      </contour>
      <contour>
        <pt x="548" y="118" on="1"/>
        <pt x="558" y="115" on="0"/>
        <pt x="594" y="112" on="0"/>
        <pt x="613" y="112" on="1"/>
        <pt x="696" y="112" on="0"/>
        <pt x="775" y="176" on="0"/>
        <pt x="775" y="238" on="1"/>
        <pt x="775" y="285" on="0"/>
        <pt x="715" y="320" on="0"/>
        <pt x="658" y="320" on="1"/>
        <pt x="651" y="320" on="0"/>
        <pt x="631" y="318" on="0"/>
        <pt x="611" y="316" on="0"/>
        <pt x="593" y="312" on="0"/>
        <pt x="589" y="311" on="1"/>
      </contour>
    </TTGlyph>
    <TTGlyph name="afii10060" xMin="96" yMin="0" xMax="696" yMax="700">
      <contour>
        <pt x="297" y="0" on="1"/>
        <pt x="168" y="0" on="1"/>
        <pt x="290" y="578" on="1"/>
        <pt x="96" y="578" on="1"/>
        <pt x="122" y="700" on="1"/>
        <pt x="639" y="700" on="1"/>
        <pt x="614" y="578" on="1"/>
        <pt x="419" y="578" on="1"/>
        <pt x="382" y="401" on="1"/>
        <pt x="410" y="417" on="0"/>
        <pt x="483" y="442" on="0"/>
        <pt x="536" y="442" on="1"/>
        <pt x="569" y="442" on="0"/>
        <pt x="627" y="425" on="0"/>
        <pt x="670" y="387" on="0"/>
        <pt x="696" y="329" on="0"/>
        <pt x="696" y="288" on="1"/>
        <pt x="696" y="274" on="0"/>
        <pt x="693" y="241" on="0"/>
        <pt x="689" y="224" on="1"/>
        <pt x="642" y="0" on="1"/>
        <pt x="512" y="0" on="1"/>
        <pt x="556" y="202" on="1"/>
        <pt x="558" y="214" on="0"/>
        <pt x="561" y="235" on="0"/>
        <pt x="561" y="245" on="1"/>
        <pt x="561" y="324" on="0"/>
        <pt x="479" y="324" on="1"/>
        <pt x="443" y="324" on="0"/>
        <pt x="384" y="305" on="0"/>
        <pt x="359" y="290" on="1"/>
      </contour>
    </TTGlyph>
    <TTGlyph name="afii10061" xMin="20" yMin="0" xMax="656" yMax="870">
      <component glyphName="K" x="0" y="0" flags="0x204"/>
      <component glyphName="uniF6C9" x="164" y="0" flags="0x4"/>
    </TTGlyph>
    <TTGlyph name="afii10062" xMin="52" yMin="-7" xMax="663" yMax="874">
      <component glyphName="afii10037" x="0" y="0" flags="0x204"/>
      <component glyphName="uniF6D1" x="73" y="0" flags="0x4"/>
    </TTGlyph>
    <TTGlyph name="afii10065" xMin="33" yMin="-14" xMax="506" yMax="514">
      <component glyphName="a" x="0" y="0" flags="0x204"/>
    </TTGlyph>
    <TTGlyph name="afii10066" xMin="42" yMin="-14" xMax="550" yMax="727">
      <contour>
        <pt x="176" y="392" on="1"/>
        <pt x="248" y="489" on="0"/>
        <pt x="356" y="489" on="1"/>
        <pt x="395" y="489" on="0"/>
        <pt x="449" y="466" on="0"/>
        <pt x="483" y="425" on="0"/>
        <pt x="498" y="368" on="0"/>
        <pt x="498" y="334" on="1"/>
        <pt x="498" y="254" on="0"/>
        <pt x="455" y="125" on="0"/>
        <pt x="380" y="35" on="0"/>
        <pt x="281" y="-14" on="0"/>
        <pt x="226" y="-14" on="1"/>
        <pt x="179" y="-14" on="0"/>
        <pt x="110" y="15" on="0"/>
        <pt x="65" y="66" on="0"/>
        <pt x="42" y="138" on="0"/>
        <pt x="42" y="181" on="1"/>
        <pt x="42" y="286" on="0"/>
        <pt x="88" y="468" on="0"/>
        <pt x="168" y="604" on="0"/>
        <pt x="278" y="686" on="0"/>
        <pt x="343" y="691" on="1"/>
        <pt x="425" y="698" on="0"/>
        <pt x="529" y="710" on="0"/>
        <pt x="550" y="727" on="1"/>
        <pt x="537" y="612" on="1"/>
        <pt x="517" y="598" on="0"/>
        <pt x="439" y="583" on="0"/>
        <pt x="370" y="578" on="1"/>
        <pt x="337" y="575" on="0"/>
        <pt x="279" y="560" on="0"/>
        <pt x="229" y="520" on="0"/>
        <pt x="187" y="450" on="0"/>
        <pt x="171" y="392" on="1"/>
      </contour>
      <contour>
        <pt x="169" y="184" on="1"/>
        <pt x="169" y="165" on="0"/>
        <pt x="175" y="130" on="0"/>
        <pt x="190" y="104" on="0"/>
        <pt x="218" y="89" on="0"/>
        <pt x="239" y="89" on="1"/>
        <pt x="263" y="89" on="0"/>
        <pt x="310" y="121" on="0"/>
        <pt x="348" y="178" on="0"/>
        <pt x="371" y="257" on="0"/>
        <pt x="371" y="305" on="1"/>
        <pt x="371" y="320" on="0"/>
        <pt x="364" y="349" on="0"/>
        <pt x="348" y="372" on="0"/>
        <pt x="322" y="386" on="0"/>
        <pt x="303" y="386" on="1"/>
        <pt x="276" y="386" on="0"/>
        <pt x="227" y="355" on="0"/>
        <pt x="191" y="301" on="0"/>
        <pt x="169" y="227" on="0"/>
      </contour>
    </TTGlyph>
    <TTGlyph name="afii10067" xMin="33" yMin="-8" xMax="462" yMax="508">
      <contour>
        <pt x="54" y="288" on="1"/>
        <pt x="65" y="336" on="0"/>
        <pt x="109" y="417" on="0"/>
        <pt x="173" y="476" on="0"/>
        <pt x="256" y="508" on="0"/>
        <pt x="305" y="508" on="1"/>
        <pt x="349" y="508" on="0"/>
        <pt x="409" y="494" on="0"/>
        <pt x="446" y="467" on="0"/>
        <pt x="462" y="429" on="0"/>
        <pt x="462" y="404" on="1"/>
        <pt x="462" y="380" on="0"/>
        <pt x="444" y="337" on="0"/>
        <pt x="414" y="301" on="0"/>
        <pt x="372" y="273" on="0"/>
        <pt x="348" y="266" on="1"/>
        <pt x="347" y="262" on="1"/>
        <pt x="388" y="257" on="0"/>
        <pt x="432" y="218" on="0"/>
        <pt x="432" y="176" on="1"/>
        <pt x="432" y="132" on="0"/>
        <pt x="396" y="64" on="0"/>
        <pt x="333" y="17" on="0"/>
        <pt x="247" y="-8" on="0"/>
        <pt x="197" y="-8" on="1"/>
        <pt x="161" y="-8" on="0"/>
        <pt x="101" y="10" on="0"/>
        <pt x="57" y="48" on="0"/>
        <pt x="33" y="108" on="0"/>
        <pt x="33" y="151" on="1"/>
        <pt x="33" y="171" on="0"/>
        <pt x="39" y="214" on="0"/>
        <pt x="44" y="239" on="1"/>
      </contour>
      <contour>
        <pt x="154" y="197" on="1"/>
        <pt x="150" y="178" on="0"/>
        <pt x="150" y="159" on="1"/>
        <pt x="150" y="92" on="0"/>
        <pt x="217" y="92" on="1"/>
        <pt x="255" y="92" on="0"/>
        <pt x="308" y="132" on="0"/>
        <pt x="308" y="169" on="1"/>
        <pt x="308" y="191" on="0"/>
        <pt x="272" y="220" on="0"/>
        <pt x="226" y="216" on="1"/>
        <pt x="157" y="211" on="1"/>
      </contour>
      <contour>
        <pt x="246" y="296" on="1"/>
        <pt x="258" y="297" on="0"/>
        <pt x="289" y="307" on="0"/>
        <pt x="316" y="324" on="0"/>
        <pt x="335" y="349" on="0"/>
        <pt x="335" y="366" on="1"/>
        <pt x="335" y="386" on="0"/>
        <pt x="317" y="408" on="0"/>
        <pt x="285" y="408" on="1"/>
        <pt x="204" y="408" on="0"/>
        <pt x="179" y="316" on="1"/>
        <pt x="171" y="288" on="1"/>
      </contour>
    </TTGlyph>
    <TTGlyph name="afii10068" xMin="13" yMin="-14" xMax="401" yMax="509">
      <contour>
        <pt x="351" y="40" on="1"/>
        <pt x="319" y="16" on="0"/>
        <pt x="230" y="-14" on="0"/>
        <pt x="188" y="-14" on="1"/>
        <pt x="140" y="-14" on="0"/>
        <pt x="74" y="9" on="0"/>
        <pt x="32" y="48" on="0"/>
        <pt x="13" y="97" on="0"/>
        <pt x="13" y="123" on="1"/>
        <pt x="13" y="170" on="0"/>
        <pt x="52" y="231" on="0"/>
        <pt x="110" y="270" on="0"/>
        <pt x="177" y="294" on="0"/>
        <pt x="235" y="316" on="0"/>
        <pt x="274" y="342" on="0"/>
        <pt x="274" y="364" on="1"/>
        <pt x="274" y="387" on="0"/>
        <pt x="248" y="406" on="0"/>
        <pt x="219" y="406" on="1"/>
        <pt x="174" y="406" on="0"/>
        <pt x="116" y="389" on="0"/>
        <pt x="95" y="379" on="1"/>
        <pt x="80" y="472" on="1"/>
        <pt x="96" y="481" on="0"/>
        <pt x="139" y="494" on="0"/>
        <pt x="187" y="504" on="0"/>
        <pt x="236" y="509" on="0"/>
        <pt x="257" y="509" on="1"/>
        <pt x="297" y="509" on="0"/>
        <pt x="352" y="491" on="0"/>
        <pt x="386" y="460" on="0"/>
        <pt x="401" y="418" on="0"/>
        <pt x="401" y="394" on="1"/>
        <pt x="401" y="345" on="0"/>
        <pt x="362" y="284" on="0"/>
        <pt x="304" y="244" on="0"/>
        <pt x="237" y="220" on="0"/>
        <pt x="179" y="197" on="0"/>
        <pt x="140" y="167" on="0"/>
        <pt x="140" y="143" on="1"/>
        <pt x="140" y="117" on="0"/>
        <pt x="178" y="89" on="0"/>
        <pt x="207" y="89" on="1"/>
        <pt x="241" y="89" on="0"/>
        <pt x="304" y="107" on="0"/>
        <pt x="324" y="120" on="1"/>
      </contour>
    </TTGlyph>
    <TTGlyph name="afii10069" xMin="37" yMin="-14" xMax="493" yMax="718">
      <contour>
        <pt x="293" y="500" on="1"/>
        <pt x="320" y="500" on="0"/>
        <pt x="352" y="490" on="0"/>
        <pt x="364" y="482" on="1"/>
        <pt x="369" y="482" on="1"/>
        <pt x="363" y="554" on="0"/>
        <pt x="262" y="624" on="0"/>
        <pt x="183" y="623" on="1"/>
        <pt x="203" y="714" on="1"/>
        <pt x="351" y="718" on="0"/>
        <pt x="493" y="565" on="0"/>
        <pt x="493" y="421" on="1"/>
        <pt x="493" y="311" on="0"/>
        <pt x="447" y="148" on="0"/>
        <pt x="369" y="40" on="0"/>
        <pt x="269" y="-14" on="0"/>
        <pt x="215" y="-14" on="1"/>
        <pt x="124" y="-14" on="0"/>
        <pt x="37" y="95" on="0"/>
        <pt x="37" y="186" on="1"/>
        <pt x="37" y="249" on="0"/>
        <pt x="74" y="362" on="0"/>
        <pt x="142" y="449" on="0"/>
        <pt x="236" y="500" on="0"/>
      </contour>
      <contour>
        <pt x="366" y="373" on="1"/>
        <pt x="352" y="385" on="0"/>
        <pt x="321" y="397" on="0"/>
        <pt x="297" y="397" on="1"/>
        <pt x="271" y="397" on="0"/>
        <pt x="223" y="368" on="0"/>
        <pt x="186" y="313" on="0"/>
        <pt x="164" y="234" on="0"/>
        <pt x="164" y="184" on="1"/>
        <pt x="164" y="146" on="0"/>
        <pt x="195" y="89" on="0"/>
        <pt x="228" y="89" on="1"/>
        <pt x="265" y="89" on="0"/>
        <pt x="317" y="144" on="0"/>
        <pt x="350" y="228" on="0"/>
        <pt x="366" y="328" on="0"/>
      </contour>
    </TTGlyph>
    <TTGlyph name="afii10070" xMin="34" yMin="-14" xMax="474" yMax="514">
      <component glyphName="e" x="0" y="0" flags="0x204"/>
    </TTGlyph>
    <TTGlyph name="afii10071" xMin="34" yMin="-14" xMax="510" yMax="702">
      <component glyphName="e" x="0" y="0" flags="0x204"/>
      <component glyphName="dieresis" x="7" y="-19" flags="0x4"/>
    </TTGlyph>
    <TTGlyph name="afii10072" xMin="-25" yMin="-5" xMax="782" yMax="504">
      <contour>
        <pt x="249" y="206" on="1"/>
        <pt x="234" y="149" on="0"/>
        <pt x="191" y="68" on="0"/>
        <pt x="140" y="18" on="0"/>
        <pt x="83" y="-5" on="0"/>
        <pt x="53" y="-5" on="1"/>
        <pt x="33" y="-5" on="0"/>
        <pt x="-5" y="5" on="0"/>
        <pt x="-25" y="13" on="1"/>
        <pt x="8" y="113" on="1"/>
        <pt x="26" y="108" on="0"/>
        <pt x="40" y="108" on="1"/>
        <pt x="77" y="108" on="0"/>
        <pt x="133" y="176" on="0"/>
        <pt x="149" y="257" on="1"/>
        <pt x="153" y="277" on="0"/>
        <pt x="155" y="309" on="0"/>
        <pt x="155" y="323" on="1"/>
        <pt x="155" y="374" on="0"/>
        <pt x="114" y="407" on="0"/>
        <pt x="79" y="401" on="1"/>
        <pt x="67" y="490" on="1"/>
        <pt x="112" y="502" on="0"/>
        <pt x="147" y="502" on="1"/>
        <pt x="207" y="502" on="0"/>
        <pt x="269" y="432" on="0"/>
        <pt x="269" y="357" on="1"/>
        <pt x="269" y="343" on="0"/>
        <pt x="267" y="314" on="0"/>
        <pt x="265" y="297" on="1"/>
        <pt x="341" y="297" on="1"/>
        <pt x="384" y="500" on="1"/>
        <pt x="502" y="500" on="1"/>
        <pt x="458" y="297" on="1"/>
        <pt x="528" y="297" on="1"/>
        <pt x="542" y="355" on="0"/>
        <pt x="583" y="434" on="0"/>
        <pt x="633" y="483" on="0"/>
        <pt x="689" y="504" on="0"/>
        <pt x="717" y="504" on="1"/>
        <pt x="748" y="504" on="0"/>
        <pt x="782" y="491" on="1"/>
        <pt x="756" y="401" on="1"/>
        <pt x="745" y="404" on="0"/>
        <pt x="735" y="404" on="1"/>
        <pt x="704" y="404" on="0"/>
        <pt x="650" y="345" on="0"/>
        <pt x="633" y="268" on="1"/>
        <pt x="624" y="229" on="0"/>
        <pt x="624" y="196" on="1"/>
        <pt x="624" y="170" on="0"/>
        <pt x="634" y="130" on="0"/>
        <pt x="655" y="104" on="0"/>
        <pt x="685" y="96" on="0"/>
        <pt x="705" y="103" on="1"/>
        <pt x="717" y="13" on="1"/>
        <pt x="670" y="-3" on="0"/>
        <pt x="635" y="-3" on="1"/>
        <pt x="601" y="-3" on="0"/>
        <pt x="553" y="24" on="0"/>
        <pt x="523" y="70" on="0"/>
        <pt x="510" y="133" on="0"/>
        <pt x="510" y="168" on="1"/>
        <pt x="510" y="178" on="0"/>
        <pt x="511" y="196" on="0"/>
        <pt x="512" y="206" on="1"/>
        <pt x="439" y="206" on="1"/>
        <pt x="396" y="0" on="1"/>
        <pt x="278" y="0" on="1"/>
        <pt x="322" y="206" on="1"/>
      </contour>
    </TTGlyph>
    <TTGlyph name="afii10072_afii10077" xMin="-25" yMin="-8" xMax="1234" yMax="504">
      <contour>
        <pt x="528" y="298" on="1"/>
        <pt x="542" y="356" on="0"/>
        <pt x="583" y="435" on="0"/>
        <pt x="633" y="483" on="0"/>
        <pt x="689" y="504" on="0"/>
        <pt x="717" y="504" on="1"/>
        <pt x="748" y="504" on="0"/>
        <pt x="782" y="491" on="1"/>
        <pt x="756" y="400" on="1"/>
        <pt x="738" y="404" on="0"/>
        <pt x="702" y="398" on="0"/>
        <pt x="670" y="369" on="0"/>
        <pt x="642" y="313" on="0"/>
        <pt x="633" y="268" on="1"/>
        <pt x="628" y="244" on="0"/>
        <pt x="623" y="201" on="0"/>
        <pt x="623" y="184" on="1"/>
        <pt x="623" y="139" on="0"/>
        <pt x="658" y="95" on="0"/>
        <pt x="696" y="95" on="1"/>
        <pt x="719" y="95" on="0"/>
        <pt x="767" y="120" on="0"/>
        <pt x="820" y="204" on="0"/>
        <pt x="878" y="364" on="0"/>
        <pt x="911" y="500" on="1"/>
        <pt x="1234" y="500" on="1"/>
        <pt x="1128" y="0" on="1"/>
        <pt x="1005" y="0" on="1"/>
        <pt x="1090" y="397" on="1"/>
        <pt x="998" y="397" on="1"/>
        <pt x="968" y="291" on="0"/>
        <pt x="914" y="137" on="0"/>
        <pt x="844" y="38" on="0"/>
        <pt x="747" y="-8" on="0"/>
        <pt x="675" y="-8" on="1"/>
        <pt x="588" y="-8" on="0"/>
        <pt x="510" y="83" on="0"/>
        <pt x="510" y="167" on="1"/>
        <pt x="510" y="177" on="0"/>
        <pt x="511" y="196" on="0"/>
        <pt x="512" y="207" on="1"/>
        <pt x="439" y="207" on="1"/>
        <pt x="396" y="0" on="1"/>
        <pt x="278" y="0" on="1"/>
        <pt x="322" y="207" on="1"/>
        <pt x="249" y="207" on="1"/>
        <pt x="234" y="150" on="0"/>
        <pt x="191" y="69" on="0"/>
        <pt x="140" y="18" on="0"/>
        <pt x="83" y="-5" on="0"/>
        <pt x="53" y="-5" on="1"/>
        <pt x="33" y="-5" on="0"/>
        <pt x="-5" y="5" on="0"/>
        <pt x="-25" y="13" on="1"/>
        <pt x="8" y="113" on="1"/>
        <pt x="26" y="108" on="0"/>
        <pt x="40" y="108" on="1"/>
        <pt x="77" y="108" on="0"/>
        <pt x="133" y="176" on="0"/>
        <pt x="149" y="257" on="1"/>
        <pt x="153" y="277" on="0"/>
        <pt x="156" y="309" on="0"/>
        <pt x="156" y="323" on="1"/>
        <pt x="156" y="374" on="0"/>
        <pt x="114" y="407" on="0"/>
        <pt x="79" y="401" on="1"/>
        <pt x="67" y="490" on="1"/>
        <pt x="112" y="502" on="0"/>
        <pt x="147" y="502" on="1"/>
        <pt x="207" y="502" on="0"/>
        <pt x="269" y="432" on="0"/>
        <pt x="269" y="357" on="1"/>
        <pt x="269" y="343" on="0"/>
        <pt x="267" y="315" on="0"/>
        <pt x="265" y="298" on="1"/>
        <pt x="341" y="298" on="1"/>
        <pt x="384" y="500" on="1"/>
        <pt x="502" y="500" on="1"/>
        <pt x="458" y="298" on="1"/>
      </contour>
    </TTGlyph>
    <TTGlyph name="afii10073" xMin="-20" yMin="-11" xMax="398" yMax="509">
      <contour>
        <pt x="100" y="208" on="1"/>
        <pt x="119" y="297" on="1"/>
        <pt x="177" y="297" on="1"/>
        <pt x="193" y="297" on="0"/>
        <pt x="226" y="307" on="0"/>
        <pt x="251" y="325" on="0"/>
        <pt x="267" y="349" on="0"/>
        <pt x="267" y="363" on="1"/>
        <pt x="267" y="387" on="0"/>
        <pt x="236" y="407" on="0"/>
        <pt x="198" y="407" on="1"/>
        <pt x="165" y="407" on="0"/>
        <pt x="119" y="395" on="0"/>
        <pt x="94" y="384" on="1"/>
        <pt x="73" y="475" on="1"/>
        <pt x="89" y="484" on="0"/>
        <pt x="131" y="496" on="0"/>
        <pt x="178" y="505" on="0"/>
        <pt x="227" y="509" on="0"/>
        <pt x="250" y="509" on="1"/>
        <pt x="330" y="509" on="0"/>
        <pt x="398" y="452" on="0"/>
        <pt x="397" y="402" on="1"/>
        <pt x="397" y="378" on="0"/>
        <pt x="381" y="335" on="0"/>
        <pt x="353" y="301" on="0"/>
        <pt x="316" y="275" on="0"/>
        <pt x="295" y="268" on="1"/>
        <pt x="295" y="264" on="1"/>
        <pt x="336" y="254" on="0"/>
        <pt x="367" y="203" on="0"/>
        <pt x="367" y="172" on="1"/>
        <pt x="367" y="129" on="0"/>
        <pt x="331" y="61" on="0"/>
        <pt x="267" y="14" on="0"/>
        <pt x="180" y="-11" on="0"/>
        <pt x="129" y="-11" on="1"/>
        <pt x="81" y="-11" on="0"/>
        <pt x="2" y="13" on="0"/>
        <pt x="-20" y="29" on="1"/>
        <pt x="26" y="123" on="1"/>
        <pt x="46" y="110" on="0"/>
        <pt x="105" y="91" on="0"/>
        <pt x="142" y="91" on="1"/>
        <pt x="189" y="91" on="0"/>
        <pt x="241" y="134" on="0"/>
        <pt x="241" y="167" on="1"/>
        <pt x="241" y="189" on="0"/>
        <pt x="203" y="208" on="0"/>
        <pt x="146" y="208" on="1"/>
      </contour>
    </TTGlyph>
    <TTGlyph name="afii10074" xMin="39" yMin="-14" xMax="513" yMax="500">
      <component glyphName="u" x="0" y="0" flags="0x204"/>
    </TTGlyph>
    <TTGlyph name="afii10075" xMin="39" yMin="-14" xMax="513" yMax="704">
      <component glyphName="u" x="0" y="0" flags="0x204"/>
      <component glyphName="uniF6D4" x="-1" y="0" flags="0x4"/>
    </TTGlyph>
    <TTGlyph name="afii10076" xMin="15" yMin="0" xMax="508" yMax="500">
      <contour>
        <pt x="225" y="207" on="1"/>
        <pt x="181" y="207" on="1"/>
        <pt x="138" y="0" on="1"/>
        <pt x="15" y="0" on="1"/>
        <pt x="121" y="500" on="1"/>
        <pt x="244" y="500" on="1"/>
        <pt x="198" y="287" on="1"/>
        <pt x="234" y="300" on="1"/>
        <pt x="373" y="500" on="1"/>
        <pt x="508" y="500" on="1"/>
        <pt x="362" y="310" on="1"/>
        <pt x="304" y="272" on="1"/>
        <pt x="350" y="233" on="1"/>
        <pt x="429" y="0" on="1"/>
        <pt x="298" y="0" on="1"/>
      </contour>
    </TTGlyph>
    <TTGlyph name="afii10077" xMin="-47" yMin="-6" xMax="507" yMax="500">
      <contour>
        <pt x="363" y="397" on="1"/>
        <pt x="271" y="397" on="1"/>
        <pt x="246" y="304" on="0"/>
        <pt x="199" y="155" on="0"/>
        <pt x="143" y="50" on="0"/>
        <pt x="74" y="-6" on="0"/>
        <pt x="28" y="-6" on="1"/>
        <pt x="-26" y="-6" on="0"/>
        <pt x="-47" y="9" on="1"/>
        <pt x="-9" y="117" on="1"/>
        <pt x="8" y="112" on="0"/>
        <pt x="20" y="112" on="1"/>
        <pt x="40" y="113" on="0"/>
        <pt x="75" y="147" on="0"/>
        <pt x="113" y="234" on="0"/>
        <pt x="156" y="384" on="0"/>
        <pt x="184" y="500" on="1"/>
        <pt x="507" y="500" on="1"/>
        <pt x="401" y="0" on="1"/>
        <pt x="278" y="0" on="1"/>
      </contour>
    </TTGlyph>
    <TTGlyph name="afii10078" xMin="15" yMin="0" xMax="646" yMax="500">
      <contour>
        <pt x="470" y="229" on="1"/>
        <pt x="500" y="333" on="1"/>
        <pt x="495" y="333" on="1"/>
        <pt x="439" y="247" on="1"/>
        <pt x="316" y="92" on="1"/>
        <pt x="271" y="92" on="1"/>
        <pt x="207" y="247" on="1"/>
        <pt x="189" y="333" on="1"/>
        <pt x="183" y="333" on="1"/>
        <pt x="174" y="230" on="1"/>
        <pt x="126" y="0" on="1"/>
        <pt x="15" y="0" on="1"/>
        <pt x="121" y="500" on="1"/>
        <pt x="243" y="500" on="1"/>
        <pt x="310" y="312" on="1"/>
        <pt x="325" y="249" on="1"/>
        <pt x="328" y="249" on="1"/>
        <pt x="369" y="314" on="1"/>
        <pt x="510" y="500" on="1"/>
        <pt x="646" y="500" on="1"/>
        <pt x="540" y="0" on="1"/>
        <pt x="422" y="0" on="1"/>
      </contour>
    </TTGlyph>
    <TTGlyph name="afii10079" xMin="15" yMin="0" xMax="523" yMax="500">
      <contour>
        <pt x="335" y="195" on="1"/>
        <pt x="179" y="195" on="1"/>
        <pt x="138" y="0" on="1"/>
        <pt x="15" y="0" on="1"/>
        <pt x="121" y="500" on="1"/>
        <pt x="244" y="500" on="1"/>
        <pt x="203" y="313" on="1"/>
        <pt x="359" y="313" on="1"/>
        <pt x="399" y="500" on="1"/>
        <pt x="523" y="500" on="1"/>
        <pt x="417" y="0" on="1"/>
        <pt x="293" y="0" on="1"/>
      </contour>
    </TTGlyph>
    <TTGlyph name="afii10080" xMin="34" yMin="-14" xMax="480" yMax="514">
      <component glyphName="o" x="0" y="0" flags="0x204"/>
    </TTGlyph>
    <TTGlyph name="afii10081" xMin="14" yMin="0" xMax="498" yMax="514">
      <component glyphName="n" x="-4" y="0" flags="0x204"/>
    </TTGlyph>
    <TTGlyph name="afii10082" xMin="-26" yMin="-200" xMax="498" yMax="514">
      <component glyphName="p" x="0" y="0" flags="0x204"/>
    </TTGlyph>
    <TTGlyph name="afii10083" xMin="34" yMin="-14" xMax="439" yMax="514">
      <component glyphName="c" x="0" y="0" flags="0x204"/>
    </TTGlyph>
    <TTGlyph name="afii10084" xMin="18" yMin="0" xMax="749" yMax="514">
      <component glyphName="m" x="0" y="0" flags="0x204"/>
    </TTGlyph>
    <TTGlyph name="afii10085" xMin="-17" yMin="-205" xMax="517" yMax="500">
      <component glyphName="y" x="0" y="0" flags="0x204"/>
    </TTGlyph>
    <TTGlyph name="afii10086" xMin="29" yMin="-200" xMax="678" yMax="700">
      <contour>
        <pt x="237" y="-6" on="1"/>
        <pt x="221" y="-11" on="0"/>
        <pt x="193" y="-14" on="0"/>
        <pt x="181" y="-14" on="1"/>
        <pt x="104" y="-14" on="0"/>
        <pt x="29" y="76" on="0"/>
        <pt x="29" y="149" on="1"/>
        <pt x="29" y="238" on="0"/>
        <pt x="75" y="373" on="0"/>
        <pt x="151" y="464" on="0"/>
        <pt x="249" y="510" on="0"/>
        <pt x="301" y="510" on="1"/>
        <pt x="327" y="510" on="0"/>
        <pt x="346" y="506" on="1"/>
        <pt x="387" y="700" on="1"/>
        <pt x="508" y="700" on="1"/>
        <pt x="467" y="505" on="1"/>
        <pt x="484" y="508" on="0"/>
        <pt x="511" y="510" on="0"/>
        <pt x="524" y="510" on="1"/>
        <pt x="603" y="510" on="0"/>
        <pt x="678" y="423" on="0"/>
        <pt x="678" y="351" on="1"/>
        <pt x="678" y="258" on="0"/>
        <pt x="630" y="120" on="0"/>
        <pt x="553" y="30" on="0"/>
        <pt x="457" y="-14" on="0"/>
        <pt x="409" y="-14" on="1"/>
        <pt x="400" y="-14" on="0"/>
        <pt x="368" y="-11" on="0"/>
        <pt x="358" y="-7" on="1"/>
        <pt x="317" y="-200" on="1"/>
        <pt x="196" y="-200" on="1"/>
      </contour>
      <contour>
        <pt x="374" y="90" on="1"/>
        <pt x="381" y="88" on="0"/>
        <pt x="399" y="86" on="0"/>
        <pt x="409" y="86" on="1"/>
        <pt x="434" y="86" on="0"/>
        <pt x="486" y="119" on="0"/>
        <pt x="528" y="182" on="0"/>
        <pt x="554" y="275" on="0"/>
        <pt x="554" y="334" on="1"/>
        <pt x="554" y="371" on="0"/>
        <pt x="517" y="410" on="0"/>
        <pt x="475" y="410" on="1"/>
        <pt x="465" y="410" on="0"/>
        <pt x="452" y="407" on="0"/>
        <pt x="441" y="404" on="1"/>
      </contour>
      <contour>
        <pt x="330" y="405" on="1"/>
        <pt x="321" y="407" on="0"/>
        <pt x="304" y="410" on="0"/>
        <pt x="293" y="410" on="1"/>
        <pt x="270" y="410" on="0"/>
        <pt x="221" y="376" on="0"/>
        <pt x="180" y="313" on="0"/>
        <pt x="153" y="226" on="0"/>
        <pt x="153" y="174" on="1"/>
        <pt x="153" y="132" on="0"/>
        <pt x="190" y="86" on="0"/>
        <pt x="225" y="86" on="1"/>
        <pt x="235" y="86" on="0"/>
        <pt x="252" y="89" on="0"/>
        <pt x="263" y="92" on="1"/>
      </contour>
    </TTGlyph>
    <TTGlyph name="afii10087" xMin="-41" yMin="0" xMax="540" yMax="500">
      <component glyphName="x" x="0" y="0" flags="0x204"/>
    </TTGlyph>
    <TTGlyph name="afii10088" xMin="39" yMin="-114" xMax="521" yMax="500">
      <contour>
        <pt x="396" y="0" on="1"/>
        <pt x="353" y="0" on="0"/>
        <pt x="316" y="47" on="0"/>
        <pt x="324" y="90" on="1"/>
        <pt x="320" y="90" on="1"/>
        <pt x="309" y="73" on="0"/>
        <pt x="274" y="36" on="0"/>
        <pt x="229" y="6" on="0"/>
        <pt x="174" y="-14" on="0"/>
        <pt x="144" y="-14" on="1"/>
        <pt x="97" y="-14" on="0"/>
        <pt x="39" y="33" on="0"/>
        <pt x="39" y="96" on="1"/>
        <pt x="39" y="133" on="0"/>
        <pt x="49" y="177" on="1"/>
        <pt x="118" y="500" on="1"/>
        <pt x="241" y="500" on="1"/>
        <pt x="176" y="192" on="1"/>
        <pt x="170" y="162" on="0"/>
        <pt x="170" y="141" on="1"/>
        <pt x="170" y="121" on="0"/>
        <pt x="186" y="99" on="0"/>
        <pt x="206" y="99" on="1"/>
        <pt x="223" y="99" on="0"/>
        <pt x="258" y="116" on="0"/>
        <pt x="290" y="143" on="0"/>
        <pt x="317" y="176" on="0"/>
        <pt x="326" y="192" on="1"/>
        <pt x="390" y="500" on="1"/>
        <pt x="513" y="500" on="1"/>
        <pt x="445" y="179" on="1"/>
        <pt x="439" y="150" on="0"/>
        <pt x="439" y="133" on="1"/>
        <pt x="439" y="116" on="0"/>
        <pt x="453" y="102" on="0"/>
        <pt x="471" y="102" on="1"/>
        <pt x="521" y="102" on="1"/>
        <pt x="460" y="-114" on="1"/>
        <pt x="365" y="-114" on="1"/>
      </contour>
    </TTGlyph>
    <TTGlyph name="afii10089" xMin="53" yMin="0" xMax="490" yMax="500">
      <contour>
        <pt x="219" y="500" on="1"/>
        <pt x="195" y="386" on="1"/>
        <pt x="190" y="365" on="0"/>
        <pt x="185" y="331" on="0"/>
        <pt x="185" y="317" on="1"/>
        <pt x="185" y="289" on="0"/>
        <pt x="208" y="261" on="0"/>
        <pt x="235" y="261" on="1"/>
        <pt x="264" y="261" on="0"/>
        <pt x="307" y="279" on="0"/>
        <pt x="321" y="290" on="1"/>
        <pt x="367" y="500" on="1"/>
        <pt x="490" y="500" on="1"/>
        <pt x="384" y="0" on="1"/>
        <pt x="261" y="0" on="1"/>
        <pt x="302" y="196" on="1"/>
        <pt x="285" y="185" on="0"/>
        <pt x="222" y="158" on="0"/>
        <pt x="174" y="158" on="1"/>
        <pt x="148" y="158" on="0"/>
        <pt x="104" y="169" on="0"/>
        <pt x="71" y="195" on="0"/>
        <pt x="53" y="237" on="0"/>
        <pt x="53" y="269" on="1"/>
        <pt x="53" y="298" on="0"/>
        <pt x="60" y="330" on="1"/>
        <pt x="96" y="500" on="1"/>
      </contour>
    </TTGlyph>
    <TTGlyph name="afii10090" xMin="39" yMin="-10" xMax="750" yMax="500">
      <contour>
        <pt x="495" y="500" on="1"/>
        <pt x="437" y="228" on="1"/>
        <pt x="425" y="172" on="0"/>
        <pt x="425" y="143" on="1"/>
        <pt x="425" y="98" on="0"/>
        <pt x="456" y="98" on="1"/>
        <pt x="469" y="98" on="0"/>
        <pt x="500" y="115" on="0"/>
        <pt x="529" y="141" on="0"/>
        <pt x="555" y="173" on="0"/>
        <pt x="563" y="188" on="1"/>
        <pt x="627" y="500" on="1"/>
        <pt x="750" y="500" on="1"/>
        <pt x="676" y="151" on="1"/>
        <pt x="668" y="113" on="0"/>
        <pt x="659" y="36" on="0"/>
        <pt x="657" y="0" on="1"/>
        <pt x="556" y="0" on="1"/>
        <pt x="553" y="85" on="1"/>
        <pt x="549" y="85" on="1"/>
        <pt x="534" y="67" on="0"/>
        <pt x="500" y="32" on="0"/>
        <pt x="459" y="6" on="0"/>
        <pt x="410" y="-10" on="0"/>
        <pt x="380" y="-10" on="1"/>
        <pt x="344" y="-10" on="0"/>
        <pt x="299" y="40" on="0"/>
        <pt x="301" y="89" on="1"/>
        <pt x="271" y="50" on="0"/>
        <pt x="188" y="-10" on="0"/>
        <pt x="132" y="-10" on="1"/>
        <pt x="87" y="-10" on="0"/>
        <pt x="39" y="31" on="0"/>
        <pt x="39" y="88" on="1"/>
        <pt x="39" y="131" on="0"/>
        <pt x="54" y="200" on="1"/>
        <pt x="117" y="500" on="1"/>
        <pt x="240" y="500" on="1"/>
        <pt x="181" y="219" on="1"/>
        <pt x="176" y="195" on="0"/>
        <pt x="170" y="157" on="0"/>
        <pt x="170" y="142" on="1"/>
        <pt x="170" y="98" on="0"/>
        <pt x="197" y="98" on="1"/>
        <pt x="214" y="98" on="0"/>
        <pt x="248" y="116" on="0"/>
        <pt x="277" y="144" on="0"/>
        <pt x="300" y="176" on="0"/>
        <pt x="307" y="191" on="1"/>
        <pt x="371" y="500" on="1"/>
      </contour>
    </TTGlyph>
    <TTGlyph name="afii10091" xMin="39" yMin="-114" xMax="758" yMax="500">
      <contour>
        <pt x="556" y="90" on="1"/>
        <pt x="526" y="49" on="0"/>
        <pt x="440" y="-10" on="0"/>
        <pt x="380" y="-10" on="1"/>
        <pt x="344" y="-10" on="0"/>
        <pt x="298" y="40" on="0"/>
        <pt x="300" y="89" on="1"/>
        <pt x="270" y="50" on="0"/>
        <pt x="187" y="-10" on="0"/>
        <pt x="132" y="-10" on="1"/>
        <pt x="87" y="-10" on="0"/>
        <pt x="39" y="31" on="0"/>
        <pt x="39" y="88" on="1"/>
        <pt x="39" y="131" on="0"/>
        <pt x="54" y="200" on="1"/>
        <pt x="117" y="500" on="1"/>
        <pt x="240" y="500" on="1"/>
        <pt x="181" y="219" on="1"/>
        <pt x="176" y="195" on="0"/>
        <pt x="170" y="157" on="0"/>
        <pt x="170" y="142" on="1"/>
        <pt x="170" y="98" on="0"/>
        <pt x="197" y="98" on="1"/>
        <pt x="214" y="98" on="0"/>
        <pt x="248" y="116" on="0"/>
        <pt x="277" y="144" on="0"/>
        <pt x="300" y="176" on="0"/>
        <pt x="307" y="191" on="1"/>
        <pt x="371" y="500" on="1"/>
        <pt x="495" y="500" on="1"/>
        <pt x="437" y="228" on="1"/>
        <pt x="425" y="172" on="0"/>
        <pt x="425" y="143" on="1"/>
        <pt x="425" y="98" on="0"/>
        <pt x="456" y="98" on="1"/>
        <pt x="469" y="98" on="0"/>
        <pt x="500" y="115" on="0"/>
        <pt x="529" y="141" on="0"/>
        <pt x="555" y="173" on="0"/>
        <pt x="563" y="188" on="1"/>
        <pt x="627" y="500" on="1"/>
        <pt x="750" y="500" on="1"/>
        <pt x="681" y="179" on="1"/>
        <pt x="678" y="165" on="0"/>
        <pt x="674" y="142" on="0"/>
        <pt x="674" y="133" on="1"/>
        <pt x="674" y="116" on="0"/>
        <pt x="689" y="102" on="0"/>
        <pt x="707" y="102" on="1"/>
        <pt x="758" y="102" on="1"/>
        <pt x="696" y="-114" on="1"/>
        <pt x="602" y="-114" on="1"/>
        <pt x="632" y="0" on="1"/>
        <pt x="589" y="0" on="0"/>
        <pt x="552" y="47" on="0"/>
        <pt x="560" y="90" on="1"/>
        <pt x="556" y="90" on="1"/>
      </contour>
    </TTGlyph>
    <TTGlyph name="afii10092" xMin="41" yMin="-7" xMax="492" yMax="500">
      <contour>
        <pt x="213" y="154" on="1"/>
        <pt x="211" y="147" on="0"/>
        <pt x="209" y="136" on="0"/>
        <pt x="209" y="131" on="1"/>
        <pt x="209" y="96" on="0"/>
        <pt x="254" y="96" on="1"/>
        <pt x="276" y="96" on="0"/>
        <pt x="316" y="110" on="0"/>
        <pt x="347" y="135" on="0"/>
        <pt x="365" y="169" on="0"/>
        <pt x="365" y="189" on="1"/>
        <pt x="365" y="213" on="0"/>
        <pt x="341" y="238" on="0"/>
        <pt x="307" y="238" on="1"/>
        <pt x="287" y="238" on="0"/>
        <pt x="245" y="228" on="0"/>
        <pt x="231" y="220" on="1"/>
      </contour>
      <contour>
        <pt x="249" y="314" on="1"/>
        <pt x="273" y="322" on="0"/>
        <pt x="330" y="329" on="0"/>
        <pt x="354" y="329" on="1"/>
        <pt x="425" y="329" on="0"/>
        <pt x="492" y="271" on="0"/>
        <pt x="492" y="217" on="1"/>
        <pt x="492" y="170" on="0"/>
        <pt x="449" y="88" on="0"/>
        <pt x="374" y="28" on="0"/>
        <pt x="275" y="-7" on="0"/>
        <pt x="218" y="-7" on="1"/>
        <pt x="180" y="-7" on="0"/>
        <pt x="128" y="9" on="0"/>
        <pt x="96" y="37" on="0"/>
        <pt x="82" y="75" on="0"/>
        <pt x="82" y="97" on="1"/>
        <pt x="82" y="109" on="0"/>
        <pt x="86" y="133" on="0"/>
        <pt x="89" y="146" on="1"/>
        <pt x="155" y="397" on="1"/>
        <pt x="41" y="397" on="1"/>
        <pt x="63" y="500" on="1"/>
        <pt x="300" y="500" on="1"/>
      </contour>
    </TTGlyph>
    <TTGlyph name="afii10093" xMin="36" yMin="-7" xMax="680" yMax="500">
      <contour>
        <pt x="166" y="142" on="1"/>
        <pt x="165" y="138" on="0"/>
        <pt x="163" y="132" on="0"/>
        <pt x="163" y="128" on="1"/>
        <pt x="163" y="96" on="0"/>
        <pt x="202" y="96" on="1"/>
        <pt x="223" y="96" on="0"/>
        <pt x="262" y="110" on="0"/>
        <pt x="291" y="134" on="0"/>
        <pt x="309" y="167" on="0"/>
        <pt x="309" y="187" on="1"/>
        <pt x="309" y="215" on="0"/>
        <pt x="282" y="238" on="0"/>
        <pt x="248" y="238" on="1"/>
        <pt x="230" y="238" on="0"/>
        <pt x="199" y="231" on="0"/>
        <pt x="185" y="226" on="1"/>
      </contour>
      <contour>
        <pt x="204" y="316" on="1"/>
        <pt x="224" y="321" on="0"/>
        <pt x="280" y="329" on="0"/>
        <pt x="301" y="329" on="1"/>
        <pt x="375" y="329" on="0"/>
        <pt x="436" y="269" on="0"/>
        <pt x="436" y="221" on="1"/>
        <pt x="436" y="170" on="0"/>
        <pt x="393" y="86" on="0"/>
        <pt x="321" y="26" on="0"/>
        <pt x="225" y="-7" on="0"/>
        <pt x="172" y="-7" on="1"/>
        <pt x="101" y="-7" on="0"/>
        <pt x="36" y="42" on="0"/>
        <pt x="36" y="86" on="1"/>
        <pt x="36" y="100" on="0"/>
        <pt x="39" y="117" on="1"/>
        <pt x="123" y="500" on="1"/>
        <pt x="246" y="500" on="1"/>
      </contour>
      <contour>
        <pt x="557" y="500" on="1"/>
        <pt x="680" y="500" on="1"/>
        <pt x="574" y="0" on="1"/>
        <pt x="451" y="0" on="1"/>
      </contour>
    </TTGlyph>
    <TTGlyph name="afii10094" xMin="37" yMin="-7" xMax="445" yMax="500">
      <contour>
        <pt x="167" y="148" on="1"/>
        <pt x="166" y="144" on="0"/>
        <pt x="164" y="138" on="0"/>
        <pt x="164" y="135" on="1"/>
        <pt x="162" y="96" on="0"/>
        <pt x="212" y="96" on="1"/>
        <pt x="233" y="96" on="0"/>
        <pt x="271" y="110" on="0"/>
        <pt x="300" y="136" on="0"/>
        <pt x="318" y="170" on="0"/>
        <pt x="318" y="191" on="1"/>
        <pt x="318" y="217" on="0"/>
        <pt x="291" y="238" on="0"/>
        <pt x="257" y="238" on="1"/>
        <pt x="237" y="238" on="0"/>
        <pt x="200" y="229" on="0"/>
        <pt x="186" y="222" on="1"/>
      </contour>
      <contour>
        <pt x="204" y="314" on="1"/>
        <pt x="226" y="320" on="0"/>
        <pt x="281" y="329" on="0"/>
        <pt x="313" y="329" on="1"/>
        <pt x="354" y="329" on="0"/>
        <pt x="406" y="310" on="0"/>
        <pt x="435" y="279" on="0"/>
        <pt x="445" y="240" on="0"/>
        <pt x="445" y="220" on="1"/>
        <pt x="445" y="172" on="0"/>
        <pt x="407" y="89" on="0"/>
        <pt x="337" y="28" on="0"/>
        <pt x="240" y="-7" on="0"/>
        <pt x="180" y="-7" on="1"/>
        <pt x="139" y="-7" on="0"/>
        <pt x="84" y="9" on="0"/>
        <pt x="51" y="36" on="0"/>
        <pt x="37" y="71" on="0"/>
        <pt x="37" y="90" on="1"/>
        <pt x="37" y="97" on="0"/>
        <pt x="37" y="110" on="0"/>
        <pt x="39" y="117" on="1"/>
        <pt x="124" y="500" on="1"/>
        <pt x="247" y="500" on="1"/>
      </contour>
    </TTGlyph>
    <TTGlyph name="afii10095" xMin="-23" yMin="-14" xMax="417" yMax="514">
      <contour>
        <pt x="115" y="296" on="1"/>
        <pt x="292" y="296" on="1"/>
        <pt x="293" y="304" on="0"/>
        <pt x="294" y="320" on="0"/>
        <pt x="294" y="326" on="1"/>
        <pt x="294" y="370" on="0"/>
        <pt x="252" y="411" on="0"/>
        <pt x="217" y="411" on="1"/>
        <pt x="171" y="411" on="0"/>
        <pt x="116" y="394" on="0"/>
        <pt x="93" y="383" on="1"/>
        <pt x="65" y="464" on="1"/>
        <pt x="105" y="488" on="0"/>
        <pt x="196" y="514" on="0"/>
        <pt x="244" y="514" on="1"/>
        <pt x="329" y="514" on="0"/>
        <pt x="417" y="424" on="0"/>
        <pt x="417" y="343" on="1"/>
        <pt x="417" y="249" on="0"/>
        <pt x="370" y="114" on="0"/>
        <pt x="292" y="27" on="0"/>
        <pt x="190" y="-14" on="0"/>
        <pt x="134" y="-14" on="1"/>
        <pt x="86" y="-14" on="0"/>
        <pt x="0" y="9" on="0"/>
        <pt x="-23" y="26" on="1"/>
        <pt x="24" y="118" on="1"/>
        <pt x="44" y="105" on="0"/>
        <pt x="102" y="89" on="0"/>
        <pt x="133" y="89" on="1"/>
        <pt x="251" y="89" on="0"/>
        <pt x="278" y="211" on="1"/>
        <pt x="99" y="211" on="1"/>
      </contour>
    </TTGlyph>
    <TTGlyph name="afii10096" xMin="15" yMin="-14" xMax="682" yMax="514">
      <contour>
        <pt x="275" y="308" on="1"/>
        <pt x="304" y="405" on="0"/>
        <pt x="430" y="514" on="0"/>
        <pt x="514" y="514" on="1"/>
        <pt x="562" y="514" on="0"/>
        <pt x="626" y="484" on="0"/>
        <pt x="665" y="434" on="0"/>
        <pt x="682" y="370" on="0"/>
        <pt x="682" y="336" on="1"/>
        <pt x="682" y="260" on="0"/>
        <pt x="640" y="131" on="0"/>
        <pt x="568" y="38" on="0"/>
        <pt x="472" y="-14" on="0"/>
        <pt x="418" y="-14" on="1"/>
        <pt x="370" y="-14" on="0"/>
        <pt x="307" y="17" on="0"/>
        <pt x="268" y="67" on="0"/>
        <pt x="252" y="130" on="0"/>
        <pt x="252" y="162" on="1"/>
        <pt x="252" y="173" on="0"/>
        <pt x="253" y="194" on="0"/>
        <pt x="254" y="205" on="1"/>
        <pt x="181" y="205" on="1"/>
        <pt x="138" y="0" on="1"/>
        <pt x="15" y="0" on="1"/>
        <pt x="121" y="500" on="1"/>
        <pt x="244" y="500" on="1"/>
        <pt x="203" y="308" on="1"/>
      </contour>
      <contour>
        <pt x="374" y="179" on="1"/>
        <pt x="374" y="134" on="0"/>
        <pt x="400" y="89" on="0"/>
        <pt x="433" y="89" on="1"/>
        <pt x="456" y="89" on="0"/>
        <pt x="500" y="131" on="0"/>
        <pt x="534" y="199" on="0"/>
        <pt x="555" y="285" on="0"/>
        <pt x="555" y="328" on="1"/>
        <pt x="555" y="368" on="0"/>
        <pt x="532" y="411" on="0"/>
        <pt x="495" y="411" on="1"/>
        <pt x="471" y="411" on="0"/>
        <pt x="427" y="371" on="0"/>
        <pt x="394" y="306" on="0"/>
        <pt x="374" y="222" on="0"/>
      </contour>
    </TTGlyph>
    <TTGlyph name="afii10097" xMin="-32" yMin="0" xMax="486" yMax="514">
      <contour>
        <pt x="300" y="182" on="1"/>
        <pt x="237" y="170" on="1"/>
        <pt x="115" y="0" on="1"/>
        <pt x="-32" y="0" on="1"/>
        <pt x="88" y="159" on="1"/>
        <pt x="145" y="194" on="1"/>
        <pt x="112" y="203" on="0"/>
        <pt x="64" y="260" on="0"/>
        <pt x="64" y="305" on="1"/>
        <pt x="64" y="351" on="0"/>
        <pt x="103" y="428" on="0"/>
        <pt x="171" y="483" on="0"/>
        <pt x="263" y="514" on="0"/>
        <pt x="317" y="514" on="1"/>
        <pt x="342" y="514" on="0"/>
        <pt x="393" y="508" on="0"/>
        <pt x="438" y="498" on="0"/>
        <pt x="475" y="487" on="0"/>
        <pt x="486" y="483" on="1"/>
        <pt x="384" y="0" on="1"/>
        <pt x="261" y="0" on="1"/>
      </contour>
      <contour>
        <pt x="315" y="256" on="1"/>
        <pt x="346" y="397" on="1"/>
        <pt x="341" y="399" on="0"/>
        <pt x="314" y="406" on="0"/>
        <pt x="294" y="406" on="1"/>
        <pt x="250" y="406" on="0"/>
        <pt x="191" y="360" on="0"/>
        <pt x="191" y="318" on="1"/>
        <pt x="191" y="286" on="0"/>
        <pt x="229" y="254" on="0"/>
        <pt x="280" y="254" on="1"/>
      </contour>
    </TTGlyph>
    <TTGlyph name="afii10098" xMin="15" yMin="0" xMax="460" yMax="652">
      <contour>
        <pt x="405" y="392" on="1"/>
        <pt x="226" y="392" on="1"/>
        <pt x="143" y="0" on="1"/>
        <pt x="15" y="0" on="1"/>
        <pt x="121" y="500" on="1"/>
        <pt x="325" y="500" on="1"/>
        <pt x="377" y="652" on="1"/>
        <pt x="460" y="652" on="1"/>
      </contour>
    </TTGlyph>
    <TTGlyph name="afii10099" xMin="28" yMin="-208" xMax="503" yMax="700">
      <contour>
        <pt x="85" y="600" on="1"/>
        <pt x="155" y="600" on="1"/>
        <pt x="176" y="700" on="1"/>
        <pt x="299" y="700" on="1"/>
        <pt x="277" y="600" on="1"/>
        <pt x="432" y="600" on="1"/>
        <pt x="415" y="520" on="1"/>
        <pt x="260" y="520" on="1"/>
        <pt x="230" y="380" on="1"/>
        <pt x="234" y="380" on="1"/>
        <pt x="247" y="393" on="0"/>
        <pt x="281" y="421" on="0"/>
        <pt x="324" y="445" on="0"/>
        <pt x="376" y="460" on="0"/>
        <pt x="407" y="460" on="1"/>
        <pt x="454" y="460" on="0"/>
        <pt x="503" y="412" on="0"/>
        <pt x="503" y="354" on="1"/>
        <pt x="503" y="314" on="0"/>
        <pt x="491" y="257" on="1"/>
        <pt x="437" y="0" on="1"/>
        <pt x="414" y="-106" on="0"/>
        <pt x="325" y="-208" on="0"/>
        <pt x="250" y="-208" on="1"/>
        <pt x="236" y="-208" on="0"/>
        <pt x="207" y="-205" on="0"/>
        <pt x="191" y="-201" on="1"/>
        <pt x="214" y="-90" on="1"/>
        <pt x="238" y="-92" on="0"/>
        <pt x="272" y="-83" on="0"/>
        <pt x="294" y="-60" on="0"/>
        <pt x="309" y="-24" on="0"/>
        <pt x="314" y="0" on="1"/>
        <pt x="365" y="241" on="1"/>
        <pt x="373" y="278" on="0"/>
        <pt x="373" y="302" on="1"/>
        <pt x="373" y="328" on="0"/>
        <pt x="353" y="357" on="0"/>
        <pt x="330" y="357" on="1"/>
        <pt x="313" y="357" on="0"/>
        <pt x="276" y="341" on="0"/>
        <pt x="243" y="315" on="0"/>
        <pt x="215" y="282" on="0"/>
        <pt x="207" y="264" on="1"/>
        <pt x="151" y="0" on="1"/>
        <pt x="28" y="0" on="1"/>
        <pt x="138" y="520" on="1"/>
        <pt x="68" y="520" on="1"/>
      </contour>
    </TTGlyph>
    <TTGlyph name="afii10100" xMin="13" yMin="-14" xMax="428" yMax="720">
      <component glyphName="afii10068" x="0" y="0" flags="0x204"/>
      <component glyphName="acute" x="93" y="0" flags="0x4"/>
    </TTGlyph>
    <TTGlyph name="afii10101" xMin="34" yMin="-14" xMax="454" yMax="514">
      <contour>
        <pt x="393" y="46" on="1"/>
        <pt x="358" y="17" on="0"/>
        <pt x="262" y="-14" on="0"/>
        <pt x="214" y="-14" on="1"/>
        <pt x="173" y="-14" on="0"/>
        <pt x="107" y="12" on="0"/>
        <pt x="60" y="61" on="0"/>
        <pt x="34" y="129" on="0"/>
        <pt x="34" y="171" on="1"/>
        <pt x="34" y="256" on="0"/>
        <pt x="85" y="385" on="0"/>
        <pt x="168" y="471" on="0"/>
        <pt x="273" y="514" on="0"/>
        <pt x="327" y="514" on="1"/>
        <pt x="379" y="514" on="0"/>
        <pt x="434" y="496" on="0"/>
        <pt x="454" y="485" on="1"/>
        <pt x="412" y="394" on="1"/>
        <pt x="391" y="405" on="0"/>
        <pt x="351" y="411" on="0"/>
        <pt x="327" y="411" on="1"/>
        <pt x="285" y="411" on="0"/>
        <pt x="204" y="354" on="0"/>
        <pt x="181" y="300" on="1"/>
        <pt x="369" y="300" on="1"/>
        <pt x="350" y="214" on="1"/>
        <pt x="161" y="214" on="1"/>
        <pt x="161" y="194" on="1"/>
        <pt x="161" y="146" on="0"/>
        <pt x="205" y="89" on="0"/>
        <pt x="259" y="89" on="1"/>
        <pt x="292" y="89" on="0"/>
        <pt x="347" y="111" on="0"/>
        <pt x="367" y="124" on="1"/>
      </contour>
    </TTGlyph>
    <TTGlyph name="afii10102" xMin="-1" yMin="-14" xMax="403" yMax="514">
      <component glyphName="s" x="0" y="0" flags="0x204"/>
    </TTGlyph>
    <TTGlyph name="afii10103" xMin="27" yMin="0" xMax="304" yMax="711">
      <component glyphName="dotlessi" x="0" y="0" flags="0x204"/>
      <component glyphName="dotaccent" x="-19" y="0" flags="0x4"/>
    </TTGlyph>
    <TTGlyph name="afii10103.alt" xMin="27" yMin="0" xMax="256" yMax="500">
      <component glyphName="dotlessi" x="0" y="0" flags="0x204"/>
    </TTGlyph>
    <TTGlyph name="afii10104" xMin="38" yMin="0" xMax="368" yMax="708">
      <contour>
        <pt x="144" y="500" on="1"/>
        <pt x="267" y="500" on="1"/>
        <pt x="161" y="0" on="1"/>
        <pt x="38" y="0" on="1"/>
      </contour>
      <contour>
        <pt x="102" y="641" on="1"/>
        <pt x="102" y="673" on="0"/>
        <pt x="135" y="708" on="0"/>
        <pt x="163" y="708" on="1"/>
        <pt x="191" y="708" on="0"/>
        <pt x="224" y="673" on="0"/>
        <pt x="224" y="641" on="1"/>
        <pt x="224" y="609" on="0"/>
        <pt x="191" y="575" on="0"/>
        <pt x="163" y="575" on="1"/>
        <pt x="134" y="575" on="0"/>
        <pt x="102" y="609" on="0"/>
      </contour>
      <contour>
        <pt x="246" y="641" on="1"/>
        <pt x="246" y="673" on="0"/>
        <pt x="278" y="708" on="0"/>
        <pt x="307" y="708" on="1"/>
        <pt x="335" y="708" on="0"/>
        <pt x="368" y="673" on="0"/>
        <pt x="368" y="641" on="1"/>
        <pt x="368" y="609" on="0"/>
        <pt x="335" y="575" on="0"/>
        <pt x="306" y="575" on="1"/>
        <pt x="278" y="575" on="0"/>
        <pt x="246" y="609" on="0"/>
      </contour>
    </TTGlyph>
    <TTGlyph name="afii10105" xMin="-112" yMin="-206" xMax="293" yMax="711">
      <component glyphName="uni0237" x="0" y="0" flags="0x204"/>
      <component glyphName="dotaccent" x="-30" y="0" flags="0x4"/>
    </TTGlyph>
    <TTGlyph name="afii10106" xMin="-47" yMin="-7" xMax="705" yMax="500">
      <contour>
        <pt x="427" y="149" on="1"/>
        <pt x="426" y="144" on="0"/>
        <pt x="424" y="136" on="0"/>
        <pt x="424" y="132" on="1"/>
        <pt x="424" y="96" on="0"/>
        <pt x="472" y="96" on="1"/>
        <pt x="493" y="96" on="0"/>
        <pt x="531" y="111" on="0"/>
        <pt x="560" y="137" on="0"/>
        <pt x="578" y="172" on="0"/>
        <pt x="578" y="193" on="1"/>
        <pt x="578" y="219" on="0"/>
        <pt x="551" y="238" on="0"/>
        <pt x="517" y="238" on="1"/>
        <pt x="497" y="238" on="0"/>
        <pt x="459" y="230" on="0"/>
        <pt x="445" y="223" on="1"/>
      </contour>
      <contour>
        <pt x="505" y="500" on="1"/>
        <pt x="464" y="314" on="1"/>
        <pt x="486" y="320" on="0"/>
        <pt x="541" y="329" on="0"/>
        <pt x="573" y="329" on="1"/>
        <pt x="614" y="329" on="0"/>
        <pt x="666" y="310" on="0"/>
        <pt x="695" y="279" on="0"/>
        <pt x="705" y="240" on="0"/>
        <pt x="705" y="220" on="1"/>
        <pt x="705" y="172" on="0"/>
        <pt x="667" y="89" on="0"/>
        <pt x="597" y="28" on="0"/>
        <pt x="500" y="-7" on="0"/>
        <pt x="440" y="-7" on="1"/>
        <pt x="399" y="-7" on="0"/>
        <pt x="344" y="10" on="0"/>
        <pt x="311" y="37" on="0"/>
        <pt x="297" y="72" on="0"/>
        <pt x="297" y="91" on="1"/>
        <pt x="297" y="98" on="0"/>
        <pt x="297" y="111" on="0"/>
        <pt x="299" y="117" on="1"/>
        <pt x="361" y="397" on="1"/>
        <pt x="271" y="397" on="1"/>
        <pt x="246" y="304" on="0"/>
        <pt x="199" y="155" on="0"/>
        <pt x="143" y="50" on="0"/>
        <pt x="74" y="-6" on="0"/>
        <pt x="28" y="-6" on="1"/>
        <pt x="-26" y="-6" on="0"/>
        <pt x="-47" y="9" on="1"/>
        <pt x="-9" y="116" on="1"/>
        <pt x="18" y="107" on="0"/>
        <pt x="60" y="123" on="0"/>
        <pt x="103" y="204" on="0"/>
        <pt x="151" y="364" on="0"/>
        <pt x="184" y="500" on="1"/>
      </contour>
    </TTGlyph>
    <TTGlyph name="afii10107" xMin="15" yMin="-7" xMax="719" yMax="500">
      <contour>
        <pt x="477" y="313" on="1"/>
        <pt x="500" y="319" on="0"/>
        <pt x="556" y="329" on="0"/>
        <pt x="588" y="329" on="1"/>
        <pt x="629" y="329" on="0"/>
        <pt x="680" y="310" on="0"/>
        <pt x="709" y="279" on="0"/>
        <pt x="719" y="240" on="0"/>
        <pt x="719" y="220" on="1"/>
        <pt x="719" y="172" on="0"/>
        <pt x="681" y="89" on="0"/>
        <pt x="612" y="28" on="0"/>
        <pt x="515" y="-7" on="0"/>
        <pt x="455" y="-7" on="1"/>
        <pt x="414" y="-7" on="0"/>
        <pt x="360" y="9" on="0"/>
        <pt x="326" y="36" on="0"/>
        <pt x="311" y="70" on="0"/>
        <pt x="311" y="89" on="1"/>
        <pt x="311" y="105" on="0"/>
        <pt x="314" y="120" on="1"/>
        <pt x="332" y="205" on="1"/>
        <pt x="181" y="205" on="1"/>
        <pt x="138" y="0" on="1"/>
        <pt x="15" y="0" on="1"/>
        <pt x="121" y="500" on="1"/>
        <pt x="244" y="500" on="1"/>
        <pt x="202" y="308" on="1"/>
        <pt x="354" y="308" on="1"/>
        <pt x="395" y="500" on="1"/>
        <pt x="518" y="500" on="1"/>
      </contour>
      <contour>
        <pt x="441" y="148" on="1"/>
        <pt x="440" y="143" on="0"/>
        <pt x="438" y="136" on="0"/>
        <pt x="438" y="132" on="1"/>
        <pt x="438" y="96" on="0"/>
        <pt x="487" y="96" on="1"/>
        <pt x="508" y="96" on="0"/>
        <pt x="546" y="111" on="0"/>
        <pt x="575" y="136" on="0"/>
        <pt x="592" y="171" on="0"/>
        <pt x="592" y="192" on="1"/>
        <pt x="592" y="218" on="0"/>
        <pt x="565" y="238" on="0"/>
        <pt x="531" y="238" on="1"/>
        <pt x="511" y="238" on="0"/>
        <pt x="474" y="230" on="0"/>
        <pt x="460" y="223" on="1"/>
      </contour>
    </TTGlyph>
    <TTGlyph name="afii10108" xMin="28" yMin="0" xMax="497" yMax="700">
      <contour>
        <pt x="85" y="600" on="1"/>
        <pt x="155" y="600" on="1"/>
        <pt x="176" y="700" on="1"/>
        <pt x="299" y="700" on="1"/>
        <pt x="277" y="600" on="1"/>
        <pt x="432" y="600" on="1"/>
        <pt x="415" y="520" on="1"/>
        <pt x="260" y="520" on="1"/>
        <pt x="231" y="385" on="1"/>
        <pt x="235" y="385" on="1"/>
        <pt x="269" y="416" on="0"/>
        <pt x="352" y="460" on="0"/>
        <pt x="406" y="460" on="1"/>
        <pt x="447" y="460" on="0"/>
        <pt x="497" y="412" on="0"/>
        <pt x="497" y="350" on="1"/>
        <pt x="497" y="330" on="0"/>
        <pt x="492" y="285" on="0"/>
        <pt x="486" y="257" on="1"/>
        <pt x="432" y="0" on="1"/>
        <pt x="309" y="0" on="1"/>
        <pt x="360" y="244" on="1"/>
        <pt x="365" y="264" on="0"/>
        <pt x="370" y="296" on="0"/>
        <pt x="370" y="310" on="1"/>
        <pt x="370" y="333" on="0"/>
        <pt x="352" y="357" on="0"/>
        <pt x="329" y="357" on="1"/>
        <pt x="309" y="357" on="0"/>
        <pt x="272" y="340" on="0"/>
        <pt x="240" y="313" on="0"/>
        <pt x="214" y="278" on="0"/>
        <pt x="205" y="260" on="1"/>
        <pt x="151" y="0" on="1"/>
        <pt x="28" y="0" on="1"/>
        <pt x="138" y="520" on="1"/>
        <pt x="68" y="520" on="1"/>
      </contour>
    </TTGlyph>
    <TTGlyph name="afii10109" xMin="15" yMin="0" xMax="508" yMax="720">
      <component glyphName="afii10076" x="0" y="0" flags="0x204"/>
      <component glyphName="acute" x="136" y="0" flags="0x4"/>
    </TTGlyph>
    <TTGlyph name="afii10110" xMin="-17" yMin="-205" xMax="517" yMax="704">
      <component glyphName="y" x="0" y="0" flags="0x204"/>
      <component glyphName="uniF6D4" x="-18" y="0" flags="0x4"/>
    </TTGlyph>
    <TTGlyph name="afii10145" xMin="20" yMin="-175" xMax="660" yMax="700">
      <contour>
        <pt x="531" y="700" on="1"/>
        <pt x="660" y="700" on="1"/>
        <pt x="512" y="0" on="1"/>
        <pt x="379" y="0" on="1"/>
        <pt x="314" y="0" on="1"/>
        <pt x="288" y="-175" on="1"/>
        <pt x="172" y="-175" on="1"/>
        <pt x="217" y="0" on="1"/>
        <pt x="150" y="0" on="1"/>
        <pt x="20" y="0" on="1"/>
        <pt x="168" y="700" on="1"/>
        <pt x="298" y="700" on="1"/>
        <pt x="175" y="122" on="1"/>
        <pt x="408" y="122" on="1"/>
      </contour>
    </TTGlyph>
    <TTGlyph name="afii10146" xMin="77" yMin="-10" xMax="617" yMax="725">
      <contour>
        <pt x="101" y="646" on="1"/>
        <pt x="236" y="646" on="1"/>
        <pt x="253" y="725" on="1"/>
        <pt x="383" y="725" on="1"/>
        <pt x="366" y="646" on="1"/>
        <pt x="557" y="646" on="1"/>
        <pt x="532" y="535" on="1"/>
        <pt x="342" y="535" on="1"/>
        <pt x="322" y="443" on="1"/>
        <pt x="333" y="445" on="0"/>
        <pt x="387" y="451" on="0"/>
        <pt x="409" y="451" on="1"/>
        <pt x="455" y="451" on="0"/>
        <pt x="531" y="427" on="0"/>
        <pt x="586" y="381" on="0"/>
        <pt x="617" y="312" on="0"/>
        <pt x="617" y="266" on="1"/>
        <pt x="617" y="194" on="0"/>
        <pt x="568" y="90" on="0"/>
        <pt x="480" y="23" on="0"/>
        <pt x="359" y="-10" on="0"/>
        <pt x="286" y="-10" on="1"/>
        <pt x="272" y="-10" on="0"/>
        <pt x="227" y="-9" on="0"/>
        <pt x="175" y="-5" on="0"/>
        <pt x="121" y="1" on="0"/>
        <pt x="100" y="7" on="1"/>
        <pt x="212" y="535" on="1"/>
        <pt x="77" y="535" on="1"/>
      </contour>
      <contour>
        <pt x="253" y="118" on="1"/>
        <pt x="263" y="115" on="0"/>
        <pt x="298" y="112" on="0"/>
        <pt x="317" y="112" on="1"/>
        <pt x="347" y="112" on="0"/>
        <pt x="406" y="126" on="0"/>
        <pt x="452" y="157" on="0"/>
        <pt x="480" y="208" on="0"/>
        <pt x="480" y="245" on="1"/>
        <pt x="480" y="297" on="0"/>
        <pt x="415" y="335" on="0"/>
        <pt x="363" y="335" on="1"/>
        <pt x="357" y="335" on="0"/>
        <pt x="337" y="333" on="0"/>
        <pt x="318" y="331" on="0"/>
        <pt x="301" y="328" on="0"/>
        <pt x="297" y="327" on="1"/>
      </contour>
    </TTGlyph>
    <TTGlyph name="afii10147" xMin="58" yMin="-14" xMax="654" yMax="714">
      <contour>
        <pt x="58" y="262" on="1"/>
        <pt x="58" y="355" on="0"/>
        <pt x="107" y="520" on="0"/>
        <pt x="200" y="643" on="0"/>
        <pt x="331" y="714" on="0"/>
        <pt x="414" y="714" on="1"/>
        <pt x="467" y="714" on="0"/>
        <pt x="556" y="682" on="0"/>
        <pt x="619" y="615" on="0"/>
        <pt x="654" y="513" on="0"/>
        <pt x="654" y="443" on="1"/>
        <pt x="654" y="349" on="0"/>
        <pt x="604" y="183" on="0"/>
        <pt x="513" y="58" on="0"/>
        <pt x="386" y="-14" on="0"/>
        <pt x="308" y="-14" on="1"/>
        <pt x="190" y="-14" on="0"/>
        <pt x="59" y="125" on="0"/>
      </contour>
      <contour>
        <pt x="196" y="296" on="1"/>
        <pt x="195" y="288" on="0"/>
        <pt x="195" y="274" on="0"/>
        <pt x="195" y="266" on="1"/>
        <pt x="195" y="194" on="0"/>
        <pt x="254" y="108" on="0"/>
        <pt x="317" y="108" on="1"/>
        <pt x="349" y="108" on="0"/>
        <pt x="405" y="136" on="0"/>
        <pt x="451" y="187" on="0"/>
        <pt x="486" y="255" on="0"/>
        <pt x="497" y="296" on="1"/>
      </contour>
      <contour>
        <pt x="516" y="407" on="1"/>
        <pt x="516" y="415" on="0"/>
        <pt x="517" y="432" on="0"/>
        <pt x="517" y="441" on="1"/>
        <pt x="517" y="520" on="0"/>
        <pt x="451" y="592" on="0"/>
        <pt x="397" y="592" on="1"/>
        <pt x="365" y="592" on="0"/>
        <pt x="308" y="565" on="0"/>
        <pt x="262" y="515" on="0"/>
        <pt x="226" y="447" on="0"/>
        <pt x="214" y="407" on="1"/>
      </contour>
    </TTGlyph>
    <TTGlyph name="afii10148" xMin="101" yMin="-5" xMax="761" yMax="709">
      <contour>
        <pt x="296" y="-5" on="1"/>
        <pt x="202" y="-5" on="1"/>
        <pt x="101" y="700" on="1"/>
        <pt x="243" y="700" on="1"/>
        <pt x="288" y="289" on="1"/>
        <pt x="280" y="171" on="1"/>
        <pt x="284" y="171" on="1"/>
        <pt x="327" y="290" on="1"/>
        <pt x="440" y="519" on="1"/>
        <pt x="468" y="577" on="0"/>
        <pt x="518" y="651" on="0"/>
        <pt x="569" y="693" on="0"/>
        <pt x="625" y="709" on="0"/>
        <pt x="659" y="709" on="1"/>
        <pt x="694" y="709" on="0"/>
        <pt x="743" y="696" on="0"/>
        <pt x="761" y="686" on="1"/>
        <pt x="708" y="572" on="1"/>
        <pt x="694" y="580" on="0"/>
        <pt x="669" y="587" on="0"/>
        <pt x="655" y="587" on="1"/>
        <pt x="632" y="587" on="0"/>
        <pt x="593" y="550" on="0"/>
        <pt x="572" y="510" on="1"/>
      </contour>
    </TTGlyph>
    <TTGlyph name="afii10193" xMin="39" yMin="-200" xMax="513" yMax="500">
      <contour>
        <pt x="241" y="500" on="1"/>
        <pt x="176" y="191" on="1"/>
        <pt x="170" y="161" on="0"/>
        <pt x="170" y="141" on="1"/>
        <pt x="170" y="121" on="0"/>
        <pt x="186" y="99" on="0"/>
        <pt x="206" y="99" on="1"/>
        <pt x="223" y="99" on="0"/>
        <pt x="258" y="116" on="0"/>
        <pt x="290" y="143" on="0"/>
        <pt x="317" y="176" on="0"/>
        <pt x="326" y="192" on="1"/>
        <pt x="390" y="500" on="1"/>
        <pt x="513" y="500" on="1"/>
        <pt x="450" y="200" on="1"/>
        <pt x="445" y="180" on="0"/>
        <pt x="438" y="126" on="0"/>
        <pt x="432" y="69" on="0"/>
        <pt x="430" y="17" on="0"/>
        <pt x="431" y="0" on="1"/>
        <pt x="332" y="0" on="1"/>
        <pt x="327" y="90" on="1"/>
        <pt x="323" y="90" on="1"/>
        <pt x="309" y="71" on="0"/>
        <pt x="272" y="34" on="0"/>
        <pt x="227" y="4" on="0"/>
        <pt x="174" y="-14" on="0"/>
        <pt x="144" y="-14" on="1"/>
        <pt x="97" y="-14" on="0"/>
        <pt x="39" y="33" on="0"/>
        <pt x="39" y="96" on="1"/>
        <pt x="39" y="133" on="0"/>
        <pt x="49" y="177" on="1"/>
        <pt x="118" y="500" on="1"/>
      </contour>
      <contour>
        <pt x="280" y="-35" on="1"/>
        <pt x="258" y="-200" on="1"/>
        <pt x="144" y="-200" on="1"/>
        <pt x="189" y="-35" on="1"/>
      </contour>
    </TTGlyph>
    <TTGlyph name="afii10194" xMin="18" yMin="-7" xMax="686" yMax="514">
      <contour>
        <pt x="408" y="148" on="1"/>
        <pt x="397" y="96" on="0"/>
        <pt x="453" y="96" on="1"/>
        <pt x="474" y="96" on="0"/>
        <pt x="512" y="111" on="0"/>
        <pt x="542" y="136" on="0"/>
        <pt x="559" y="171" on="0"/>
        <pt x="559" y="192" on="1"/>
        <pt x="559" y="218" on="0"/>
        <pt x="532" y="238" on="0"/>
        <pt x="498" y="238" on="1"/>
        <pt x="478" y="238" on="0"/>
        <pt x="441" y="230" on="0"/>
        <pt x="427" y="223" on="1"/>
      </contour>
      <contour>
        <pt x="323" y="310" on="1"/>
        <pt x="332" y="349" on="0"/>
        <pt x="332" y="371" on="1"/>
        <pt x="332" y="406" on="0"/>
        <pt x="305" y="406" on="1"/>
        <pt x="291" y="406" on="0"/>
        <pt x="263" y="387" on="0"/>
        <pt x="237" y="357" on="0"/>
        <pt x="214" y="320" on="0"/>
        <pt x="205" y="302" on="1"/>
        <pt x="141" y="0" on="1"/>
        <pt x="18" y="0" on="1"/>
        <pt x="124" y="500" on="1"/>
        <pt x="217" y="500" on="1"/>
        <pt x="212" y="416" on="1"/>
        <pt x="216" y="416" on="1"/>
        <pt x="227" y="434" on="0"/>
        <pt x="255" y="469" on="0"/>
        <pt x="292" y="497" on="0"/>
        <pt x="342" y="514" on="0"/>
        <pt x="374" y="514" on="1"/>
        <pt x="415" y="514" on="0"/>
        <pt x="462" y="469" on="0"/>
        <pt x="462" y="417" on="1"/>
        <pt x="462" y="400" on="0"/>
        <pt x="456" y="362" on="0"/>
        <pt x="451" y="339" on="1"/>
        <pt x="445" y="314" on="1"/>
        <pt x="468" y="320" on="0"/>
        <pt x="522" y="329" on="0"/>
        <pt x="554" y="329" on="1"/>
        <pt x="595" y="329" on="0"/>
        <pt x="647" y="310" on="0"/>
        <pt x="676" y="279" on="0"/>
        <pt x="686" y="240" on="0"/>
        <pt x="686" y="220" on="1"/>
        <pt x="686" y="172" on="0"/>
        <pt x="648" y="89" on="0"/>
        <pt x="579" y="28" on="0"/>
        <pt x="482" y="-7" on="0"/>
        <pt x="422" y="-7" on="1"/>
        <pt x="373" y="-7" on="0"/>
        <pt x="313" y="15" on="0"/>
        <pt x="282" y="51" on="0"/>
        <pt x="275" y="95" on="0"/>
        <pt x="280" y="117" on="1"/>
      </contour>
    </TTGlyph>
    <TTGlyph name="afii10195" xMin="34" yMin="-14" xMax="480" yMax="514">
      <contour>
        <pt x="34" y="162" on="1"/>
        <pt x="34" y="241" on="0"/>
        <pt x="79" y="371" on="0"/>
        <pt x="155" y="463" on="0"/>
        <pt x="254" y="514" on="0"/>
        <pt x="308" y="514" on="1"/>
        <pt x="356" y="514" on="0"/>
        <pt x="422" y="484" on="0"/>
        <pt x="462" y="434" on="0"/>
        <pt x="480" y="370" on="0"/>
        <pt x="480" y="336" on="1"/>
        <pt x="480" y="258" on="0"/>
        <pt x="436" y="129" on="0"/>
        <pt x="361" y="37" on="0"/>
        <pt x="263" y="-14" on="0"/>
        <pt x="209" y="-14" on="1"/>
        <pt x="162" y="-14" on="0"/>
        <pt x="96" y="17" on="0"/>
        <pt x="54" y="67" on="0"/>
        <pt x="34" y="130" on="0"/>
      </contour>
      <contour>
        <pt x="350" y="289" on="1"/>
        <pt x="353" y="308" on="0"/>
        <pt x="353" y="328" on="1"/>
        <pt x="353" y="368" on="0"/>
        <pt x="326" y="411" on="0"/>
        <pt x="289" y="411" on="1"/>
        <pt x="273" y="411" on="0"/>
        <pt x="241" y="392" on="0"/>
        <pt x="213" y="359" on="0"/>
        <pt x="188" y="315" on="0"/>
        <pt x="179" y="289" on="1"/>
      </contour>
      <contour>
        <pt x="162" y="208" on="1"/>
        <pt x="161" y="200" on="0"/>
        <pt x="161" y="186" on="0"/>
        <pt x="161" y="179" on="1"/>
        <pt x="161" y="89" on="0"/>
        <pt x="226" y="89" on="1"/>
        <pt x="258" y="89" on="0"/>
        <pt x="314" y="157" on="0"/>
        <pt x="332" y="208" on="1"/>
      </contour>
    </TTGlyph>
    <TTGlyph name="afii10196" xMin="40" yMin="-5" xMax="561" yMax="509">
      <contour>
        <pt x="214" y="-5" on="1"/>
        <pt x="138" y="-5" on="1"/>
        <pt x="40" y="500" on="1"/>
        <pt x="175" y="500" on="1"/>
        <pt x="208" y="238" on="1"/>
        <pt x="208" y="161" on="1"/>
        <pt x="212" y="161" on="1"/>
        <pt x="242" y="240" on="1"/>
        <pt x="280" y="311" on="1"/>
        <pt x="308" y="365" on="0"/>
        <pt x="356" y="441" on="0"/>
        <pt x="404" y="488" on="0"/>
        <pt x="455" y="509" on="0"/>
        <pt x="486" y="509" on="1"/>
        <pt x="509" y="509" on="0"/>
        <pt x="548" y="500" on="0"/>
        <pt x="561" y="492" on="1"/>
        <pt x="522" y="388" on="1"/>
        <pt x="514" y="391" on="0"/>
        <pt x="500" y="396" on="0"/>
        <pt x="492" y="396" on="1"/>
        <pt x="475" y="396" on="0"/>
        <pt x="439" y="367" on="0"/>
        <pt x="415" y="329" on="1"/>
      </contour>
    </TTGlyph>
    <TTGlyph name="afii10846" xMin="23" yMin="-14" xMax="473" yMax="514">
      <contour>
        <pt x="101" y="469" on="1"/>
        <pt x="135" y="490" on="0"/>
        <pt x="231" y="514" on="0"/>
        <pt x="288" y="514" on="1"/>
        <pt x="335" y="514" on="0"/>
        <pt x="405" y="486" on="0"/>
        <pt x="451" y="438" on="0"/>
        <pt x="473" y="374" on="0"/>
        <pt x="473" y="338" on="1"/>
        <pt x="473" y="254" on="0"/>
        <pt x="430" y="123" on="0"/>
        <pt x="353" y="33" on="0"/>
        <pt x="248" y="-14" on="0"/>
        <pt x="186" y="-14" on="1"/>
        <pt x="147" y="-14" on="0"/>
        <pt x="86" y="9" on="0"/>
        <pt x="45" y="47" on="0"/>
        <pt x="23" y="98" on="0"/>
        <pt x="23" y="127" on="1"/>
        <pt x="23" y="206" on="0"/>
        <pt x="143" y="295" on="0"/>
        <pt x="277" y="295" on="1"/>
        <pt x="311" y="295" on="0"/>
        <pt x="350" y="292" on="1"/>
        <pt x="352" y="303" on="0"/>
        <pt x="354" y="321" on="0"/>
        <pt x="354" y="329" on="1"/>
        <pt x="354" y="373" on="0"/>
        <pt x="297" y="411" on="0"/>
        <pt x="256" y="411" on="1"/>
        <pt x="215" y="411" on="0"/>
        <pt x="148" y="392" on="0"/>
        <pt x="128" y="382" on="1"/>
      </contour>
      <contour>
        <pt x="331" y="212" on="1"/>
        <pt x="315" y="214" on="0"/>
        <pt x="284" y="217" on="0"/>
        <pt x="269" y="217" on="1"/>
        <pt x="216" y="217" on="0"/>
        <pt x="144" y="183" on="0"/>
        <pt x="144" y="146" on="1"/>
        <pt x="144" y="124" on="0"/>
        <pt x="171" y="89" on="0"/>
        <pt x="207" y="89" on="1"/>
        <pt x="255" y="89" on="0"/>
        <pt x="317" y="158" on="0"/>
      </contour>
    </TTGlyph>
    <TTGlyph name="afii57929" xMin="148" yMin="463" xMax="310" yMax="709">
      <component glyphName="quoteright" x="49" y="0" flags="0x4"/>
    </TTGlyph>
    <TTGlyph name="afii61289" xMin="91" yMin="-12" xMax="424" yMax="712">
      <contour>
        <pt x="424" y="30" on="1"/>
        <pt x="402" y="16" on="0"/>
        <pt x="331" y="-12" on="0"/>
        <pt x="296" y="-12" on="1"/>
        <pt x="233" y="-12" on="0"/>
        <pt x="176" y="49" on="0"/>
        <pt x="176" y="114" on="1"/>
        <pt x="176" y="218" on="1"/>
        <pt x="126" y="174" on="1"/>
        <pt x="91" y="218" on="1"/>
        <pt x="176" y="292" on="1"/>
        <pt x="176" y="546" on="1"/>
        <pt x="176" y="590" on="0"/>
        <pt x="196" y="653" on="0"/>
        <pt x="231" y="693" on="0"/>
        <pt x="278" y="712" on="0"/>
        <pt x="305" y="712" on="1"/>
        <pt x="353" y="712" on="0"/>
        <pt x="415" y="653" on="0"/>
        <pt x="415" y="593" on="1"/>
        <pt x="415" y="519" on="0"/>
        <pt x="335" y="353" on="0"/>
        <pt x="244" y="265" on="1"/>
        <pt x="244" y="125" on="1"/>
        <pt x="244" y="81" on="0"/>
        <pt x="278" y="48" on="0"/>
        <pt x="302" y="48" on="1"/>
        <pt x="327" y="48" on="0"/>
        <pt x="387" y="69" on="0"/>
        <pt x="407" y="80" on="1"/>
      </contour>
      <contour>
        <pt x="351" y="588" on="1"/>
        <pt x="351" y="622" on="0"/>
        <pt x="323" y="652" on="0"/>
        <pt x="305" y="652" on="1"/>
        <pt x="293" y="652" on="0"/>
        <pt x="271" y="645" on="0"/>
        <pt x="254" y="624" on="0"/>
        <pt x="244" y="587" on="0"/>
        <pt x="244" y="557" on="1"/>
        <pt x="244" y="345" on="1"/>
        <pt x="300" y="410" on="0"/>
        <pt x="351" y="531" on="0"/>
      </contour>
    </TTGlyph>
    <TTGlyph name="afii61352" xMin="29" yMin="-5" xMax="1027" yMax="712">
      <contour>
        <pt x="663" y="317" on="1"/>
        <pt x="961" y="317" on="1"/>
        <pt x="937" y="213" on="1"/>
        <pt x="639" y="213" on="1"/>
      </contour>
      <contour>
        <pt x="270" y="364" on="1"/>
        <pt x="242" y="475" on="1"/>
        <pt x="237" y="475" on="1"/>
        <pt x="229" y="365" on="1"/>
        <pt x="152" y="0" on="1"/>
        <pt x="29" y="0" on="1"/>
        <pt x="178" y="705" on="1"/>
        <pt x="273" y="705" on="1"/>
        <pt x="432" y="333" on="1"/>
        <pt x="459" y="225" on="1"/>
        <pt x="465" y="225" on="1"/>
        <pt x="472" y="332" on="1"/>
        <pt x="550" y="700" on="1"/>
        <pt x="673" y="700" on="1"/>
        <pt x="524" y="-5" on="1"/>
        <pt x="429" y="-5" on="1"/>
      </contour>
      <contour>
        <pt x="686" y="499" on="1"/>
        <pt x="686" y="553" on="0"/>
        <pt x="723" y="633" on="0"/>
        <pt x="783" y="686" on="0"/>
        <pt x="856" y="712" on="0"/>
        <pt x="892" y="712" on="1"/>
        <pt x="958" y="712" on="0"/>
        <pt x="1027" y="651" on="0"/>
        <pt x="1027" y="592" on="1"/>
        <pt x="1027" y="535" on="0"/>
        <pt x="993" y="452" on="0"/>
        <pt x="935" y="398" on="0"/>
        <pt x="860" y="372" on="0"/>
        <pt x="820" y="372" on="1"/>
        <pt x="758" y="372" on="0"/>
        <pt x="686" y="441" on="0"/>
      </contour>
      <contour>
        <pt x="795" y="505" on="1"/>
        <pt x="795" y="483" on="0"/>
        <pt x="817" y="456" on="0"/>
        <pt x="838" y="456" on="1"/>
        <pt x="871" y="456" on="0"/>
        <pt x="917" y="525" on="0"/>
        <pt x="917" y="579" on="1"/>
        <pt x="917" y="628" on="0"/>
        <pt x="874" y="628" on="1"/>
        <pt x="857" y="628" on="0"/>
        <pt x="829" y="608" on="0"/>
        <pt x="807" y="575" on="0"/>
        <pt x="795" y="530" on="0"/>
      </contour>
    </TTGlyph>
    <TTGlyph name="agrave" xMin="33" yMin="-14" xMax="506" yMax="720">
      <component glyphName="a" x="0" y="0" flags="0x204"/>
      <component glyphName="grave" x="82" y="0" flags="0x4"/>
    </TTGlyph>
    <TTGlyph name="amacron" xMin="33" yMin="-14" xMax="508" yMax="658">
      <component glyphName="a" x="0" y="0" flags="0x204"/>
      <component glyphName="macron" x="43" y="0" flags="0x4"/>
    </TTGlyph>
    <TTGlyph name="ampersand" xMin="73" yMin="-30" xMax="714" yMax="714">
      <contour>
        <pt x="73" y="162" on="1"/>
        <pt x="73" y="208" on="0"/>
        <pt x="110" y="290" on="0"/>
        <pt x="171" y="358" on="0"/>
        <pt x="248" y="413" on="0"/>
        <pt x="289" y="433" on="1"/>
        <pt x="272" y="466" on="0"/>
        <pt x="263" y="520" on="0"/>
        <pt x="263" y="547" on="1"/>
        <pt x="263" y="580" on="0"/>
        <pt x="285" y="640" on="0"/>
        <pt x="333" y="686" on="0"/>
        <pt x="407" y="714" on="0"/>
        <pt x="458" y="714" on="1"/>
        <pt x="498" y="714" on="0"/>
        <pt x="549" y="694" on="0"/>
        <pt x="579" y="661" on="0"/>
        <pt x="590" y="620" on="0"/>
        <pt x="590" y="600" on="1"/>
        <pt x="590" y="549" on="0"/>
        <pt x="509" y="456" on="0"/>
        <pt x="434" y="415" on="1"/>
        <pt x="456" y="361" on="0"/>
        <pt x="503" y="271" on="0"/>
        <pt x="535" y="227" on="1"/>
        <pt x="561" y="252" on="0"/>
        <pt x="613" y="327" on="0"/>
        <pt x="635" y="366" on="1"/>
        <pt x="714" y="316" on="1"/>
        <pt x="704" y="298" on="0"/>
        <pt x="674" y="255" on="0"/>
        <pt x="641" y="211" on="0"/>
        <pt x="608" y="172" on="0"/>
        <pt x="595" y="158" on="1"/>
        <pt x="619" y="129" on="0"/>
        <pt x="676" y="78" on="0"/>
        <pt x="704" y="66" on="1"/>
        <pt x="617" y="-30" on="1"/>
        <pt x="602" y="-24" on="0"/>
        <pt x="570" y="-1" on="0"/>
        <pt x="539" y="26" on="0"/>
        <pt x="511" y="56" on="0"/>
        <pt x="501" y="70" on="1"/>
        <pt x="458" y="37" on="0"/>
        <pt x="345" y="-14" on="0"/>
        <pt x="270" y="-14" on="1"/>
        <pt x="224" y="-14" on="0"/>
        <pt x="151" y="13" on="0"/>
        <pt x="100" y="60" on="0"/>
        <pt x="73" y="124" on="0"/>
      </contour>
      <contour>
        <pt x="443" y="149" on="1"/>
        <pt x="406" y="202" on="0"/>
        <pt x="348" y="307" on="0"/>
        <pt x="329" y="354" on="1"/>
        <pt x="270" y="314" on="0"/>
        <pt x="203" y="233" on="0"/>
        <pt x="203" y="186" on="1"/>
        <pt x="203" y="144" on="0"/>
        <pt x="257" y="96" on="0"/>
        <pt x="310" y="96" on="1"/>
        <pt x="348" y="96" on="0"/>
        <pt x="421" y="129" on="0"/>
      </contour>
      <contour>
        <pt x="384" y="553" on="1"/>
        <pt x="384" y="531" on="0"/>
        <pt x="391" y="500" on="0"/>
        <pt x="402" y="476" on="1"/>
        <pt x="444" y="501" on="0"/>
        <pt x="490" y="549" on="0"/>
        <pt x="490" y="576" on="1"/>
        <pt x="490" y="595" on="0"/>
        <pt x="472" y="617" on="0"/>
        <pt x="447" y="617" on="1"/>
        <pt x="416" y="617" on="0"/>
        <pt x="384" y="579" on="0"/>
      </contour>
    </TTGlyph>
    <TTGlyph name="aogonek" xMin="33" yMin="-202" xMax="506" yMax="514">
      <contour>
        <pt x="444" y="200" on="1"/>
        <pt x="436" y="162" on="0"/>
        <pt x="429" y="84" on="0"/>
        <pt x="429" y="49" on="1"/>
        <pt x="429" y="35" on="0"/>
        <pt x="430" y="10" on="0"/>
        <pt x="431" y="-1" on="1"/>
        <pt x="410" y="-1" on="1"/>
        <pt x="379" y="-13" on="0"/>
        <pt x="337" y="-51" on="0"/>
        <pt x="337" y="-82" on="1"/>
        <pt x="338" y="-113" on="0"/>
        <pt x="374" y="-115" on="1"/>
        <pt x="390" y="-115" on="0"/>
        <pt x="413" y="-106" on="1"/>
        <pt x="419" y="-168" on="1"/>
        <pt x="400" y="-181" on="0"/>
        <pt x="337" y="-202" on="0"/>
        <pt x="304" y="-202" on="1"/>
        <pt x="256" y="-202" on="0"/>
        <pt x="209" y="-158" on="0"/>
        <pt x="209" y="-124" on="1"/>
        <pt x="209" y="-98" on="0"/>
        <pt x="231" y="-56" on="0"/>
        <pt x="268" y="-24" on="0"/>
        <pt x="315" y="-2" on="0"/>
        <pt x="339" y="5" on="1"/>
        <pt x="326" y="85" on="1"/>
        <pt x="322" y="85" on="1"/>
        <pt x="311" y="67" on="0"/>
        <pt x="276" y="32" on="0"/>
        <pt x="234" y="3" on="0"/>
        <pt x="187" y="-14" on="0"/>
        <pt x="162" y="-14" on="1"/>
        <pt x="98" y="-14" on="0"/>
        <pt x="33" y="72" on="0"/>
        <pt x="33" y="144" on="1"/>
        <pt x="33" y="217" on="0"/>
        <pt x="71" y="351" on="0"/>
        <pt x="148" y="453" on="0"/>
        <pt x="267" y="514" on="0"/>
        <pt x="349" y="514" on="1"/>
        <pt x="384" y="514" on="0"/>
        <pt x="467" y="501" on="0"/>
        <pt x="506" y="490" on="1"/>
      </contour>
      <contour>
        <pt x="365" y="402" on="1"/>
        <pt x="354" y="407" on="0"/>
        <pt x="325" y="412" on="0"/>
        <pt x="311" y="412" on="1"/>
        <pt x="274" y="411" on="0"/>
        <pt x="219" y="369" on="0"/>
        <pt x="180" y="299" on="0"/>
        <pt x="160" y="212" on="0"/>
        <pt x="160" y="168" on="1"/>
        <pt x="160" y="136" on="0"/>
        <pt x="182" y="89" on="0"/>
        <pt x="209" y="89" on="1"/>
        <pt x="227" y="89" on="0"/>
        <pt x="259" y="104" on="0"/>
        <pt x="286" y="128" on="0"/>
        <pt x="307" y="156" on="0"/>
        <pt x="315" y="168" on="1"/>
      </contour>
    </TTGlyph>
    <TTGlyph name="approxequal" xMin="45" yMin="171" xMax="516" yMax="540">
      <component glyphName="asciitilde" x="0" y="95" flags="0x204"/>
      <component glyphName="asciitilde" x="0" y="-98" flags="0x4"/>
    </TTGlyph>
    <TTGlyph name="aring" xMin="33" yMin="-14" xMax="506" yMax="743">
      <component glyphName="a" x="0" y="0" flags="0x204"/>
      <component glyphName="ring" x="81" y="0" flags="0x4"/>
    </TTGlyph>
</ttFont>
